<svg xmlns="http://www.w3.org/2000/svg" xmlns:xlink="http://www.w3.org/1999/xlink" width="185" height="185" viewBox="0 0 185 185">
  <defs>
    <linearGradient id="linear-gradient" x1="17.002" y1="0.5" x2="18.002" y2="0.5" gradientUnits="objectBoundingBox">
      <stop offset="0" stop-color="#390154"/>
      <stop offset="0.169" stop-color="#3e0259"/>
      <stop offset="0.394" stop-color="#4e076a"/>
      <stop offset="0.652" stop-color="#690e86"/>
      <stop offset="0.932" stop-color="#8d19ad"/>
      <stop offset="1" stop-color="#981cb8"/>
    </linearGradient>
    <linearGradient id="linear-gradient-2" x1="16.787" y1="0.5" x2="17.787" y2="0.5" gradientUnits="objectBoundingBox">
      <stop offset="0" stop-color="#5a2b70"/>
      <stop offset="0.188" stop-color="#5f2c75"/>
      <stop offset="0.44" stop-color="#6f3186"/>
      <stop offset="0.726" stop-color="#8938a2"/>
      <stop offset="1" stop-color="#a942c4"/>
    </linearGradient>
    <linearGradient id="linear-gradient-3" x1="16.475" y1="0.5" x2="17.475" y2="0.5" gradientUnits="objectBoundingBox">
      <stop offset="0" stop-color="#7b568d"/>
      <stop offset="0.217" stop-color="#805792"/>
      <stop offset="0.508" stop-color="#905ca3"/>
      <stop offset="0.838" stop-color="#aa63bf"/>
      <stop offset="1" stop-color="#ba68d0"/>
    </linearGradient>
    <linearGradient id="linear-gradient-4" x1="15.979" y1="0.5" x2="16.979" y2="0.5" gradientUnits="objectBoundingBox">
      <stop offset="0" stop-color="#9c80aa"/>
      <stop offset="0.261" stop-color="#a181af"/>
      <stop offset="0.611" stop-color="#b286c0"/>
      <stop offset="1" stop-color="#cc8edc"/>
    </linearGradient>
    <linearGradient id="linear-gradient-5" x1="15.072" y1="0.5" x2="16.072" y2="0.5" gradientUnits="objectBoundingBox">
      <stop offset="0" stop-color="#bdaac6"/>
      <stop offset="0.34" stop-color="#c2abcb"/>
      <stop offset="0.793" stop-color="#d3b0dc"/>
      <stop offset="1" stop-color="#ddb3e7"/>
    </linearGradient>
    <linearGradient id="linear-gradient-6" x1="12.881" y1="0.5" x2="13.881" y2="0.5" gradientUnits="objectBoundingBox">
      <stop offset="0" stop-color="#ded5e3"/>
      <stop offset="0.537" stop-color="#e3d6e8"/>
      <stop offset="1" stop-color="#eed9f3"/>
    </linearGradient>
  </defs>
  <g id="Grupo_840759" data-name="Grupo 840759" transform="translate(-262.081 -7979)">
    <g id="Grupo_62103" data-name="Grupo 62103" transform="translate(274.919 7991.279)">
      <path id="Trazado_122165" data-name="Trazado 122165" d="M-33.571,271.451c1.321.749,2.212,3.627-2.143,5.164S-49.225,281.789-50.7,280.8c-1.2-.8-2.45-2.889,2.875-5.24S-36.843,269.619-33.571,271.451Z" transform="translate(171.936 -195.6)" fill="#f9f9f9"/>
      <path id="Trazado_122166" data-name="Trazado 122166" d="M-43.97,280.293s-1.64,2.99-4.17,1.608-8.674-10.489-8.674-10.489,2.365-1.238,2.033-2.583C-54.781,268.829-43.909,277.31-43.97,280.293Z" transform="translate(167.992 -197.25)" fill="#f9f9f9"/>
      <g id="Grupo_62045" data-name="Grupo 62045" transform="translate(107.006 68.077)">
        <g id="Grupo_62044" data-name="Grupo 62044">
          <path id="Trazado_122167" data-name="Trazado 122167" d="M-52.571,271.088a19.662,19.662,0,0,1-1.7-2.684,3.832,3.832,0,0,0-2.456-1.514c-.788-.082-2.913-.064-2.335.96s1.06,1.382,1.332,2.081a4.95,4.95,0,0,0,1.741,1.983c.482.2,2.027.875,2.027.875Z" transform="translate(59.16 -266.86)" fill="#efb185"/>
        </g>
      </g>
      <path id="Trazado_122168" data-name="Trazado 122168" d="M-5.234,297.5a15.178,15.178,0,0,1-.178,1.6c-.08.438-.21.868-.327,1.3-.133.5-.253,1-.429,1.487-.146.411-.341.816-.516,1.227-.226.523-.452,1.044-.729,1.556-.208.377-.45.752-.676,1.121-.37.591-.749,1.17-1.174,1.745-.418.557-.85,1.112-1.328,1.654-.116.132-.215.263-.331.388-.642.7-1.359,1.393-2.113,2.07-.484.438-1.023.861-1.547,1.281-.461.37-.9.742-1.394,1.1-.562.413-1.19.806-1.8,1.2-.629.411-1.229.832-1.912,1.227a50.845,50.845,0,0,1-4.727,2.391c-.473.215-.962.418-1.447.623q-1.9.8-3.909,1.482c-.489.169-.978.352-1.48.51-.83.258-1.691.489-2.541.72-.665.185-1.325.375-2,.539-.923.226-1.858.409-2.8.6-.619.124-1.232.267-1.853.379q-2.83.5-5.73.8c-.571.057-1.145.094-1.711.141-1.149.1-2.292.18-3.448.235-.717.03-1.435.044-2.153.055-.93.023-1.864.028-2.792.011-.749,0-1.487-.025-2.235-.055q-1.286-.051-2.573-.139c-.768-.053-1.538-.116-2.306-.2-.854-.078-1.709-.173-2.548-.285-.729-.094-1.451-.194-2.166-.306-.905-.135-1.807-.3-2.7-.468-.7-.133-1.391-.269-2.075-.422-1.044-.228-2.072-.482-3.092-.759-.585-.149-1.174-.3-1.748-.466-1.839-.539-3.637-1.14-5.367-1.814-.854-.331-1.682-.694-2.507-1.064-.448-.2-.914-.379-1.35-.589-1.263-.6-2.49-1.234-3.67-1.919-9.885-5.706-14.827-13.2-14.808-20.689l-.03,11.765c-.027,7.487,4.919,14.984,14.806,20.694q1.776,1.017,3.677,1.923c.437.2.889.384,1.334.58.74.326,1.467.671,2.232.969.082.036.18.057.269.091,1.743.678,3.549,1.282,5.393,1.82.148.048.285.108.432.149.414.114.848.2,1.264.311,1.042.272,2.084.537,3.149.768.279.064.542.146.82.2.4.085.822.137,1.231.217.884.167,1.773.318,2.674.462.357.059.7.139,1.067.188.386.053.781.078,1.17.126.836.107,1.67.2,2.514.285.4.037.79.094,1.19.133.368.03.742.03,1.117.059.836.055,1.679.1,2.523.135.432.016.864.059,1.295.069.34.011.692-.007,1.033-.007q1.374.016,2.747-.014c.45-.007.9.014,1.355-.007.267,0,.533-.041.8-.052,1.124-.046,2.248-.125,3.364-.222.466-.041.934-.044,1.4-.094.148-.009.288-.041.432-.059q2.865-.3,5.667-.788c.1-.018.2-.028.293-.043.571-.107,1.122-.242,1.686-.359.9-.183,1.81-.363,2.706-.578.658-.165,1.3-.347,1.951-.528.878-.242,1.757-.478,2.618-.747.178-.059.366-.1.541-.155.3-.1.573-.226.859-.324,1.359-.466,2.682-.966,3.98-1.508.473-.2.95-.4,1.426-.612a51.371,51.371,0,0,0,4.73-2.391c.2-.123.407-.242.61-.363.452-.27.836-.571,1.273-.848.617-.4,1.248-.8,1.824-1.218.5-.363.937-.733,1.4-1.106.528-.42,1.063-.841,1.547-1.279.1-.085.212-.164.309-.254.64-.6,1.234-1.2,1.8-1.813.116-.132.221-.269.338-.393.333-.381.67-.754.974-1.14.13-.162.217-.342.343-.511.436-.578.827-1.174,1.19-1.77.148-.244.347-.475.485-.715.069-.123.1-.247.167-.368.285-.528.517-1.06.747-1.594.133-.3.306-.6.42-.891.041-.1.055-.2.089-.309.18-.494.3-1,.432-1.5.089-.34.226-.674.3-1.014.014-.1.009-.183.023-.277a14.967,14.967,0,0,0,.18-1.54c.032-.352.112-.706.121-1.064.007-.148.007-.3.007-.441q.013-5.881.036-11.766A14.2,14.2,0,0,1-5.234,297.5Z" transform="translate(130.137 -176.274)" fill="#147f91"/>
      <g id="Grupo_62046" data-name="Grupo 62046" transform="translate(24.713 90.577)">
        <path id="Trazado_122169" data-name="Trazado 122169" d="M-19.935,288.014c19.664,11.357,19.749,29.755.235,41.1-19.531,11.357-51.271,11.357-70.931,0-19.639-11.343-19.767-29.741-.233-41.1C-71.351,276.675-39.572,276.675-19.935,288.014Z" transform="translate(105.438 -279.51)" fill="#65e0f6"/>
      </g>
      <g id="Grupo_62047" data-name="Grupo 62047" transform="translate(62.153 93.511)">
        <path id="Trazado_122170" data-name="Trazado 122170" d="M-59.777,283.61c5.657,3.266,5.683,8.561.062,11.823s-14.752,3.269-20.409,0-5.687-8.558-.068-11.823S-65.432,280.342-59.777,283.61Z" transform="translate(84.383 -281.159)" fill="#147f91"/>
      </g>
      <g id="Grupo_62052" data-name="Grupo 62052" transform="translate(62.874 14.074)">
        <path id="Trazado_122171" data-name="Trazado 122171" d="M-73.259,341.356h2.525a10.119,10.119,0,0,0,10.12-10.118V241h-22.76v90.236A10.118,10.118,0,0,0-73.259,341.356Z" transform="translate(84.448 -232.995)" fill="#ade9f4"/>
        <path id="Trazado_122172" data-name="Trazado 122172" d="M-74.231,328.1h1.871a7.467,7.467,0,0,0,7.463-7.471V254.017H-81.7v66.614A7.469,7.469,0,0,0-74.231,328.1Z" transform="translate(85.751 -222.859)" fill="#298bed"/>
        <g id="Grupo_62048" data-name="Grupo 62048" transform="translate(4.056 26.285)">
          <path id="Trazado_122173" data-name="Trazado 122173" d="M-67.229,252.762c3.208,1.939,3.1,5.021-.247,6.887a13.1,13.1,0,0,1-11.888-.123c-3.2-1.934-3.1-5.014.242-6.88A13.108,13.108,0,0,1-67.229,252.762Z" transform="translate(81.698 -251.277)" fill="#0467d8"/>
        </g>
        <g id="Grupo_62051" data-name="Grupo 62051">
          <g id="Grupo_62049" data-name="Grupo 62049" transform="translate(0.006 14.45)">
            <path id="Trazado_122174" data-name="Trazado 122174" d="M-83.975,247.011v-2.387c.009,1.791,1.149,2.451,3.455,3.847,4.76,2.866,12.64,2.944,17.6.173,2.561-1.416,3.846-1.869,3.846-3.771l0,2.063c0,1.9-1.28,3.8-3.834,5.228-4.954,2.77-12.848,2.686-17.6-.18C-82.816,250.594-83.966,248.8-83.975,247.011Z" transform="translate(83.975 -244.624)" fill="#4ed2f2"/>
          </g>
          <path id="Trazado_122175" data-name="Trazado 122175" d="M-83.975,240.473v7.384s.1,4.079,1.727,4.778,13.614,1.761,13.614,1.761l6.448-.792,3.117-3.435,0-2.063-.016-7.633Z" transform="translate(83.981 -233.407)" fill="#4ed2f2"/>
          <g id="Grupo_62050" data-name="Grupo 62050">
            <path id="Trazado_122176" data-name="Trazado 122176" d="M-62.546,238.7c4.76,2.867,4.6,7.433-.37,10.206s-12.841,2.684-17.6-.18-4.593-7.435.37-10.206S-67.3,235.84-62.546,238.7Z" transform="translate(83.978 -236.5)" fill="#b8f8ff"/>
            <path id="Trazado_122177" data-name="Trazado 122177" d="M-72.327,248.438a16.156,16.156,0,0,1-8.052-1.957c-1.707-1.032-2.648-2.293-2.625-3.547.021-1.29,1.1-2.624,2.945-3.65a16.318,16.318,0,0,1,7.812-1.807,16.114,16.114,0,0,1,8.052,1.955c1.705,1.032,2.646,2.286,2.626,3.54-.027,1.291-1.1,2.631-2.943,3.657A16.415,16.415,0,0,1-72.327,248.438Z" transform="translate(84.736 -235.74)" fill="#2bb4da"/>
            <path id="Trazado_122178" data-name="Trazado 122178" d="M-80.059,240.812A16.276,16.276,0,0,1-72.247,239,16.171,16.171,0,0,1-64.2,240.96a5.276,5.276,0,0,1,2.493,2.729,2.807,2.807,0,0,0,.133-.717c.02-1.254-.921-2.508-2.626-3.54a16.114,16.114,0,0,0-8.052-1.955,16.318,16.318,0,0,0-7.812,1.807c-1.849,1.026-2.923,2.36-2.945,3.65a2.714,2.714,0,0,0,.132.816A5.614,5.614,0,0,1-80.059,240.812Z" transform="translate(84.736 -235.74)" fill="#29b2dc"/>
          </g>
        </g>
      </g>
      <path id="Trazado_122179" data-name="Trazado 122179" d="M-14.523,314.933l-4.741-2.6a9.1,9.1,0,0,1-3.75,3.783c-5.879,3.415-15.428,3.415-21.341,0s-5.948-8.949-.071-12.371a18.8,18.8,0,0,1,5.765-2.046l-9.252-4.586c-5.87,2.4-15.215.955-20.5-2.1-5.082-2.935-5.794-7.442-2.157-10.817l-11.761-6.45a58.977,58.977,0,0,0-14.375,5.792c-.27.157-.494.324-.758.482l6.231,4.6c4.734-.516,9.821.276,13.5,2.4,4.6,2.661,5.594,6.592,3.062,9.815l9.242,6.827c1.688.423-.683,1.476.7,2.273,2.312,1.332,4.451,2.312,4.961,4.04l23.661,15.32a57.012,57.012,0,0,0,10.57-4.662A33.608,33.608,0,0,0-14.523,314.933Z" transform="translate(136.357 -190.303)" fill="#65e0f6"/>
      <g id="Grupo_62053" data-name="Grupo 62053" transform="translate(87.198 118.193)">
        <path id="Trazado_122180" data-name="Trazado 122180" d="M-45.695,297.481c5.66,3.268,5.683,8.568.069,11.829s-14.758,3.266-20.414,0-5.687-8.561-.062-11.829S-51.346,294.22-45.695,297.481Z" transform="translate(70.299 -295.035)" fill="#147f91"/>
      </g>
      <g id="Grupo_62058" data-name="Grupo 62058" transform="translate(87.463 34.586)">
        <path id="Trazado_122181" data-name="Trazado 122181" d="M-59.433,352.894h2.527a10.117,10.117,0,0,0,10.118-10.116V252.533h-22.76v90.245A10.119,10.119,0,0,0-59.433,352.894Z" transform="translate(70.62 -244.527)" fill="#ade9f4"/>
        <path id="Trazado_122182" data-name="Trazado 122182" d="M-60.409,339.632h1.871a7.468,7.468,0,0,0,7.465-7.469V265.547h-16.8v66.616A7.465,7.465,0,0,0-60.409,339.632Z" transform="translate(71.925 -234.393)" fill="#298bed"/>
        <g id="Grupo_62054" data-name="Grupo 62054" transform="translate(4.054 26.283)">
          <path id="Trazado_122183" data-name="Trazado 122183" d="M-53.4,264.293c3.206,1.939,3.1,5.021-.249,6.893a13.122,13.122,0,0,1-11.884-.123c-3.2-1.933-3.107-5.016.242-6.885A13.1,13.1,0,0,1-53.4,264.293Z" transform="translate(67.871 -262.808)" fill="#0467d8"/>
        </g>
        <g id="Grupo_62057" data-name="Grupo 62057">
          <g id="Grupo_62055" data-name="Grupo 62055" transform="translate(0.008 14.45)">
            <path id="Trazado_122184" data-name="Trazado 122184" d="M-70.146,258.541v-2.385c0,1.789,1.142,2.453,3.455,3.844,4.762,2.867,12.638,2.947,17.6.18,2.554-1.421,3.839-1.877,3.839-3.773l.005,2.062c0,1.9-1.273,3.81-3.832,5.226-4.958,2.771-12.843,2.686-17.6-.174C-68.992,262.124-70.142,260.333-70.146,258.541Z" transform="translate(70.146 -256.156)" fill="#4ed2f2"/>
          </g>
          <path id="Trazado_122185" data-name="Trazado 122185" d="M-70.146,252.006v7.382s.091,4.077,1.723,4.781,13.614,1.756,13.614,1.756l6.446-.79,3.117-3.435-.005-2.062-.012-7.633Z" transform="translate(70.154 -244.938)" fill="#4ed2f2"/>
          <g id="Grupo_62056" data-name="Grupo 62056">
            <path id="Trazado_122186" data-name="Trazado 122186" d="M-48.718,250.237c4.757,2.866,4.593,7.433-.368,10.2s-12.839,2.686-17.6-.183-4.593-7.43.365-10.2S-53.477,247.37-48.718,250.237Z" transform="translate(70.151 -248.032)" fill="#b8f8ff"/>
            <path id="Trazado_122187" data-name="Trazado 122187" d="M-58.5,259.967a16.121,16.121,0,0,1-8.057-1.955c-1.707-1.032-2.644-2.293-2.619-3.54.018-1.291,1.088-2.624,2.939-3.657a16.4,16.4,0,0,1,7.815-1.807,16.142,16.142,0,0,1,8.048,1.955c1.707,1.032,2.646,2.291,2.625,3.547-.023,1.29-1.09,2.622-2.934,3.648A16.31,16.31,0,0,1-58.5,259.967Z" transform="translate(70.91 -247.272)" fill="#2bb4da"/>
            <path id="Trazado_122188" data-name="Trazado 122188" d="M-66.235,252.343a16.323,16.323,0,0,1,7.815-1.8,16.086,16.086,0,0,1,8.048,1.955,5.3,5.3,0,0,1,2.5,2.723,2.588,2.588,0,0,0,.128-.71c.021-1.256-.918-2.515-2.625-3.547a16.142,16.142,0,0,0-8.048-1.955,16.4,16.4,0,0,0-7.815,1.807c-1.851,1.033-2.922,2.366-2.939,3.657a2.653,2.653,0,0,0,.126.811A5.622,5.622,0,0,1-66.235,252.343Z" transform="translate(70.91 -247.272)" fill="#29b2dc"/>
          </g>
        </g>
      </g>
      <g id="Grupo_62059" data-name="Grupo 62059" transform="translate(32.509 104.375)">
        <path id="Trazado_122189" data-name="Trazado 122189" d="M-75.318,289.828c5.914,3.413,5.941,8.949.06,12.364s-15.421,3.419-21.341,0-5.948-8.951-.069-12.364S-81.227,286.413-75.318,289.828Z" transform="translate(101.053 -287.267)" fill="#147f91"/>
      </g>
      <g id="Grupo_62064" data-name="Grupo 62064" transform="translate(34.84 25.6)">
        <path id="Trazado_122190" data-name="Trazado 122190" d="M-89.029,347.836H-86.5a10.118,10.118,0,0,0,10.118-10.112V247.482H-99.14v90.241A10.114,10.114,0,0,0-89.029,347.836Z" transform="translate(100.213 -239.474)" fill="#ade9f4"/>
        <path id="Trazado_122191" data-name="Trazado 122191" d="M-90,334.583h1.867a7.468,7.468,0,0,0,7.465-7.474V260.494H-97.463v66.614A7.468,7.468,0,0,0-90,334.583Z" transform="translate(101.518 -229.341)" fill="#298bed"/>
        <g id="Grupo_62060" data-name="Grupo 62060" transform="translate(4.054 26.284)">
          <path id="Trazado_122192" data-name="Trazado 122192" d="M-83,259.245c3.208,1.933,3.1,5.014-.253,6.886a13.093,13.093,0,0,1-11.875-.125c-3.2-1.93-3.108-5.013.236-6.882A13.1,13.1,0,0,1-83,259.245Z" transform="translate(97.464 -257.756)" fill="#0467d8"/>
        </g>
        <g id="Grupo_62063" data-name="Grupo 62063">
          <g id="Grupo_62061" data-name="Grupo 62061" transform="translate(0.011 14.447)">
            <path id="Trazado_122193" data-name="Trazado 122193" d="M-99.737,253.487V251.1c0,1.791,1.14,2.455,3.453,3.846,4.76,2.865,12.638,2.946,17.6.18,2.554-1.423,3.837-1.869,3.837-3.773l.007,2.065c0,1.9-1.279,3.8-3.837,5.228-4.96,2.764-12.839,2.686-17.6-.181C-98.586,257.077-99.737,255.28-99.737,253.487Z" transform="translate(99.737 -251.102)" fill="#4ed2f2"/>
          </g>
          <path id="Trazado_122194" data-name="Trazado 122194" d="M-99.737,246.952v7.382s.085,4.082,1.72,4.783,13.616,1.754,13.616,1.754l6.446-.788,3.119-3.431-.007-2.065-.014-7.634Z" transform="translate(99.748 -239.887)" fill="#4ed2f2"/>
          <g id="Grupo_62062" data-name="Grupo 62062">
            <path id="Trazado_122195" data-name="Trazado 122195" d="M-78.31,245.184c4.757,2.866,4.6,7.433-.366,10.2s-12.843,2.689-17.6-.178-4.6-7.433.363-10.2S-83.072,242.317-78.31,245.184Z" transform="translate(99.743 -242.98)" fill="#b8f8ff"/>
            <path id="Trazado_122196" data-name="Trazado 122196" d="M-88.089,254.912a16.158,16.158,0,0,1-8.057-1.951c-1.709-1.035-2.644-2.289-2.621-3.542.018-1.291,1.092-2.625,2.941-3.657a16.358,16.358,0,0,1,7.815-1.807,16.049,16.049,0,0,1,8.045,1.96c1.711,1.028,2.648,2.286,2.626,3.54-.021,1.291-1.09,2.622-2.932,3.652A16.4,16.4,0,0,1-88.089,254.912Z" transform="translate(100.502 -242.22)" fill="#2bb4da"/>
            <path id="Trazado_122197" data-name="Trazado 122197" d="M-95.827,247.29a16.317,16.317,0,0,1,7.815-1.8,16.067,16.067,0,0,1,8.045,1.957,5.282,5.282,0,0,1,2.5,2.723,2.731,2.731,0,0,0,.13-.712c.021-1.254-.916-2.512-2.626-3.54a16.049,16.049,0,0,0-8.045-1.96,16.358,16.358,0,0,0-7.815,1.807c-1.849,1.032-2.923,2.366-2.941,3.657a2.6,2.6,0,0,0,.13.815A5.6,5.6,0,0,1-95.827,247.29Z" transform="translate(100.502 -242.22)" fill="#29b2dc"/>
          </g>
        </g>
      </g>
      <path id="Trazado_122198" data-name="Trazado 122198" d="M-90.64,322.015c19.662,11.354,51.4,11.354,70.936,0a37.735,37.735,0,0,0,8-6.131l-6.414-1.939c-5.914,2.915-14.777,2.794-20.4-.454-3.322-1.923-4.718-4.511-4.319-7.023l-26.275-7.94a10.344,10.344,0,0,1-2.712,2.239c-5.872,3.421-15.421,3.421-21.337,0-4.84-2.791-5.673-6.99-2.623-10.3l-4.83-1.46C-109.411,299.805-106.093,313.087-90.64,322.015Zm14.354-15.16c5.87-3.41,15.433-3.41,21.346,0s5.939,8.954.068,12.368-15.426,3.415-21.346,0S-82.166,310.273-76.286,306.854Z" transform="translate(130.176 -181.536)" fill="#65e0f6"/>
      <g id="Grupo_62065" data-name="Grupo 62065" transform="translate(49.402 122.761)">
        <path id="Trazado_122199" data-name="Trazado 122199" d="M-65.819,300.161c5.913,3.419,5.941,8.954.06,12.368s-15.423,3.415-21.343,0-5.945-8.949-.066-12.368S-71.734,296.751-65.819,300.161Z" transform="translate(91.554 -297.603)" fill="#147f91"/>
      </g>
      <g id="Grupo_62070" data-name="Grupo 62070" transform="translate(52.043 37.857)">
        <path id="Trazado_122200" data-name="Trazado 122200" d="M-79.352,354.731h2.529A10.113,10.113,0,0,0-66.71,344.613V254.372H-89.463v90.241A10.113,10.113,0,0,0-79.352,354.731Z" transform="translate(90.54 -246.366)" fill="#ade9f4"/>
        <path id="Trazado_122201" data-name="Trazado 122201" d="M-80.326,341.472h1.871A7.465,7.465,0,0,0-70.99,334V267.387h-16.8V334A7.471,7.471,0,0,0-80.326,341.472Z" transform="translate(91.842 -236.231)" fill="#298bed"/>
        <g id="Grupo_62066" data-name="Grupo 62066" transform="translate(4.053 26.282)">
          <path id="Trazado_122202" data-name="Trazado 122202" d="M-73.322,266.133c3.212,1.939,3.1,5.021-.247,6.889a13.108,13.108,0,0,1-11.882-.119c-3.2-1.939-3.108-5.014.242-6.887A13.092,13.092,0,0,1-73.322,266.133Z" transform="translate(87.79 -264.646)" fill="#0467d8"/>
        </g>
        <g id="Grupo_62069" data-name="Grupo 62069">
          <g id="Grupo_62067" data-name="Grupo 62067" transform="translate(0.009 14.449)">
            <path id="Trazado_122203" data-name="Trazado 122203" d="M-90.064,260.381v-2.387c0,1.793,1.147,2.449,3.453,3.846,4.762,2.867,12.64,2.946,17.6.181,2.559-1.425,3.845-1.877,3.839-3.773l.005,2.06c0,1.9-1.273,3.807-3.827,5.224-4.963,2.773-12.85,2.689-17.61-.172C-88.913,263.963-90.062,262.172-90.064,260.381Z" transform="translate(90.064 -257.994)" fill="#4ed2f2"/>
          </g>
          <path id="Trazado_122204" data-name="Trazado 122204" d="M-90.064,253.842v7.385s.087,4.079,1.721,4.778,13.614,1.761,13.614,1.761l6.448-.79,3.117-3.435-.005-2.06-.011-7.64Z" transform="translate(90.073 -246.779)" fill="#4ed2f2"/>
          <g id="Grupo_62068" data-name="Grupo 62068">
            <path id="Trazado_122205" data-name="Trazado 122205" d="M-68.638,252.071c4.762,2.873,4.6,7.433-.366,10.2s-12.841,2.686-17.6-.18-4.593-7.428.37-10.2S-73.389,249.211-68.638,252.071Z" transform="translate(90.069 -249.871)" fill="#b8f8ff"/>
            <path id="Trazado_122206" data-name="Trazado 122206" d="M-78.415,261.805a16.1,16.1,0,0,1-8.054-1.955c-1.712-1.033-2.644-2.291-2.625-3.542.023-1.29,1.1-2.627,2.941-3.655a16.394,16.394,0,0,1,7.815-1.805,16.085,16.085,0,0,1,8.045,1.953c1.712,1.033,2.653,2.287,2.626,3.545-.021,1.291-1.092,2.624-2.932,3.652A16.386,16.386,0,0,1-78.415,261.805Z" transform="translate(90.828 -249.11)" fill="#2bb4da"/>
            <path id="Trazado_122207" data-name="Trazado 122207" d="M-86.153,254.183a16.332,16.332,0,0,1,7.815-1.8,16.122,16.122,0,0,1,8.045,1.949,5.333,5.333,0,0,1,2.5,2.73,2.513,2.513,0,0,0,.126-.713c.027-1.258-.914-2.512-2.626-3.545a16.085,16.085,0,0,0-8.045-1.953,16.394,16.394,0,0,0-7.815,1.805c-1.844,1.028-2.918,2.366-2.941,3.655a2.62,2.62,0,0,0,.133.813A5.578,5.578,0,0,1-86.153,254.183Z" transform="translate(90.828 -249.11)" fill="#29b2dc"/>
          </g>
        </g>
      </g>
      <path id="Trazado_122208" data-name="Trazado 122208" d="M-90.675,316.033c17.132,9.9,43.437,11.167,62.84,3.81l-16.237-10.011-6.665-1.428a8.271,8.271,0,0,1-4.17,4.836c-5.877,3.415-15.426,3.415-21.346,0-5.063-2.928-5.783-7.4-2.193-10.777l-26.914-5.774C-104.839,303.722-99.974,310.666-90.675,316.033Z" transform="translate(130.211 -175.554)" fill="#65e0f6"/>
      <g id="Grupo_62077" data-name="Grupo 62077" transform="translate(88.317 27.012)" opacity="0.8">
        <g id="Grupo_62071" data-name="Grupo 62071" opacity="0">
          <path id="Trazado_122209" data-name="Trazado 122209" d="M-27.1,265.066a21.293,21.293,0,0,1-21.284,21.29,21.3,21.3,0,0,1-21.287-21.29,21.29,21.29,0,0,1,21.287-21.292A21.28,21.28,0,0,1-27.1,265.066Z" transform="translate(69.67 -243.774)" fill="#9744e7" opacity="0.882"/>
        </g>
        <g id="Grupo_62072" data-name="Grupo 62072" transform="translate(3.322 3.549)" opacity="0.167">
          <path id="Trazado_122210" data-name="Trazado 122210" d="M-31.874,263.738a17.972,17.972,0,0,1-17.962,17.969A17.981,17.981,0,0,1-67.8,263.738a17.967,17.967,0,0,1,17.966-17.969A17.958,17.958,0,0,1-31.874,263.738Z" transform="translate(67.802 -245.769)" fill="#a863eb" opacity="0.785"/>
        </g>
        <g id="Grupo_62073" data-name="Grupo 62073" transform="translate(6.642 7.099)" opacity="0.333">
          <path id="Trazado_122211" data-name="Trazado 122211" d="M-36.647,262.411a14.647,14.647,0,0,1-14.642,14.643,14.654,14.654,0,0,1-14.646-14.643,14.645,14.645,0,0,1,14.646-14.646A14.637,14.637,0,0,1-36.647,262.411Z" transform="translate(65.935 -247.765)" fill="#ba82ef" opacity="0.688"/>
        </g>
        <g id="Grupo_62074" data-name="Grupo 62074" transform="translate(9.964 10.646)" opacity="0.5">
          <path id="Trazado_122212" data-name="Trazado 122212" d="M-41.421,261.084a11.327,11.327,0,0,1-11.322,11.322,11.331,11.331,0,0,1-11.324-11.322,11.324,11.324,0,0,1,11.324-11.325A11.32,11.32,0,0,1-41.421,261.084Z" transform="translate(64.067 -249.759)" fill="#cba2f3" opacity="0.591"/>
        </g>
        <g id="Grupo_62075" data-name="Grupo 62075" transform="translate(13.284 14.194)" opacity="0.667">
          <path id="Trazado_122213" data-name="Trazado 122213" d="M-46.194,259.757a8.006,8.006,0,0,1-8,8,8.008,8.008,0,0,1-8-8,8,8,0,0,1,8-8A8,8,0,0,1-46.194,259.757Z" transform="translate(62.2 -251.754)" fill="#dcc1f7" opacity="0.494"/>
        </g>
        <g id="Grupo_62076" data-name="Grupo 62076" transform="translate(16.604 17.743)" opacity="0.833">
          <path id="Trazado_122214" data-name="Trazado 122214" d="M-50.967,258.431a4.684,4.684,0,0,1-4.682,4.676,4.684,4.684,0,0,1-4.684-4.676,4.682,4.682,0,0,1,4.684-4.682A4.682,4.682,0,0,1-50.967,258.431Z" transform="translate(60.333 -253.749)" fill="#eee0fb" opacity="0.397"/>
        </g>
        <path id="Trazado_122215" data-name="Trazado 122215" d="M-55.742,257.1a1.359,1.359,0,0,1-1.36,1.352,1.358,1.358,0,0,1-1.362-1.352,1.359,1.359,0,0,1,1.362-1.359A1.36,1.36,0,0,1-55.742,257.1Z" transform="translate(78.39 -234.452)" fill="#fff" opacity="0.3"/>
      </g>
      <g id="Grupo_62084" data-name="Grupo 62084" transform="translate(62.447 0)" opacity="0.8">
        <g id="Grupo_62078" data-name="Grupo 62078" opacity="0">
          <path id="Trazado_122216" data-name="Trazado 122216" d="M-41.65,249.874a21.3,21.3,0,0,1-21.284,21.3,21.308,21.308,0,0,1-21.284-21.3,21.286,21.286,0,0,1,21.284-21.286A21.275,21.275,0,0,1-41.65,249.874Z" transform="translate(84.218 -228.588)" fill="#923be6" opacity="0.91"/>
        </g>
        <g id="Grupo_62079" data-name="Grupo 62079" transform="translate(3.322 3.547)" opacity="0.167">
          <path id="Trazado_122217" data-name="Trazado 122217" d="M-46.424,248.547A17.974,17.974,0,0,1-64.388,266.52,17.982,17.982,0,0,1-82.35,248.547a17.966,17.966,0,0,1,17.962-17.965A17.958,17.958,0,0,1-46.424,248.547Z" transform="translate(82.35 -230.582)" fill="#a45cea" opacity="0.808"/>
        </g>
        <g id="Grupo_62080" data-name="Grupo 62080" transform="translate(6.642 7.095)" opacity="0.333">
          <path id="Trazado_122218" data-name="Trazado 122218" d="M-51.2,247.221a14.654,14.654,0,0,1-14.644,14.65,14.659,14.659,0,0,1-14.642-14.65,14.645,14.645,0,0,1,14.642-14.644A14.641,14.641,0,0,1-51.2,247.221Z" transform="translate(80.483 -232.577)" fill="#b67cee" opacity="0.707"/>
        </g>
        <g id="Grupo_62081" data-name="Grupo 62081" transform="translate(9.964 10.642)" opacity="0.5">
          <path id="Trazado_122219" data-name="Trazado 122219" d="M-55.971,245.893a11.333,11.333,0,0,1-11.324,11.329,11.334,11.334,0,0,1-11.32-11.329,11.323,11.323,0,0,1,11.32-11.322A11.322,11.322,0,0,1-55.971,245.893Z" transform="translate(78.615 -234.571)" fill="#c99df3" opacity="0.605"/>
        </g>
        <g id="Grupo_62082" data-name="Grupo 62082" transform="translate(13.284 14.189)" opacity="0.667">
          <path id="Trazado_122220" data-name="Trazado 122220" d="M-60.744,244.566a8.009,8.009,0,0,1-8,8,8.009,8.009,0,0,1-8-8,8,8,0,0,1,8-8A8,8,0,0,1-60.744,244.566Z" transform="translate(76.748 -236.565)" fill="#dbbef7" opacity="0.503"/>
        </g>
        <g id="Grupo_62083" data-name="Grupo 62083" transform="translate(16.605 17.738)" opacity="0.833">
          <path id="Trazado_122221" data-name="Trazado 122221" d="M-65.517,243.24a4.688,4.688,0,0,1-4.684,4.682,4.683,4.683,0,0,1-4.679-4.682,4.682,4.682,0,0,1,4.679-4.68A4.686,4.686,0,0,1-65.517,243.24Z" transform="translate(74.88 -238.56)" fill="#eddefb" opacity="0.402"/>
        </g>
        <path id="Trazado_122222" data-name="Trazado 122222" d="M-70.289,241.912a1.368,1.368,0,0,1-1.366,1.359,1.361,1.361,0,0,1-1.359-1.359,1.361,1.361,0,0,1,1.359-1.357A1.368,1.368,0,0,1-70.289,241.912Z" transform="translate(92.938 -219.269)" fill="#fff" opacity="0.3"/>
      </g>
      <g id="Grupo_62091" data-name="Grupo 62091" transform="translate(43.322 34.129)" opacity="0.8">
        <g id="Grupo_62085" data-name="Grupo 62085" opacity="0">
          <path id="Trazado_122223" data-name="Trazado 122223" d="M-52.405,269.065a21.292,21.292,0,0,1-21.284,21.292,21.3,21.3,0,0,1-21.284-21.292,21.291,21.291,0,0,1,21.284-21.29A21.28,21.28,0,0,1-52.405,269.065Z" transform="translate(94.973 -247.775)" fill="url(#linear-gradient)"/>
        </g>
        <g id="Grupo_62086" data-name="Grupo 62086" transform="translate(3.32 3.549)" opacity="0.167">
          <path id="Trazado_122224" data-name="Trazado 122224" d="M-57.178,267.739a17.971,17.971,0,0,1-17.964,17.969,17.981,17.981,0,0,1-17.964-17.969A17.969,17.969,0,0,1-75.142,249.77,17.96,17.96,0,0,1-57.178,267.739Z" transform="translate(93.106 -249.77)" opacity="0.883" fill="url(#linear-gradient-2)"/>
        </g>
        <g id="Grupo_62087" data-name="Grupo 62087" transform="translate(6.64 7.097)" opacity="0.333">
          <path id="Trazado_122225" data-name="Trazado 122225" d="M-61.953,266.411A14.646,14.646,0,0,1-76.6,281.056a14.656,14.656,0,0,1-14.644-14.645A14.648,14.648,0,0,1-76.6,251.765,14.639,14.639,0,0,1-61.953,266.411Z" transform="translate(91.239 -251.765)" opacity="0.767" fill="url(#linear-gradient-3)"/>
        </g>
        <g id="Grupo_62088" data-name="Grupo 62088" transform="translate(9.96 10.646)" opacity="0.5">
          <path id="Trazado_122226" data-name="Trazado 122226" d="M-66.726,265.085a11.324,11.324,0,0,1-11.322,11.322,11.332,11.332,0,0,1-11.324-11.322A11.327,11.327,0,0,1-78.048,253.76,11.319,11.319,0,0,1-66.726,265.085Z" transform="translate(89.372 -253.76)" opacity="0.65" fill="url(#linear-gradient-4)"/>
        </g>
        <g id="Grupo_62089" data-name="Grupo 62089" transform="translate(13.28 14.194)" opacity="0.667">
          <path id="Trazado_122227" data-name="Trazado 122227" d="M-71.5,263.759a8,8,0,0,1-8,8,8.01,8.01,0,0,1-8-8,8.008,8.008,0,0,1,8-8A8,8,0,0,1-71.5,263.759Z" transform="translate(87.505 -255.755)" opacity="0.533" fill="url(#linear-gradient-5)"/>
        </g>
        <g id="Grupo_62090" data-name="Grupo 62090" transform="translate(16.6 17.741)" opacity="0.833">
          <path id="Trazado_122228" data-name="Trazado 122228" d="M-76.274,262.432a4.68,4.68,0,0,1-4.68,4.676,4.685,4.685,0,0,1-4.684-4.676,4.687,4.687,0,0,1,4.684-4.683A4.682,4.682,0,0,1-76.274,262.432Z" transform="translate(85.638 -257.749)" opacity="0.417" fill="url(#linear-gradient-6)"/>
        </g>
        <path id="Trazado_122229" data-name="Trazado 122229" d="M-81.047,261.107a1.356,1.356,0,0,1-1.36,1.35,1.36,1.36,0,0,1-1.364-1.35,1.366,1.366,0,0,1,1.364-1.362A1.362,1.362,0,0,1-81.047,261.107Z" transform="translate(103.691 -238.454)" fill="#fff" opacity="0.3"/>
      </g>
      <g id="Grupo_62098" data-name="Grupo 62098" transform="translate(15.29 16.564)" opacity="0.8">
        <g id="Grupo_62092" data-name="Grupo 62092" opacity="0">
          <path id="Trazado_122230" data-name="Trazado 122230" d="M-68.166,259.192a21.294,21.294,0,0,1-21.287,21.29,21.3,21.3,0,0,1-21.284-21.29A21.291,21.291,0,0,1-89.453,237.9,21.282,21.282,0,0,1-68.166,259.192Z" transform="translate(110.737 -237.9)" fill="#933de6" opacity="0.903"/>
        </g>
        <g id="Grupo_62093" data-name="Grupo 62093" transform="translate(3.32 3.549)" opacity="0.167">
          <path id="Trazado_122231" data-name="Trazado 122231" d="M-72.939,257.864a17.974,17.974,0,0,1-17.967,17.969,17.982,17.982,0,0,1-17.964-17.969A17.97,17.97,0,0,1-90.906,239.9,17.963,17.963,0,0,1-72.939,257.864Z" transform="translate(108.87 -239.895)" fill="#a55dea" opacity="0.802"/>
        </g>
        <g id="Grupo_62094" data-name="Grupo 62094" transform="translate(6.642 7.099)" opacity="0.333">
          <path id="Trazado_122232" data-name="Trazado 122232" d="M-77.714,256.537A14.648,14.648,0,0,1-92.36,271.18,14.654,14.654,0,0,1-107,256.537,14.645,14.645,0,0,1-92.36,241.891,14.639,14.639,0,0,1-77.714,256.537Z" transform="translate(107.002 -241.891)" fill="#b77eee" opacity="0.702"/>
        </g>
        <g id="Grupo_62095" data-name="Grupo 62095" transform="translate(9.962 10.646)" opacity="0.5">
          <path id="Trazado_122233" data-name="Trazado 122233" d="M-82.489,255.21a11.324,11.324,0,0,1-11.324,11.322,11.331,11.331,0,0,1-11.322-11.322,11.326,11.326,0,0,1,11.322-11.325A11.319,11.319,0,0,1-82.489,255.21Z" transform="translate(105.135 -243.885)" fill="#c99ef3" opacity="0.601"/>
        </g>
        <g id="Grupo_62096" data-name="Grupo 62096" transform="translate(13.282 14.194)" opacity="0.667">
          <path id="Trazado_122234" data-name="Trazado 122234" d="M-87.264,253.883a8,8,0,0,1-8,8,8.01,8.01,0,0,1-8-8,8.006,8.006,0,0,1,8-8A8,8,0,0,1-87.264,253.883Z" transform="translate(103.268 -245.88)" fill="#dbbef7" opacity="0.501"/>
        </g>
        <g id="Grupo_62097" data-name="Grupo 62097" transform="translate(16.604 17.743)" opacity="0.833">
          <path id="Trazado_122235" data-name="Trazado 122235" d="M-92.037,252.557a4.681,4.681,0,0,1-4.682,4.676,4.684,4.684,0,0,1-4.68-4.676,4.684,4.684,0,0,1,4.68-4.682A4.681,4.681,0,0,1-92.037,252.557Z" transform="translate(101.4 -247.875)" fill="#eddffb" opacity="0.4"/>
        </g>
        <path id="Trazado_122236" data-name="Trazado 122236" d="M-96.812,251.229a1.357,1.357,0,0,1-1.36,1.354,1.359,1.359,0,0,1-1.36-1.354,1.361,1.361,0,0,1,1.36-1.359A1.359,1.359,0,0,1-96.812,251.229Z" transform="translate(119.457 -228.578)" fill="#fff" opacity="0.3"/>
      </g>
      <path id="Trazado_122237" data-name="Trazado 122237" d="M-45.908,310.424s-4.784-3.4-5.98-1.811,4.22,5.905,5.216,6.585,8.52,5.423,5.877-2.033S-45.908,310.424-45.908,310.424Z" transform="translate(171.692 -166.599)" fill="#111114"/>
      <path id="Trazado_122238" data-name="Trazado 122238" d="M-33.434,288.185a12.276,12.276,0,0,1-.388,14.586c-3.448,4.623-8.246,25.735-8.246,25.735a6.546,6.546,0,0,1-7.157-2.236l3.1-18.712,5.666-14.113S-38.684,293.482-33.434,288.185Z" transform="translate(173.899 -182.177)" fill="#06121c"/>
      <path id="Trazado_122239" data-name="Trazado 122239" d="M-39.821,314.786s-5.731-1.259-6.211.674,6.192,3.785,7.374,4.022,9.962,1.659,4.615-4.171S-39.821,314.786-39.821,314.786Z" transform="translate(176.364 -163.181)" fill="#111114"/>
      <path id="Trazado_122240" data-name="Trazado 122240" d="M-41.337,291.025A12.275,12.275,0,0,1-35.99,304.6c-1.366,5.607,2.472,26.913,2.472,26.913a6.545,6.545,0,0,1-7.46.742l-4.462-18.435-.3-15.207S-44.1,297.955-41.337,291.025Z" transform="translate(176.608 -179.965)" fill="#091b2d"/>
      <path id="Trazado_122241" data-name="Trazado 122241" d="M-35.619,270.683c2.235-.052,5.409,2.554,3.375,8.945s.926,15.872,2.324,20.057c2.986,8.947-.165,22.521-.165,22.521s-8.575,6.42-17.573,3.328c0,0-.571-21.683-1.161-25.477s-4.883-14.588-1.748-18.965C-48.2,277.8-41.554,270.818-35.619,270.683Z" transform="translate(171.972 -195.807)" fill="#f9f9f9"/>
      <path id="Trazado_122242" data-name="Trazado 122242" d="M-42.3,275.843c1.506.19,3.416,2.529-.041,5.587s-10.584,9.87-12.32,9.506c-1.414-.3-3.359-1.754.7-5.937S-46.021,275.374-42.3,275.843Z" transform="translate(168.321 -191.81)" fill="#f9f9f9"/>
      <g id="Grupo_62100" data-name="Grupo 62100" transform="translate(100.599 81.792)">
        <g id="Grupo_62099" data-name="Grupo 62099">
          <path id="Trazado_122243" data-name="Trazado 122243" d="M-58.475,280.457a18.857,18.857,0,0,0-2.612-1.4,3.532,3.532,0,0,1-1.586-2.177c-.13-.724-.265-2.705.731-2.243s1.362.893,2.025,1.1a4.6,4.6,0,0,1,1.965,1.482c.229.436.964,1.825.964,1.825Z" transform="translate(62.763 -274.571)" fill="#efb185"/>
        </g>
      </g>
      <path id="Trazado_122244" data-name="Trazado 122244" d="M-48.695,288.464s-1.787,2.9-4.243,1.387-8.12-10.923-8.12-10.923,2.426-1.115,2.162-2.471C-58.895,276.457-48.474,285.484-48.695,288.464Z" transform="translate(164.69 -191.31)" fill="#f9f9f9"/>
      <g id="Grupo_62101" data-name="Grupo 62101" transform="translate(122.387 60.769)">
        <path id="Trazado_122245" data-name="Trazado 122245" d="M-41.149,269.526s-.4,3.291.733,5.347c1.019,1.866-6.72,3.57-6.9,1.837a7.424,7.424,0,0,0-.407-6.368C-48.7,268.594-41.149,269.526-41.149,269.526Z" transform="translate(52.613 -257.67)" fill="#efb185"/>
        <path id="Trazado_122246" data-name="Trazado 122246" d="M-48.218,265.028a14.023,14.023,0,0,0-.957,5.55c.244,2.768-.158,3.33.011,4.555a2.99,2.99,0,0,0,.63,1.814c.848.825,2.614,1.129,4.993.258,2.89-1.057,5.922-5.025,4.691-8.584S-43.877,262.127-48.218,265.028Z" transform="translate(51.525 -261.898)" fill="#efb185"/>
        <path id="Trazado_122247" data-name="Trazado 122247" d="M-39.154,272.471c-1.151-3.205-4.028-7.055-4-7.256a9.045,9.045,0,0,0-2.017-1.364,6.528,6.528,0,0,0-3.22,1.174,15.5,15.5,0,0,0-.6,1.923c.685.765,2.084,1.638,2.3,2.3a8.378,8.378,0,0,1-.237,4.888c-.462,1.032,1.383,2.535,1,3.445a.251.251,0,0,0-.014.123,8.227,8.227,0,0,0,2.226-.5A8.36,8.36,0,0,0-39.154,272.471Z" transform="translate(51.698 -261.895)" fill="#e6a376"/>
        <path id="Trazado_122248" data-name="Trazado 122248" d="M-50.33,262.8c-.923-.569,1.856,4.415,4.375,5.651,1.515.736,1.383,3.179,1.312,3.634a10.572,10.572,0,0,0-.338,2.777c.357.507,1.542-1.073,2.109-.962,1.423.269.868,1.61-.437,3.013-1.378,1.489,2.258,2.1,3.95.866.891-.647,1.229-1.046,2.4-3.383,1.707-3.406,2.182-8.465-2.237-9.692C-43.419,263.522-47.8,264.351-50.33,262.8Z" transform="translate(50.511 -262.752)" fill="#131c24"/>
        <path id="Trazado_122249" data-name="Trazado 122249" d="M-39.434,277.757c.891-.647,1.229-1.046,2.4-3.383,1.707-3.406,2.294-7.492-1.737-9.685s-7.01.114-11.637-1.91a13.525,13.525,0,0,0,7.97,5.29c2.12.4,2.34,1.25,2.246,3.554-.08,2.215.485,5.123-3.235,6.364C-42.041,278.986-40.093,278.235-39.434,277.757Z" transform="translate(50.585 -262.733)" fill="#1d2833"/>
        <path id="Trazado_122250" data-name="Trazado 122250" d="M-46.13,273.841l-2.641,1.7s7.965,2.682,10.262-1.169a2.242,2.242,0,0,0-1.437-2.718S-40.219,274.784-46.13,273.841Z" transform="translate(51.865 -255.822)" fill="#77d2ff"/>
      </g>
    </g>
    <rect id="Rectángulo_205303" data-name="Rectángulo 205303" width="185" height="185" transform="translate(262.081 7979)" fill="none"/>
  </g>
</svg>
