<svg xmlns="http://www.w3.org/2000/svg" xmlns:xlink="http://www.w3.org/1999/xlink" width="185" height="185" viewBox="0 0 185 185">
  <defs>
    <linearGradient id="linear-gradient" y1="0.5" x2="1" y2="0.5" gradientUnits="objectBoundingBox">
      <stop offset="0" stop-color="#913dd9"/>
      <stop offset="0.233" stop-color="#9645dd"/>
      <stop offset="0.61" stop-color="#a45de9"/>
      <stop offset="1" stop-color="#b77df9"/>
    </linearGradient>
    <linearGradient id="linear-gradient-2" y1="0.5" x2="1" y2="0.5" gradientUnits="objectBoundingBox">
      <stop offset="0" stop-color="#390154"/>
      <stop offset="0.169" stop-color="#3e0259"/>
      <stop offset="0.394" stop-color="#4e076a"/>
      <stop offset="0.652" stop-color="#690e86"/>
      <stop offset="0.932" stop-color="#8d19ad"/>
      <stop offset="1" stop-color="#981cb8"/>
    </linearGradient>
  </defs>
  <g id="Grupo_840762" data-name="Grupo 840762" transform="translate(-262.081 -7979)">
    <rect id="Rectángulo_205303" data-name="Rectángulo 205303" width="185" height="185" transform="translate(262.081 7979)" fill="none"/>
    <g id="Grupo_840763" data-name="Grupo 840763" transform="translate(277.803 7991.076)">
      <g id="Grupo_62171" data-name="Grupo 62171" transform="translate(0.001 0)" opacity="0.4">
        <path id="Trazado_122325" data-name="Trazado 122325" d="M174.351,202.14c27.669,13.7,72.373,13.7,99.863,0,27.49-13.673,27.347-35.863-.329-49.551s-72.373-13.692-99.861,0-27.339,35.877.327,49.551" transform="translate(-153.501 -142.321)" fill="#fcfdfd" opacity="0"/>
        <path id="Trazado_122326" data-name="Trazado 122326" d="M175.433,209.55c26,13.115,68.017,13.115,93.852,0,25.835-13.1,25.7-34.343-.309-47.454s-68.019-13.111-93.85,0-25.7,34.356.307,47.454" transform="translate(-151.586 -134.168)" fill="#fdfdfd" opacity="0.167"/>
        <path id="Trazado_122327" data-name="Trazado 122327" d="M176.513,216.96c24.335,12.532,63.661,12.532,87.842,0s24.055-32.825-.289-45.357-63.665-12.529-87.84,0-24.05,32.838.287,45.357" transform="translate(-149.671 -126.015)" fill="#fdfefe" opacity="0.333"/>
        <path id="Trazado_122328" data-name="Trazado 122328" d="M177.594,224.37c22.669,11.952,59.305,11.952,81.83,0s22.409-31.307-.269-43.261-59.311-11.948-81.829,0-22.407,31.316.267,43.261" transform="translate(-147.756 -117.863)" fill="#fefefe" opacity="0.5"/>
        <path id="Trazado_122329" data-name="Trazado 122329" d="M178.676,231.78c21,11.369,54.948,11.369,75.819,0s20.764-29.789-.249-41.164-54.957-11.368-75.817,0-20.762,29.8.247,41.164" transform="translate(-145.841 -109.711)" fill="#fefefe" opacity="0.667"/>
        <path id="Trazado_122330" data-name="Trazado 122330" d="M179.758,239.19c19.334,10.787,50.59,10.787,69.807,0s19.117-28.27-.229-39.066-50.6-10.789-69.807,0-19.117,28.275.229,39.066" transform="translate(-143.926 -101.558)" fill="#fff" opacity="0.833"/>
        <path id="Trazado_122331" data-name="Trazado 122331" d="M180.84,246.6c17.667,10.2,46.234,10.2,63.8,0s17.472-26.752-.209-36.969-46.247-10.208-63.8,0-17.472,26.755.209,36.969" transform="translate(-142.011 -93.406)" fill="#fff"/>
      </g>
      <path id="Trazado_122332" data-name="Trazado 122332" d="M252.455,178.83c-.018.1-.027.195-.045.288a15.323,15.323,0,0,1-.5,1.987c-.033.093-.062.186-.095.284a16.945,16.945,0,0,1-.824,1.951c-.049.1-.1.2-.153.293a18.309,18.309,0,0,1-1.163,1.933c-.064.087-.129.171-.195.262a20.684,20.684,0,0,1-1.375,1.718c-.087.1-.166.2-.258.3-.531.584-1.121,1.154-1.741,1.714-.4.355-.835.7-1.268,1.046-.384.308-.753.619-1.164.919-.455.333-.961.652-1.454.97-.528.344-1.032.7-1.6,1.028-.9.526-1.841,1-2.8,1.471-.246.118-.491.233-.739.348q-1.3.6-2.658,1.136c-.118.046-.235.1-.353.146-.966.366-1.961.7-2.969,1.016-.7.222-1.414.415-2.129.61-.542.146-1.077.306-1.627.439-.73.175-1.474.324-2.216.471-.586.122-1.166.257-1.759.36-.2.035-.4.062-.6.1-.981.162-1.974.3-2.969.419-.26.033-.52.066-.782.095-.571.062-1.15.095-1.727.144-.908.076-1.816.142-2.733.182-.611.029-1.223.044-1.838.055-.742.013-1.485.018-2.229.007-.639-.007-1.274-.025-1.909-.055-.7-.022-1.386-.062-2.078-.109-.646-.045-1.288-.1-1.929-.158-.686-.066-1.37-.146-2.051-.233-.622-.075-1.241-.166-1.859-.26-.724-.113-1.445-.242-2.16-.375-.591-.115-1.174-.229-1.754-.357-.857-.187-1.7-.4-2.54-.621-.553-.146-1.112-.284-1.654-.446-.289-.087-.577-.178-.864-.266-.859-.275-1.71-.561-2.542-.872-.226-.084-.457-.162-.679-.246-.777-.3-1.53-.635-2.276-.968-.331-.147-.673-.278-1-.435-1.046-.5-2.063-1.019-3.04-1.585-8.144-4.706-12.22-10.887-12.2-17.055q-.1,36.057-.2,72.115c-.018,6.168,4.052,12.35,12.2,17.059.972.559,1.985,1.079,3.024,1.574.377.18.773.335,1.161.508.591.26,1.17.531,1.778.773.106.042.215.076.322.118.253.1.508.184.764.28q1.212.445,2.462.841c.3.091.593.189.893.275.193.058.38.124.577.18.34.1.7.166,1.052.258.859.229,1.714.442,2.593.637.224.047.438.113.662.162.337.069.679.109,1.013.177.731.137,1.466.269,2.211.382.293.047.577.111.873.153.318.046.648.069.966.107q1.053.136,2.111.235c.313.031.622.08.941.107.3.024.595.027.892.049q1.073.071,2.141.113c.348.015.693.049,1.037.056.286.005.564-.007.846-.005.764.011,1.528.005,2.294-.009.368-.007.73.007,1.1-.007.213-.005.428-.035.644-.042.961-.04,1.918-.109,2.871-.193.355-.027.715-.035,1.068-.069.173-.016.342-.046.515-.06.3-.033.6-.075.9-.109q1.411-.169,2.8-.4c.246-.04.5-.075.744-.116.1-.016.211-.031.315-.051.431-.076.848-.187,1.277-.273.788-.16,1.576-.315,2.351-.5.542-.131,1.066-.288,1.6-.431.72-.2,1.441-.391,2.147-.613.149-.047.3-.082.449-.129q1.28-.415,2.514-.888c.126-.047.242-.1.368-.149.9-.353,1.772-.728,2.633-1.123.255-.122.511-.238.762-.362.953-.46,1.892-.945,2.789-1.461.167-.1.338-.2.5-.3.384-.229.708-.479,1.072-.713.5-.329,1.015-.653,1.479-.992.406-.293.768-.6,1.144-.9.438-.353.886-.7,1.286-1.065.078-.069.176-.135.251-.207q.794-.732,1.477-1.491c.106-.113.2-.229.3-.34.269-.309.544-.617.79-.928.2-.244.366-.5.546-.746.069-.1.146-.189.211-.286.329-.473.637-.955.908-1.434.091-.158.164-.322.247-.48.053-.106.111-.207.162-.315a16.7,16.7,0,0,0,.691-1.554c.047-.126.084-.253.124-.377.035-.1.069-.206.1-.3a14.655,14.655,0,0,0,.446-1.649c.022-.107.031-.218.051-.324s.027-.2.046-.3a13.887,13.887,0,0,0,.171-1.749c.006-.122.007-.242.007-.364q.1-36.054.206-72.114A14.555,14.555,0,0,1,252.455,178.83Z" transform="translate(-140.177 -114.314)" fill="#9ff8ff"/>
      <path id="Trazado_122333" data-name="Trazado 122333" d="M252.631,234.592l.045.005-.089-40.678L169.9,193.6l-.1,37.819h0c-.708,8.774,2.695,15.007,12.405,20.617,16.2,9.355,42.37,9.349,58.458-.007C248.928,247.224,252.893,240.889,252.631,234.592Z" transform="translate(-140.217 -100.274)" fill="url(#linear-gradient)"/>
      <g id="Grupo_62172" data-name="Grupo 62172" transform="translate(29.669 70.18)">
        <path id="Trazado_122334" data-name="Trazado 122334" d="M240.393,187.9c16.2,9.356,16.279,24.513.189,33.864s-42.262,9.36-58.458.007c-9.277-5.358-13.389-11.9-12.081-18.886.979-5.209,5.02-10.993,11.892-14.987C198.027,178.54,224.2,178.547,240.393,187.9Z" transform="translate(-169.807 -180.882)" fill="#0467d8"/>
      </g>
      <path id="Trazado_122335" data-name="Trazado 122335" d="M169.816,193.6l0,1.192c0-.395.024-.794.066-1.192Z" transform="translate(-140.131 -100.274)" fill="#c196ff"/>
      <g id="Grupo_62173" data-name="Grupo 62173" transform="translate(29.748 70.18)" opacity="0">
        <path id="Trazado_122336" data-name="Trazado 122336" d="M252.475,205.936c.479-6.488-3.533-13.078-12.118-18.04-16.2-9.349-42.366-9.356-58.458,0-6.872,3.995-10.913,9.779-11.892,14.987-.073.384-.12.764-.158,1.145l82.622.32Z" transform="translate(-169.85 -180.882)" fill="url(#linear-gradient-2)"/>
      </g>
      <path id="Trazado_122337" data-name="Trazado 122337" d="M169.811,194.7l.005-.444C169.811,194.4,169.811,194.551,169.811,194.7Z" transform="translate(-140.134 -99.737)" fill="#c196ff"/>
      <g id="Grupo_62174" data-name="Grupo 62174" transform="translate(29.787 38.332)">
        <path id="Trazado_122338" data-name="Trazado 122338" d="M240.34,170.4c16.2,9.356,16.279,24.513.189,33.864s-42.262,9.36-58.458.007-16.279-24.522-.189-33.875S224.143,161.048,240.34,170.4Z" transform="translate(-169.872 -163.382)" fill="#d2feff"/>
      </g>
      <g id="Grupo_62175" data-name="Grupo 62175" transform="translate(34.266 40.119)">
        <path id="Trazado_122339" data-name="Trazado 122339" d="M234.988,170.606c14.4,8.314,14.477,21.792.171,30.11s-37.577,8.321-51.977,0-14.476-21.8-.169-30.121S220.589,162.289,234.988,170.606Z" transform="translate(-172.333 -164.364)" fill="#81e7ea"/>
      </g>
      <g id="Grupo_62176" data-name="Grupo 62176" transform="translate(44.233 70.2)">
        <path id="Trazado_122340" data-name="Trazado 122340" d="M177.811,186.606c.3.184.568.38.882.561,14.4,8.317,37.67,8.31,51.977,0,.284-.166.52-.342.8-.511C216.012,178.991,193.205,178.97,177.811,186.606Z" transform="translate(-177.811 -180.893)" fill="#0467d8"/>
      </g>
      <path id="Trazado_122341" data-name="Trazado 122341" d="M251.836,158a1.8,1.8,0,0,0-3.5-.621L185.367,268.393l3.079,1.744,63.01-111.076A1.78,1.78,0,0,0,251.836,158Z" transform="translate(-127.386 -130.948)" fill="#29b2dc"/>
      <path id="Trazado_122342" data-name="Trazado 122342" d="M240.662,210.6c-16.088,9.355-42.263,9.36-58.458.007-8.035-4.641-12.189-10.166-12.31-16.1l-.095,36.183c-.708,8.774,2.695,15.007,12.405,20.617,16.2,9.355,42.37,9.349,58.458-.007,8.266-4.8,12.23-11.138,11.968-17.435l.045.005-.086-39.089C252.163,200.526,248.222,206.2,240.662,210.6Z" transform="translate(-140.217 -99.537)" fill="#298bed"/>
      <path id="Trazado_122343" data-name="Trazado 122343" d="M182.051,193.87c16.2,9.353,42.37,9.347,58.458-.007,8.428-4.9,12.374-11.384,11.938-17.8h-4.609c.031,5.451-3.528,10.9-10.682,15.057-14.306,8.314-37.577,8.321-51.977,0-7.2-4.157-10.82-9.608-10.849-15.06h-4.41C169.557,182.482,173.574,188.972,182.051,193.87Z" transform="translate(-140.064 -114.651)" fill="#d2feff"/>
      <g id="Grupo_62183" data-name="Grupo 62183" transform="translate(61.821 18.899)" opacity="0.8">
        <g id="Grupo_62177" data-name="Grupo 62177" opacity="0">
          <path id="Trazado_122344" data-name="Trazado 122344" d="M258.581,188.262A35.551,35.551,0,1,1,223.028,152.7,35.572,35.572,0,0,1,258.581,188.262Z" transform="translate(-187.478 -152.705)" fill="#a660eb" opacity="0.796"/>
        </g>
        <g id="Grupo_62178" data-name="Grupo 62178" transform="translate(5.546 5.926)" opacity="0.167">
          <path id="Trazado_122345" data-name="Trazado 122345" d="M250.535,185.971a30,30,0,1,1-30-30.01A30.022,30.022,0,0,1,250.535,185.971Z" transform="translate(-190.526 -155.961)" fill="#b57bee" opacity="0.713"/>
        </g>
        <g id="Grupo_62179" data-name="Grupo 62179" transform="translate(11.091 11.852)" opacity="0.333">
          <path id="Trazado_122346" data-name="Trazado 122346" d="M242.492,183.681a24.459,24.459,0,1,1-24.459-24.464A24.47,24.47,0,0,1,242.492,183.681Z" transform="translate(-193.574 -159.217)" fill="#c495f2" opacity="0.63"/>
        </g>
        <g id="Grupo_62180" data-name="Grupo 62180" transform="translate(16.637 17.779)" opacity="0.5">
          <path id="Trazado_122347" data-name="Trazado 122347" d="M234.449,181.389a18.913,18.913,0,1,1-18.913-18.915A18.923,18.923,0,0,1,234.449,181.389Z" transform="translate(-196.622 -162.474)" fill="#d3b0f5" opacity="0.548"/>
        </g>
        <g id="Grupo_62181" data-name="Grupo 62181" transform="translate(22.183 23.701)" opacity="0.667">
          <ellipse id="Elipse_4410" data-name="Elipse 4410" cx="13.367" cy="13.371" rx="13.367" ry="13.371" fill="#e1caf8" opacity="0.465"/>
        </g>
        <g id="Grupo_62182" data-name="Grupo 62182" transform="translate(27.729 29.631)" opacity="0.833">
          <path id="Trazado_122348" data-name="Trazado 122348" d="M218.36,176.806a7.821,7.821,0,1,1-7.82-7.82A7.824,7.824,0,0,1,218.36,176.806Z" transform="translate(-202.718 -168.986)" fill="#f0e5fc" opacity="0.383"/>
        </g>
        <path id="Trazado_122349" data-name="Trazado 122349" d="M210.316,174.515a2.275,2.275,0,1,1-2.274-2.273A2.275,2.275,0,0,1,210.316,174.515Z" transform="translate(-172.492 -136.685)" fill="#fff" opacity="0.3"/>
      </g>
      <g id="Grupo_62184" data-name="Grupo 62184" transform="translate(38.505 91.457)">
        <path id="Trazado_122350" data-name="Trazado 122350" d="M176.7,201.957c-.63,5.635,2.262,10.576,6.45,11.047s8.1-3.718,8.724-9.353-2.252-10.572-6.448-11.044S177.324,196.323,176.7,201.957Z" transform="translate(-173.066 -192.572)" fill="#fff" opacity="0.5"/>
        <path id="Trazado_122351" data-name="Trazado 122351" d="M174.71,210.189c.322,2.639,2.243,4.579,4.279,4.33s3.433-2.6,3.1-5.236-2.236-4.581-4.281-4.33S174.385,207.546,174.71,210.189Z" transform="translate(-174.663 -182.439)" fill="#fff" opacity="0.5"/>
      </g>
      <g id="Grupo_62191" data-name="Grupo 62191" transform="translate(18.644 27.6)">
        <g id="Grupo_62185" data-name="Grupo 62185" opacity="0">
          <path id="Trazado_122352" data-name="Trazado 122352" d="M215.209,183.219a25.731,25.731,0,1,1-25.736-25.733A25.743,25.743,0,0,1,215.209,183.219Z" transform="translate(-163.747 -157.486)" fill="#a660eb" opacity="0.796"/>
        </g>
        <g id="Grupo_62186" data-name="Grupo 62186" transform="translate(4.016 4.29)" opacity="0.167">
          <path id="Trazado_122353" data-name="Trazado 122353" d="M209.386,181.561a21.716,21.716,0,1,1-21.723-21.718A21.726,21.726,0,0,1,209.386,181.561Z" transform="translate(-165.954 -159.843)" fill="#b57bee" opacity="0.713"/>
        </g>
        <g id="Grupo_62187" data-name="Grupo 62187" transform="translate(8.029 8.578)" opacity="0.333">
          <path id="Trazado_122354" data-name="Trazado 122354" d="M203.563,179.9a17.7,17.7,0,1,1-17.707-17.7A17.711,17.711,0,0,1,203.563,179.9Z" transform="translate(-168.16 -162.199)" fill="#c495f2" opacity="0.63"/>
        </g>
        <g id="Grupo_62188" data-name="Grupo 62188" transform="translate(12.043 12.867)" opacity="0.5">
          <path id="Trazado_122355" data-name="Trazado 122355" d="M197.74,178.244a13.687,13.687,0,1,1-13.691-13.688A13.694,13.694,0,0,1,197.74,178.244Z" transform="translate(-170.366 -164.556)" fill="#d3b0f5" opacity="0.548"/>
        </g>
        <g id="Grupo_62189" data-name="Grupo 62189" transform="translate(16.059 17.155)" opacity="0.667">
          <path id="Trazado_122356" data-name="Trazado 122356" d="M191.918,176.587a9.672,9.672,0,1,1-9.678-9.675A9.675,9.675,0,0,1,191.918,176.587Z" transform="translate(-172.573 -166.912)" fill="#e1caf8" opacity="0.465"/>
        </g>
        <g id="Grupo_62190" data-name="Grupo 62190" transform="translate(20.072 21.445)" opacity="0.833">
          <path id="Trazado_122357" data-name="Trazado 122357" d="M186.094,174.927a5.658,5.658,0,1,1-5.662-5.658A5.66,5.66,0,0,1,186.094,174.927Z" transform="translate(-174.779 -169.269)" fill="#f0e5fc" opacity="0.383"/>
        </g>
        <path id="Trazado_122358" data-name="Trazado 122358" d="M180.271,173.27a1.643,1.643,0,1,1-1.647-1.645A1.643,1.643,0,0,1,180.271,173.27Z" transform="translate(-152.899 -145.892)" fill="#fff" opacity="0.3"/>
      </g>
      <g id="Grupo_62193" data-name="Grupo 62193" transform="translate(120.035 26.545)">
        <g id="Grupo_62192" data-name="Grupo 62192">
          <path id="Trazado_122359" data-name="Trazado 122359" d="M226.553,161.784a22.486,22.486,0,0,1-1.75-3.03c-.178-.668-1.765-1.651-2.624-1.784-.859-.116-3.195-.2-2.615.952s1.106,1.569,1.376,2.348a5.465,5.465,0,0,0,1.819,2.255c.517.253,2.189,1.059,2.189,1.059Z" transform="translate(-219.473 -156.906)" fill="#efb185"/>
        </g>
      </g>
      <path id="Trazado_122360" data-name="Trazado 122360" d="M245.887,172.737l-10.225-3.776-10.931-9.511-2.975,2.364s10.513,12.953,12.736,14.325,8.479,3.028,8.479,3.028Z" transform="translate(-97.567 -128.276)" fill="#ccdcf8"/>
      <path id="Trazado_122361" data-name="Trazado 122361" d="M234.414,213.315s1.75,2.8-.68,3.476-1.707-.854-6.989.486-4.663-1.645-4.554-2.259,2.429-1.452,3.579-1.758,5.775-1.367,5.775-1.367l2.82.519Z" transform="translate(-97.276 -85.273)" fill="#111114"/>
      <path id="Trazado_122362" data-name="Trazado 122362" d="M231.356,208.409s-2.021.3-1.526,1.469,2.817,2.943,3.115,3.687,2.18,3.012,2.831,3.129c1.092.189,2.209.126,2.029-2.885S234.056,208.276,231.356,208.409Z" transform="translate(-91.015 -88.134)" fill="#111114"/>
      <path id="Trazado_122363" data-name="Trazado 122363" d="M239.308,180.177s3.936,5.84,1.377,15.683c0,0-4.4,14.866-3.617,17.785s3.47,9.941,1.7,15.95a70.589,70.589,0,0,0-1.781,7.087c-.135,1.58-2.751,1.729-3.135-.044-.824-3.762-.2-9.36-.781-12.146-1.861-9.111-2.824-13.863-2.232-20.065s-.127-20.238-.127-20.238S237.738,184.916,239.308,180.177Z" transform="translate(-90.262 -111.28)" fill="#efb185"/>
      <path id="Trazado_122364" data-name="Trazado 122364" d="M238.112,182.122s3.373,6.179-.082,15.745c0,0-5.779,14.392-5.255,17.373.5,2.977,2.525,10.226.207,16.039,0,0-2.247,5.353-2.42,6.892-.277,2.446-2.749,2.754-3,.955-.539-3.656.546-10.627.231-13.457-1-9.245-1.53-14.067-.36-20.182s1.756-20.169,1.756-20.169S236.1,186.7,238.112,182.122Z" transform="translate(-93.463 -109.685)" fill="#efb185"/>
      <path id="Trazado_122365" data-name="Trazado 122365" d="M229.741,198.89h0s.189-8.077-1.577-10.239-4.529-7.091-2.171-9.848,3.748-4.135,3.748-4.135,11.019-10.831,14.754-7.678c0,0,3.351,2.559,1.97,11.415s-4.05,10.234-.788,14.955c2.533,3.66,3.581,4.672,1.9,18.427-1.539,12.66-.784,14.229-.784,14.229s-10.24,5.647-19.688,1.309c0,0-1.96-3,0-14.307C228.875,202.833,229.741,198.89,229.741,198.89Z" transform="translate(-94.843 -122.565)" fill="#f9f9f9"/>
      <path id="Trazado_122366" data-name="Trazado 122366" d="M227.035,212.332s1.41,3.034,3.865.675c0,0,.386,3.238-1.929,2.815S225.722,213,227.035,212.332Z" transform="translate(-93.733 -84.914)" fill="#111114"/>
      <path id="Trazado_122367" data-name="Trazado 122367" d="M228.939,167.771l.539,5.405s4.631,2.528,7.907-1.469l-.54-5.427A18.852,18.852,0,0,1,228.939,167.771Z" transform="translate(-91.681 -122.675)" fill="#efb185"/>
      <g id="Grupo_62195" data-name="Grupo 62195" transform="translate(110.766 48.219)">
        <g id="Grupo_62194" data-name="Grupo 62194">
          <path id="Trazado_122368" data-name="Trazado 122368" d="M218.189,175.223a18.953,18.953,0,0,0-2.476-1.734,3.628,3.628,0,0,1-1.328-2.393c-.038-.75.067-2.761,1.01-2.175s1.266,1.068,1.918,1.359a4.677,4.677,0,0,1,1.8,1.734c.178.466.744,1.964.744,1.964Z" transform="translate(-214.378 -168.815)" fill="#efb185"/>
        </g>
      </g>
      <g id="Grupo_62196" data-name="Grupo 62196" transform="translate(114.186 52.556)">
        <path id="Trazado_122369" data-name="Trazado 122369" d="M241.035,175.111c-.353-1.219-1.81-2.834-4.907-1.454s-11.677,5.323-11.677,5.323-5.779-7.067-6.576-7.782a1.837,1.837,0,0,1-1.617,2.093s3.432,9.566,6.377,10.314S242.5,180.139,241.035,175.111Z" transform="translate(-216.258 -171.198)" fill="#f9f9f9"/>
      </g>
      <path id="Trazado_122370" data-name="Trazado 122370" d="M233.949,158.5s-4.116-.04-5.668,3.018-2.88,7.591-.946,10.146c2.069,2.735.011,13.912-.966,14.795s13.726,2.18,18.744-5.314C245.113,181.147,246.378,155.744,233.949,158.5Z" transform="translate(-93.825 -129.223)" fill="#131c24"/>
    </g>
  </g>
</svg>
