<svg xmlns="http://www.w3.org/2000/svg" width="185" height="185" viewBox="0 0 185 185">
  <g id="Grupo_840760" data-name="Grupo 840760" transform="translate(-262.081 -7979)">
    <rect id="Rectángulo_205303" data-name="Rectángulo 205303" width="185" height="185" transform="translate(262.081 7979)" fill="none"/>
    <g id="Grupo_840761" data-name="Grupo 840761" transform="translate(270.189 8000.287)">
      <g id="Grupo_62104" data-name="Grupo 62104" transform="translate(4.999 4.987)" opacity="0.4">
        <path id="Trazado_122258" data-name="Trazado 122258" d="M362.952,162.182c14.73,7.295,38.537,7.295,53.175,0s14.561-19.1-.176-26.386-38.534-7.29-53.175,0-14.558,19.1.176,26.386" transform="translate(-351.848 -130.328)" fill="#fcfdfd" opacity="0"/>
        <path id="Trazado_122259" data-name="Trazado 122259" d="M363.88,167.63c13.843,6.984,36.218,6.984,49.974,0s13.685-18.288-.164-25.27-36.217-6.98-49.976,0-13.681,18.3.166,25.27" transform="translate(-351.181 -127.489)" fill="#fdfdfd" opacity="0.167"/>
        <path id="Trazado_122260" data-name="Trazado 122260" d="M364.809,173.077c12.955,6.674,33.9,6.674,46.774,0s12.809-17.479-.155-24.153-33.9-6.672-46.774,0-12.806,17.485.154,24.153" transform="translate(-350.514 -124.649)" fill="#fdfefe" opacity="0.333"/>
        <path id="Trazado_122261" data-name="Trazado 122261" d="M365.737,178.525c12.068,6.363,31.579,6.363,43.574,0s11.932-16.671-.145-23.035-31.58-6.363-43.573,0-11.93,16.675.143,23.035" transform="translate(-349.848 -121.81)" fill="#fefefe" opacity="0.5"/>
        <path id="Trazado_122262" data-name="Trazado 122262" d="M366.665,183.971c11.182,6.056,29.26,6.056,40.374,0s11.056-15.861-.133-21.918-29.261-6.054-40.371,0-11.056,15.865.13,21.918" transform="translate(-349.181 -118.97)" fill="#fefefe" opacity="0.667"/>
        <path id="Trazado_122263" data-name="Trazado 122263" d="M367.594,189.42c10.293,5.744,26.938,5.744,37.172,0s10.181-15.054-.122-20.8-26.945-5.745-37.171,0-10.18,15.056.12,20.8" transform="translate(-348.514 -116.131)" fill="#fff" opacity="0.833"/>
        <path id="Trazado_122264" data-name="Trazado 122264" d="M368.522,194.866c9.407,5.435,24.621,5.435,33.971,0s9.305-14.245-.111-19.685-24.626-5.436-33.97,0-9.3,14.246.109,19.685" transform="translate(-347.848 -113.291)" fill="#fff"/>
      </g>
      <g id="Grupo_62111" data-name="Grupo 62111" transform="translate(71.945 92.186)">
        <g id="Grupo_62110" data-name="Grupo 62110" style="isolation: isolate">
          <g id="Grupo_62105" data-name="Grupo 62105" transform="translate(4.688 2.472)">
            <path id="Trazado_122265" data-name="Trazado 122265" d="M419.822,199.748l10.621,6.172,10.689-6.172-10.619-6.174Z" transform="translate(-419.822 -193.574)" fill="#b6d119"/>
          </g>
          <g id="Grupo_62106" data-name="Grupo 62106" transform="translate(17.434 9.881)">
            <path id="Trazado_122266" data-name="Trazado 122266" d="M428.815,204.974l10.621,6.174,10.69-6.174L439.5,198.8Z" transform="translate(-428.815 -198.8)" fill="#b6d119"/>
          </g>
          <g id="Grupo_62107" data-name="Grupo 62107" transform="translate(31.029 17.784)">
            <path id="Trazado_122267" data-name="Trazado 122267" d="M438.406,210.546l10.621,6.174,10.69-6.174L449.1,204.374Z" transform="translate(-438.406 -204.374)" fill="#b6d119"/>
          </g>
          <g id="Grupo_62108" data-name="Grupo 62108" transform="translate(43.767 25.187)">
            <path id="Trazado_122268" data-name="Trazado 122268" d="M447.393,215.77l10.621,6.174,10.69-6.174-10.62-6.174Z" transform="translate(-447.393 -209.596)" fill="#b6d119"/>
          </g>
          <g id="Grupo_62109" data-name="Grupo 62109">
            <path id="Trazado_122269" data-name="Trazado 122269" d="M487.135,223.933l-15.393,8.89-55.227-32.1,15.393-8.89Zm-28.971-1.972,10.69-6.175-10.621-6.172-10.69,6.172,10.621,6.175Zm-13.595-7.9,10.69-6.175-10.622-6.173-10.69,6.173,10.622,6.175Zm-12.747-7.411,10.689-6.172L431.893,194.3l-10.69,6.175,10.621,6.172Zm39.08,22.718,10.69-6.175-10.621-6.173-10.69,6.173,10.621,6.175Z" transform="translate(-416.515 -191.831)" fill="#f3f4f4"/>
          </g>
        </g>
      </g>
      <g id="Grupo_62118" data-name="Grupo 62118" transform="translate(91.665 83.432)">
        <g id="Grupo_62117" data-name="Grupo 62117" style="isolation: isolate">
          <g id="Grupo_62112" data-name="Grupo 62112" transform="translate(4.659 2.465)">
            <path id="Trazado_122270" data-name="Trazado 122270" d="M433.714,194.328l11.039,5.387,10.215-6.933L443.926,187.4Z" transform="translate(-433.714 -187.395)" fill="#d51f1c"/>
          </g>
          <g id="Grupo_62113" data-name="Grupo 62113" transform="translate(17.908 8.93)">
            <path id="Trazado_122271" data-name="Trazado 122271" d="M443.061,198.889l11.04,5.386,10.213-6.934-11.039-5.386Z" transform="translate(-443.061 -191.955)" fill="#d51f1c"/>
          </g>
          <g id="Grupo_62114" data-name="Grupo 62114" transform="translate(32.041 15.825)">
            <path id="Trazado_122272" data-name="Trazado 122272" d="M453.032,203.751l11.04,5.387,10.213-6.934-11.04-5.386Z" transform="translate(-453.032 -196.818)" fill="#d51f1c"/>
          </g>
          <g id="Grupo_62115" data-name="Grupo 62115" transform="translate(45.281 22.285)">
            <path id="Trazado_122273" data-name="Trazado 122273" d="M462.373,208.309l11.042,5.386,10.214-6.934-11.039-5.386Z" transform="translate(-462.373 -201.375)" fill="#d51f1c"/>
          </g>
          <g id="Grupo_62116" data-name="Grupo 62116">
            <path id="Trazado_122274" data-name="Trazado 122274" d="M502.546,213.667l-14.707,9.981L430.427,195.64l14.707-9.983Zm-29.037.135,10.213-6.935-11.04-5.386-10.212,6.933,11.04,5.388Zm-14.132-6.895,10.212-6.935-11.039-5.386-10.215,6.935,11.042,5.386Zm-13.252-6.465,10.215-6.933L445.3,188.121l-10.213,6.933,11.039,5.388Zm40.625,19.821,10.214-6.935-11.039-5.386-10.217,6.935,11.042,5.386Z" transform="translate(-430.427 -185.657)" fill="#f3f4f4"/>
          </g>
        </g>
      </g>
      <path id="Trazado_122276" data-name="Trazado 122276" d="M449.938,235.626l6.865-65.4-66.3.306,6.856,66.957h.17c.634,3.342,3.158,6.591,7.593,9.152,10.306,5.951,26.961,5.949,37.192,0,4.12-2.392,6.544-5.389,7.334-8.5h.027l.02-.19A9.107,9.107,0,0,0,449.938,235.626Z" transform="translate(-334.704 -108.673)" fill="#d2feff"/>
      <g id="Grupo_62120" data-name="Grupo 62120" transform="translate(66.439 111.993)">
        <path id="Trazado_122277" data-name="Trazado 122277" d="M436.39,209.622c8.821,5.1,8.869,13.35.1,18.449s-23.015,5.093-31.837,0-8.865-13.356-.106-18.449S427.566,204.528,436.39,209.622Z" transform="translate(-398.009 -205.801)" fill="#298bed"/>
      </g>
      <path id="Trazado_122278" data-name="Trazado 122278" d="M444.521,233.507l-44.783-.558-5.868-57.318,56.755-.26Z" transform="translate(-333.298 -106.522)" fill="#298bed"/>
      <g id="Grupo_62121" data-name="Grupo 62121" transform="translate(60.571 52.17)">
        <path id="Trazado_122279" data-name="Trazado 122279" d="M442.254,168.422c11.121,6.424,11.179,16.835.13,23.259s-29.018,6.423-40.137,0-11.175-16.839-.133-23.257S431.133,162,442.254,168.422Z" transform="translate(-393.869 -163.607)" fill="#298bed"/>
      </g>
      <g id="Grupo_62122" data-name="Grupo 62122" transform="translate(69.356 82.963)">
        <path id="Trazado_122280" data-name="Trazado 122280" d="M401.656,191.091c-.387,3.461,1.391,6.5,3.962,6.784s4.977-2.286,5.357-5.744-1.383-6.494-3.959-6.784S402.04,187.63,401.656,191.091Z" transform="translate(-399.426 -185.326)" fill="#fff" opacity="0.5"/>
        <path id="Trazado_122281" data-name="Trazado 122281" d="M400.1,198.3c.2,1.621,1.376,2.81,2.627,2.658s2.109-1.592,1.906-3.216-1.375-2.814-2.629-2.658S399.894,196.675,400.1,198.3Z" transform="translate(-400.067 -181.254)" fill="#fff" opacity="0.5"/>
      </g>
      <path id="Trazado_122282" data-name="Trazado 122282" d="M395.538,237.024c.634,3.342,3.158,6.591,7.593,9.152,10.306,5.951,26.961,5.949,37.192,0,4.121-2.392,6.544-5.389,7.334-8.5h.027l.02-.19a9.1,9.1,0,0,0,.245-2.324l6.734-63.836-4.634,2.183S447.684,222.7,423.807,235.2c-15.166,7.94-24.1,1.969-28.541.824l.1,1Z" transform="translate(-332.715 -108.212)" opacity="0.1"/>
      <g id="Grupo_62123" data-name="Grupo 62123" transform="translate(55.026 38.257)">
        <path id="Trazado_122283" data-name="Trazado 122283" d="M447.794,159.552c13.288,7.676,13.358,20.122.155,27.8s-34.689,7.675-47.977,0-13.362-20.12-.156-27.8S434.5,151.875,447.794,159.552Z" transform="translate(-389.957 -153.794)" fill="#89d2f5"/>
      </g>
      <g id="Grupo_62124" data-name="Grupo 62124" transform="translate(60.671 41.345)">
        <path id="Trazado_122284" data-name="Trazado 122284" d="M442.692,160.825c11.2,6.469,11.262,16.961.133,23.431s-29.24,6.471-40.443,0-11.266-16.96-.132-23.431S431.492,154.355,442.692,160.825Z" transform="translate(-393.94 -155.973)" fill="#298bed"/>
      </g>
      <path id="Trazado_122285" data-name="Trazado 122285" d="M402,180.7c11.2,6.471,29.31,6.472,40.443,0a20.283,20.283,0,0,0,5.5-4.509,18.126,18.126,0,0,0-7.152-6.849c-11.2-6.47-29.312-6.47-40.442,0a20.264,20.264,0,0,0-5.5,4.511A18.107,18.107,0,0,0,402,180.7Z" transform="translate(-332.888 -111.07)" fill="#0467d8"/>
      <path id="Trazado_122286" data-name="Trazado 122286" d="M417.87,181.554s4.628,9.239,2.533,14.794-4.489,4.709-4.489,9.627.937,5.127,2.713,10.693-1.057,9.691-5.074,12.355-10.245,9.677-10.245,9.677,12.55,6.9,26.546,1.5c0,0-8.563-6.275-7.824-11.172s2.863-6.895,1.209-10.622-4-6.475.361-12.426,8.086-12.633-1.571-24.534Z" transform="translate(-329.359 -103.986)" fill="#b6d119"/>
      <path id="Trazado_122287" data-name="Trazado 122287" d="M426.308,175.041c0,2.264-4.109,4.1-9.179,4.1s-12.843-1.979-12.843-4.244,1.661-5.29,6.733-5.29S426.308,172.775,426.308,175.041Z" transform="translate(-328.951 -108.93)" fill="#b6d119"/>
      <path id="Trazado_122288" data-name="Trazado 122288" d="M404.328,173.874l12.137,8.141,4.727.043s4.56-6.4,5.1-8.372S404.328,173.874,404.328,173.874Z" transform="translate(-328.933 -107.574)" fill="#b6d119"/>
      <g id="Grupo_62169" data-name="Grupo 62169" transform="translate(27.539 0)">
        <g id="Grupo_62125" data-name="Grupo 62125" transform="translate(0 71.759)" opacity="0.1">
          <path id="Trazado_122289" data-name="Trazado 122289" d="M372.1,179.84c-5.769,3.22-5.8,8.44-.067,11.66s15.06,3.22,20.832,0,5.8-8.442.069-11.662S377.869,176.619,372.1,179.84Z" transform="translate(-367.75 -177.424)"/>
        </g>
        <path id="Trazado_122290" data-name="Trazado 122290" d="M378.972,140.783c-.921.926-1.077,3.5,2.72,3.719s11.867,1.017,12.859-.146c.805-.944,1.409-2.951-3.33-3.607S381.248,138.5,378.972,140.783Z" transform="translate(-363.295 -121.47)" fill="#ccdcf8"/>
        <g id="Grupo_62127" data-name="Grupo 62127" transform="translate(13.799 73.015)">
          <g id="Grupo_62126" data-name="Grupo 62126">
            <path id="Trazado_122291" data-name="Trazado 122291" d="M377.82,178.994s-.753,1.76,0,2.216.858.95,2.065.852,1.032.3,1.446.751,4.689,2.318,5.494,1.409-1.461-1.968-2.264-2.493-2.717-2.636-2.768-3.243S377.82,178.994,377.82,178.994Z" transform="translate(-377.485 -178.309)" fill="#111114"/>
          </g>
        </g>
        <g id="Grupo_62129" data-name="Grupo 62129" transform="translate(13.799 73.811)">
          <g id="Grupo_62128" data-name="Grupo 62128">
            <path id="Trazado_122292" data-name="Trazado 122292" d="M377.82,180.975c.754.449.858.95,2.065.852s1.032.3,1.446.751,4.689,2.318,5.494,1.409a.67.67,0,0,0-.072-.953c-.3.051-.71.128-1.254.223-1.254.218-2.879-1.229-3.5-1.769s-1.415-.332-2.495-.51-.93-1.829-.93-1.829l-.8-.278C377.626,179.265,377.18,180.585,377.82,180.975Z" transform="translate(-377.485 -178.871)" fill="#0a0a0a"/>
          </g>
        </g>
        <g id="Grupo_62131" data-name="Grupo 62131" transform="translate(6.449 79.413)">
          <g id="Grupo_62130" data-name="Grupo 62130">
            <path id="Trazado_122293" data-name="Trazado 122293" d="M372.364,182.822a5.279,5.279,0,0,0,.479,3.209c.8,1.124,2.554,3.074,3.314,2.986s.883-.43.883-.43a7.588,7.588,0,0,0-.241-3.379,10.657,10.657,0,0,1-.6-2.386Z" transform="translate(-372.3 -182.822)" fill="#111114"/>
          </g>
        </g>
        <g id="Grupo_62133" data-name="Grupo 62133" transform="translate(6.449 79.413)">
          <g id="Grupo_62132" data-name="Grupo 62132">
            <path id="Trazado_122294" data-name="Trazado 122294" d="M372.843,186.031a10.094,10.094,0,0,0,3,2.931c-1.127-1.449.564-1.15-.709-1.839-1.746-.948-.631-1.738-1.409-1.959s-.21-2.147-.21-2.147l-.421-.194h-.73A5.279,5.279,0,0,0,372.843,186.031Z" transform="translate(-372.3 -182.822)" fill="#0a0a0a"/>
          </g>
        </g>
        <g id="Grupo_62135" data-name="Grupo 62135" transform="translate(13.8 42.508)">
          <g id="Grupo_62134" data-name="Grupo 62134">
            <path id="Trazado_122295" data-name="Trazado 122295" d="M379.22,160.287s3.813-.832,5.018-3.494a88.189,88.189,0,0,1-.4,12.673c-.726,6.807-1.33,18.776-1.33,18.776a3.439,3.439,0,0,1-4.724,0s-.672-7.9,0-12.284c0,0-.449-7.666.3-11.5S379.22,160.287,379.22,160.287Z" transform="translate(-377.485 -156.793)" fill="#471bce"/>
          </g>
        </g>
        <g id="Grupo_62137" data-name="Grupo 62137" transform="translate(15.998 41.838)">
          <g id="Grupo_62136" data-name="Grupo 62136">
            <path id="Trazado_122296" data-name="Trazado 122296" d="M381.861,188.439s.6-11.969,1.33-18.776a97.533,97.533,0,0,0,.4-13.343,7.818,7.818,0,0,1-4.289,3.756c.084,2.6.483,10.1.444,12.644-.038,2.422-.5,12.45-.709,16.665A3.82,3.82,0,0,0,381.861,188.439Z" transform="translate(-379.036 -156.32)" fill="#632bee"/>
          </g>
        </g>
        <g id="Grupo_62139" data-name="Grupo 62139" transform="translate(5.757 44.73)">
          <g id="Grupo_62138" data-name="Grupo 62138">
            <path id="Trazado_122297" data-name="Trazado 122297" d="M373.414,158.36s-.386,4.4-.458,10.581a55.744,55.744,0,0,1-.678,9.463,133.238,133.238,0,0,0-.376,14.319s1.952,3.019,5.028,0c0,0,.522-10.61,1.049-13.024s3.463-14.143,4.646-18.354c.524-1.86.649-2.563.649-2.563S378.138,162.086,373.414,158.36Z" transform="translate(-371.811 -158.36)" fill="#471bce"/>
          </g>
        </g>
        <g id="Grupo_62141" data-name="Grupo 62141" transform="translate(8.014 44.276)">
          <g id="Grupo_62140" data-name="Grupo 62140">
            <path id="Trazado_122298" data-name="Trazado 122298" d="M376.266,192.856s.522-10.61,1.049-13.024,3.463-14.143,4.646-18.354a9.753,9.753,0,0,1,1.989-3.438s-3.648,2.532-6.591,2.524c-.13.912-1.375,9.573-1.67,13.354-.289,3.757-2.857,16.964-2.169,20.278A3.848,3.848,0,0,0,376.266,192.856Z" transform="translate(-373.404 -158.04)" fill="#632bee"/>
          </g>
        </g>
        <g id="Grupo_62143" data-name="Grupo 62143" transform="translate(5.648 18.429)">
          <g id="Grupo_62142" data-name="Grupo 62142">
            <path id="Trazado_122299" data-name="Trazado 122299" d="M377.966,141.178c-1.488.716-5.527,2.979-5.658,3.413s-1.551,1.5.634,6.367c0,0,2.9,5.273,1.624,10.636-.736,3.109-1.3,3.183-1.164,4.414.259,2.365,5.979,2.821,9.222,1.225,1.345-.662,3.413-1.833,4.094-3.4a53.35,53.35,0,0,1,.3-10.581c.751-5.349,1.081-12.273-1.963-13.121C385.052,140.136,382.655,138.92,377.966,141.178Z" transform="translate(-371.734 -139.809)" fill="#61d2c9"/>
          </g>
        </g>
        <g id="Grupo_62145" data-name="Grupo 62145" transform="translate(11.465 19.663)">
          <g id="Grupo_62144" data-name="Grupo 62144">
            <path id="Trazado_122300" data-name="Trazado 122300" d="M385,163.474a53.35,53.35,0,0,1,.3-10.581c.621-4.458.954-10-.716-12.213a7.359,7.359,0,0,0-2.4,3.791c-.394,2.305-2.961,3.664-4.235,4s-2.4,2.6-1.073,5.683c3.148,7.3,1.687,10.272-1.038,13.639a10.5,10.5,0,0,0,5.062-.838A8.06,8.06,0,0,0,385,163.474Z" transform="translate(-375.838 -140.68)" fill="#61d2c9"/>
          </g>
        </g>
        <path id="Trazado_122301" data-name="Trazado 122301" d="M379.094,142.17s6.967,4.336.824,40.655a10.215,10.215,0,0,0,5.375-3.9s-.308-15.739,0-20.367,1.6-21.276-4.853-18.663C380.439,139.891,376.9,141.01,379.094,142.17Z" transform="translate(-363.313 -121.462)" fill="#f9f9f9"/>
        <path id="Trazado_122302" data-name="Trazado 122302" d="M378.009,141.249s9.867,7.695,1.609,42.735c0,0-6.561,3.254-10.111-1.683,0,0,2.242-15.763,3.959-19.684,1.366-3.128,2.753-7.047-1.106-13.683C372.36,148.934,369.08,143.863,378.009,141.249Z" transform="translate(-367.016 -120.779)" fill="#f9f9f9"/>
        <path id="Trazado_122303" data-name="Trazado 122303" d="M379.036,142.585s4.734,6.559,2.872,22.172c0,0,1.569-12.376,2.184-13.611l-1.233-.72.805-2.776s-1.094-5.178-3.5-8.035Z" transform="translate(-363.039 -121.462)" fill="#ccdcf8"/>
        <g id="Grupo_62161" data-name="Grupo 62161" transform="translate(10.023 8.728)">
          <g id="Grupo_62147" data-name="Grupo 62147" transform="translate(0.956 6.981)">
            <g id="Grupo_62146" data-name="Grupo 62146">
              <path id="Trazado_122304" data-name="Trazado 122304" d="M375.543,137.891s1.583,2.675.152,4.364c-.8.943.872,3.348,3.923,3.3,0,0,1.372-.272,1.256-.768a3.031,3.031,0,0,1,.738-2.58C382.137,141.376,375.543,137.891,375.543,137.891Z" transform="translate(-375.495 -137.891)" fill="#efb185"/>
            </g>
          </g>
          <g id="Grupo_62149" data-name="Grupo 62149" transform="translate(0.97 7.161)">
            <g id="Grupo_62148" data-name="Grupo 62148">
              <path id="Trazado_122305" data-name="Trazado 122305" d="M375.691,142.2a.879.879,0,0,0-.186.4,5.706,5.706,0,0,1,3.389-1.095l-2.737-3.332c-.111-.058-.207-.111-.286-.155l-.1.278C376.146,139.135,376.764,140.943,375.691,142.2Z" transform="translate(-375.505 -138.018)" fill="#dd9569"/>
            </g>
          </g>
          <g id="Grupo_62151" data-name="Grupo 62151" transform="translate(4.412 10.138)">
            <g id="Grupo_62150" data-name="Grupo 62150">
              <path id="Trazado_122306" data-name="Trazado 122306" d="M379.856,143.857c-.2-1.792.217-1.747.738-2.58.146-.23-.251-.656-.9-1.158a2.159,2.159,0,0,0-.517.536,5.475,5.475,0,0,0-1.212,3.944,3.106,3.106,0,0,0,.632.027C378.963,144.587,379.923,144.411,379.856,143.857Z" transform="translate(-377.933 -140.118)" fill="#f2b78f"/>
            </g>
          </g>
          <g id="Grupo_62160" data-name="Grupo 62160">
            <g id="Grupo_62153" data-name="Grupo 62153" transform="translate(0.283 0.123)">
              <g id="Grupo_62152" data-name="Grupo 62152">
                <path id="Trazado_122307" data-name="Trazado 122307" d="M375.17,138.43s.588,3.467,2.876,5.135c2.031,1.476,4.424,2.493,4.985.013.454-1.967,1.658-6.979-.05-8.076-2.2-1.409-2.95-3.064-5.613-2.219C377.369,133.284,374.32,134.519,375.17,138.43Z" transform="translate(-375.02 -133.054)" fill="#efb185"/>
              </g>
            </g>
            <g id="Grupo_62155" data-name="Grupo 62155" transform="translate(0.285 1.26)">
              <g id="Grupo_62154" data-name="Grupo 62154">
                <path id="Trazado_122308" data-name="Trazado 122308" d="M375.17,138.1a7.724,7.724,0,0,0,2.862,5.178,9.953,9.953,0,0,0,1.936,1.147,9.336,9.336,0,0,1-1.973-2.151c-.809-1.035,1.3-.552-.037-3.156-.454-.892,1.914.336,2.459.346,3.223.068,3.069-1.788,3.167-2.563a5.234,5.234,0,0,0-.224-.968l-.275-.6c-.037-.055-.067-.111-.1-.162a10.626,10.626,0,0,0-.991-1.2c-1.379-.035-5.3-.13-5.385-.115-.052.01-.768.893-1.436,1.735A5.321,5.321,0,0,0,375.17,138.1Z" transform="translate(-375.022 -133.856)" fill="#e6a376"/>
              </g>
            </g>
            <g id="Grupo_62157" data-name="Grupo 62157">
              <g id="Grupo_62156" data-name="Grupo 62156">
                <path id="Trazado_122309" data-name="Trazado 122309" d="M376.518,141.855a6.219,6.219,0,0,1-1.433-5.911,4.014,4.014,0,0,1,3.692-2.963,4.623,4.623,0,0,1,4.951,3.366c.308.941-.009,3.261-3.593,2.149-.513-.159-1.575-.953-2.081-.535a1.9,1.9,0,0,0-.4,1.952c.177.625-.368.666-.438.532s-.679-1.921-1.372-1.262C375.227,139.774,376.46,141.735,376.518,141.855Z" transform="translate(-374.821 -132.967)" fill="#231202"/>
              </g>
            </g>
            <g id="Grupo_62159" data-name="Grupo 62159" transform="translate(0 1.051)">
              <g id="Grupo_62158" data-name="Grupo 62158">
                <path id="Trazado_122310" data-name="Trazado 122310" d="M376.518,141.545c-.058-.121-1.291-2.081-.67-2.671.693-.659,1.308,1.126,1.372,1.262s.615.094.438-.532a1.9,1.9,0,0,1,.4-1.952c.459-.38,1.375.237,1.924.475a4.571,4.571,0,0,1-1.69-2.114,3.569,3.569,0,0,0-2.037-2.3,4.117,4.117,0,0,0-1.167,1.925A6.219,6.219,0,0,0,376.518,141.545Z" transform="translate(-374.821 -133.709)" fill="#301806"/>
              </g>
            </g>
          </g>
        </g>
        <path id="Trazado_122311" data-name="Trazado 122311" d="M376.812,140.969s6.682,6.685,4.472,24.657c0,0-1.22-11.24-3.049-12.989l1.2-1.439-2.334-1.131s-1.694-6.437-4.279-7.076C372.819,142.991,375.08,141.01,376.812,140.969Z" transform="translate(-365.634 -120.896)" fill="#ccdcf8"/>
        <g id="Grupo_62165" data-name="Grupo 62165" transform="translate(18.451)">
          <path id="Trazado_122312" data-name="Trazado 122312" d="M391.137,129.045l-.026-.031-.024-.028h0a5.8,5.8,0,0,0-10.275,2.816,5.689,5.689,0,0,0,1.765,4.866l20.811,25.417a2.083,2.083,0,0,1-.231-.364c-.014-.034-.03-.062-.042-.1a1.961,1.961,0,0,1-.142-.424,2.227,2.227,0,0,1-.05-.332.176.176,0,0,1,0-.028c-.006-.1-.006-.208,0-.316a.435.435,0,0,1,0-.061,2.015,2.015,0,0,1,.037-.342.538.538,0,0,0,.008-.058c.02-.121.045-.241.077-.369a.156.156,0,0,0,.011-.04c.038-.135.079-.274.133-.413h0l0-.01c.052-.145.115-.285.18-.428a.243.243,0,0,0,.02-.048c.071-.142.14-.279.217-.417.006,0,.007-.013.014-.018.072-.135.159-.271.25-.407a.366.366,0,0,1,.024-.035c.088-.135.181-.265.278-.4l.018-.018c.1-.135.21-.267.32-.4a.335.335,0,0,0,.03-.033c.108-.126.224-.251.339-.374l.011-.01c.122-.123.245-.244.376-.362a.541.541,0,0,1,.041-.04c.1-.094.21-.189.322-.279.027-.024.058-.051.088-.075.068-.055.139-.108.206-.159.084-.067.163-.129.249-.19.13-.1.261-.189.4-.275l.007-.006v0c.149-.1.295-.187.448-.272l.017-.01h0c.149-.086.3-.166.452-.241a.333.333,0,0,0,.038-.02c.142-.069.288-.135.431-.2a.249.249,0,0,0,.054-.021c.14-.06.288-.113.432-.162l.042-.014c.149-.051.3-.1.451-.135l.021-.007c.159-.038.319-.072.473-.1a4.411,4.411,0,0,1,.449-.055.214.214,0,0,1,.03,0,3.48,3.48,0,0,1,.418-.013l.02,0c.13,0,.255.016.374.031l.035,0a3.335,3.335,0,0,1,.336.072.127.127,0,0,1,.033.011,1.994,1.994,0,0,1,.291.1c.021.008.04.018.058.026a2.737,2.737,0,0,1,.272.14.583.583,0,0,0,.05.038,1.922,1.922,0,0,1,.2.147,2.279,2.279,0,0,1,.24.242Z" transform="translate(-380.767 -126.811)" fill="#2bb4da"/>
          <path id="Trazado_122313" data-name="Trazado 122313" d="M382.577,135.945l14.673,17.92,3.571-3.051L381.8,128.545a5.62,5.62,0,0,0-.985,2.534A5.689,5.689,0,0,0,382.577,135.945Z" transform="translate(-380.767 -126.087)" fill="#27a7c4"/>
          <path id="Trazado_122314" data-name="Trazado 122314" d="M389.529,142.249a1.637,1.637,0,0,1,.075-.179c.013-.03.03-.058.041-.089a.248.248,0,0,0,.013-.027.379.379,0,0,1,.031-.064c.028-.061.057-.119.088-.179s.067-.122.1-.18l.106-.18c.035-.062.075-.122.113-.183a.572.572,0,0,0,.043-.065c.008-.013.017-.026.024-.038a.908.908,0,0,1,.057-.078c.041-.062.084-.122.126-.183l.1-.128c.01-.011.016-.021.026-.033l.014-.018c.045-.058.089-.116.136-.173s.091-.115.137-.17l.031-.03a.182.182,0,0,1,.02-.026l.094-.1c.047-.052.092-.1.142-.157.034-.037.069-.072.1-.108l.026-.027.018-.017c.047-.052.1-.1.152-.155s.112-.109.172-.163a.135.135,0,0,0,.028-.028c.01-.007.018-.018.031-.027.048-.043.095-.087.145-.128a2.232,2.232,0,0,1,.179-.15c.033-.03.067-.06.1-.087a.194.194,0,0,0,.03-.03c.052-.038.106-.077.159-.118.082-.067.169-.132.257-.2a.286.286,0,0,1,.04-.028c.119-.088.244-.172.369-.254.082-.052.167-.108.252-.156.069-.044.137-.085.211-.125h0l0,0c.069-.04.142-.079.211-.116s.142-.074.211-.108a.383.383,0,0,1,.034-.018.278.278,0,0,0,.035-.018c.048-.021.1-.047.146-.069l.22-.1.071-.027a.242.242,0,0,1,.05-.02c.033-.016.068-.031.1-.045l.225-.085c.034-.011.067-.023.1-.034.013,0,.027-.008.04-.014l.078-.027.214-.065.157-.041a.088.088,0,0,1,.023-.006l.03-.009c.067-.014.132-.033.2-.045l.2-.04.044-.006c.05-.01.1-.018.147-.024l.184-.023c.044,0,.084-.006.126-.007l.016,0a.348.348,0,0,0,.04,0c.06,0,.118-.007.176-.009s.119,0,.174,0l.035,0h.018l.118,0c.06,0,.118.009.174.017l.085.01.03,0,.052.009c.061.011.121.023.177.037.037.007.069.017.1.026a.163.163,0,0,1,.034.01.137.137,0,0,1,.038.01c.062.017.122.038.183.06.023.011.05.023.074.033s.04.017.058.027l.06.024a1.861,1.861,0,0,1,.208.116l.006,0a.205.205,0,0,1,.03.023,1.869,1.869,0,0,1,.2.146l.016.013a1.929,1.929,0,0,1,.238.244l21.918,26.773a1.866,1.866,0,0,0-.241-.244,1.9,1.9,0,0,0-.2-.149.38.38,0,0,1-.048-.038,2.442,2.442,0,0,0-.272-.138l-.058-.028a2.59,2.59,0,0,0-.291-.1.323.323,0,0,0-.035-.009,2.994,2.994,0,0,0-.336-.074l-.033,0c-.12-.016-.244-.027-.374-.031h-.021c-.135,0-.276,0-.417.01a.184.184,0,0,1-.026,0c-.149.013-.3.028-.455.054s-.313.061-.473.1l-.021.006c-.149.04-.3.084-.449.136a.116.116,0,0,0-.043.014c-.146.048-.291.1-.434.162l-.051.02c-.147.062-.289.128-.432.2l-.041.021c-.152.075-.3.155-.452.24h0l-.016.011c-.152.085-.3.174-.448.274h0l-.006,0c-.135.088-.269.18-.4.275-.084.061-.166.125-.251.19-.067.052-.139.1-.2.16-.03.026-.062.05-.091.075-.108.091-.214.186-.319.278-.013.014-.03.025-.041.037-.132.119-.255.241-.376.367l-.013.01c-.113.121-.228.245-.34.373a.277.277,0,0,1-.027.031c-.115.132-.221.262-.32.4l-.017.02c-.1.129-.193.261-.279.4l-.025.035c-.088.136-.174.271-.251.408l-.011.018c-.075.139-.147.276-.218.417a.343.343,0,0,1-.02.048c-.065.142-.128.285-.179.427l0,.011h0a4.059,4.059,0,0,0-.13.414l-.013.038c-.033.128-.058.248-.077.369l-.011.057a2.864,2.864,0,0,0-.035.345.438.438,0,0,0,0,.061,2.894,2.894,0,0,0,0,.313v.031a3.094,3.094,0,0,0,.048.332,2.4,2.4,0,0,0,.142.424c.017.033.03.062.045.095.062.129.132.1.224.208l-21.912-26.617a1.813,1.813,0,0,1-.228-.364c-.014-.031-.034-.062-.048-.094a2.362,2.362,0,0,1-.139-.427v0a2.084,2.084,0,0,1-.048-.315v-.014a.091.091,0,0,0,0-.027c0-.068-.006-.138-.007-.21,0-.035,0-.071,0-.109,0-.018,0-.035,0-.055s0-.038,0-.06c.007-.071.016-.142.024-.214,0-.024.008-.054.014-.078l.006-.048c0-.023.007-.047.011-.074.013-.064.028-.128.044-.191a.825.825,0,0,1,.028-.106l.007-.043a.19.19,0,0,0,.01-.043c.02-.061.037-.12.06-.183a1.6,1.6,0,0,1,.065-.186l0-.011Q389.493,142.334,389.529,142.249Z" transform="translate(-377.254 -122.47)" fill="#edf9f5"/>
          <path id="Trazado_122315" data-name="Trazado 122315" d="M419.216,165.972a5.635,5.635,0,0,1-.951,2.481,1.8,1.8,0,0,1,.4,1.371,1.854,1.854,0,0,1-3.332.837,5.82,5.82,0,0,1-5.64-1.1l-14.533-17.68c1.769-5.561,7.449-7.065,8.948-7.137l13.623,16.642A5.678,5.678,0,0,1,419.216,165.972Z" transform="translate(-374.76 -119.32)" fill="#ffce00"/>
          <g id="Grupo_62164" data-name="Grupo 62164" transform="translate(7.779 10.307)">
            <g id="Grupo_62162" data-name="Grupo 62162">
              <path id="Trazado_122316" data-name="Trazado 122316" d="M396.2,134.183A13.542,13.542,0,0,0,386.677,142c-1.365,3.672.69,6.128,4.587,5.487a13.541,13.541,0,0,0,9.535-7.815C402.16,136,400.106,133.539,396.2,134.183Z" transform="translate(-386.255 -134.081)" fill="#abd9ce"/>
            </g>
            <g id="Grupo_62163" data-name="Grupo 62163" transform="translate(1.012 0.956)">
              <path id="Trazado_122317" data-name="Trazado 122317" d="M396.425,134.854a12.914,12.914,0,0,0-9.053,7.459c-1.3,3.5.648,5.837,4.343,5.219a12.921,12.921,0,0,0,9.067-7.461C402.077,136.573,400.133,134.235,396.425,134.854Z" transform="translate(-386.969 -134.755)" fill="#edf9f5"/>
            </g>
          </g>
          <path id="Trazado_122318" data-name="Trazado 122318" d="M395.881,136.214c2.6-.434,4.135.946,3.794,3.179l-.758-.927a1.922,1.922,0,0,0-.238-.244l-.016-.013a1.867,1.867,0,0,0-.2-.146.212.212,0,0,0-.03-.023l-.006,0a1.85,1.85,0,0,0-.208-.116l-.059-.024c-.018-.01-.038-.018-.058-.027s-.051-.021-.074-.033c-.061-.021-.12-.043-.183-.06a.137.137,0,0,0-.038-.01.165.165,0,0,0-.034-.01c-.035-.008-.068-.018-.1-.026-.057-.014-.116-.025-.177-.037l-.052-.009-.03,0-.085-.01c-.057-.009-.115-.013-.174-.017l-.118,0h-.018l-.035,0c-.055,0-.115,0-.174,0s-.116.006-.176.009a.338.338,0,0,1-.04,0l-.016,0c-.042,0-.082,0-.126.007l-.184.023c-.05.006-.1.014-.147.024l-.044.006-.2.04c-.068.013-.133.031-.2.045l-.03.009a.088.088,0,0,0-.023.006l-.157.041-.214.065-.078.027c-.013.006-.027.01-.04.014-.038.011-.071.023-.1.034l-.225.085c-.037.014-.072.03-.1.045a.241.241,0,0,0-.05.02l-.071.027-.22.1c-.05.023-.1.048-.146.069a.283.283,0,0,1-.035.018c-.01.006-.024.011-.034.018-.069.034-.14.069-.211.108s-.142.077-.211.116l0,0h0c-.074.04-.142.081-.211.125-.085.048-.17.1-.252.156-.125.082-.249.166-.368.254a.28.28,0,0,0-.04.028c-.088.065-.174.13-.257.2-.052.041-.106.079-.159.118a.2.2,0,0,1-.03.03c-.034.027-.068.057-.1.086a2.243,2.243,0,0,0-.179.15c-.05.041-.1.085-.145.128-.013.009-.021.02-.031.027a.136.136,0,0,1-.028.028c-.06.054-.116.109-.171.163s-.1.1-.152.155l-.018.017-.026.027c-.034.035-.069.071-.1.108-.05.054-.1.1-.142.157l-.094.1a.173.173,0,0,0-.02.026l-.031.03c-.047.055-.092.113-.137.17s-.091.115-.136.173l-.014.018c-.01.011-.016.021-.025.033l-.1.128c-.042.061-.085.121-.126.183a.909.909,0,0,0-.057.078c-.007.013-.016.026-.024.038a.568.568,0,0,1-.043.065c-.038.061-.078.121-.113.183l-.106.18-.1.18c-.031.06-.059.118-.088.179a.383.383,0,0,0-.031.064.24.24,0,0,1-.013.027c-.011.031-.028.06-.041.089a1.658,1.658,0,0,0-.075.179q-.036.085-.068.17l0,.011a1.608,1.608,0,0,0-.065.186c-.023.062-.04.122-.059.183a.2.2,0,0,1-.01.043l-.007.043a.85.85,0,0,0-.028.106c-.016.064-.031.128-.044.191,0,.027-.008.051-.011.074l-.006.048c-.006.024-.01.054-.014.078-.009.072-.017.143-.024.214,0,.021,0,.038,0,.06s0,.037,0,.055c0,.038,0,.074,0,.109,0,.072,0,.142.007.21a.092.092,0,0,1,0,.027v.014a2.092,2.092,0,0,0,.048.315h0a2.343,2.343,0,0,0,.139.428c.014.031.034.062.048.094a1.813,1.813,0,0,0,.228.364l.662.814c-2.088-.207-3.052-1.908-2.174-4.28A10.476,10.476,0,0,1,395.881,136.214Z" transform="translate(-377.655 -122.916)" fill="#abd9ce"/>
          <path id="Trazado_122319" data-name="Trazado 122319" d="M410.6,164.216s-2.051,3.1-.554,4.381S411.843,165.907,410.6,164.216Z" transform="translate(-368.775 -111.183)" fill="#ffce00"/>
          <path id="Trazado_122320" data-name="Trazado 122320" d="M390.8,139.4a.182.182,0,0,0-.02.026l-.031.03c-.047.055-.092.113-.137.17s-.091.115-.136.173l-.014.018c-.01.011-.016.021-.026.033l-.1.128c-.042.061-.085.121-.126.183a.906.906,0,0,0-.057.078c-.007.013-.016.026-.024.038a.575.575,0,0,1-.043.065c-.038.061-.078.121-.113.183l-.106.18c-.033.058-.067.121-.1.18s-.06.118-.088.179a.379.379,0,0,0-.031.064.251.251,0,0,1-.013.027c-.011.031-.028.06-.041.089a1.636,1.636,0,0,0-.075.179q-.036.085-.068.17l0,.011a1.594,1.594,0,0,0-.065.186c-.023.062-.04.122-.06.183a.19.19,0,0,1-.01.043l-.007.043a.825.825,0,0,0-.028.106c-.016.064-.031.128-.044.191,0,.027-.009.051-.011.074l-.006.048c-.006.024-.01.054-.014.078-.009.072-.017.143-.024.214,0,.021,0,.038,0,.06s0,.037,0,.055c0,.038,0,.074,0,.109,0,.072,0,.142.007.21a.091.091,0,0,1,0,.027v.014a2.084,2.084,0,0,0,.048.315h0a2.341,2.341,0,0,0,.139.428c.014.031.034.062.048.094a1.812,1.812,0,0,0,.228.364l8.008,9.726-.013.03,13.712,16.681a.257.257,0,0,0,.044.055l.777.944a5.82,5.82,0,0,0,5.64,1.1,1.852,1.852,0,0,0,1.263.744,1.884,1.884,0,0,0,.2.006l-28.276-34.564c-.038.044-.078.084-.113.126Z" transform="translate(-377.254 -121.646)" fill="#fff" opacity="0.2"/>
        </g>
        <g id="Grupo_62168" data-name="Grupo 62168" transform="translate(5.07 18.334)">
          <path id="Trazado_122321" data-name="Trazado 122321" d="M372.29,143.695c-1.15.647-1.957,3.156,1.758,4.487s11.521,4.489,12.8,3.625c1.042-.7,2.149-2.517-2.39-4.557S375.126,142.1,372.29,143.695Z" transform="translate(-371.326 -138.275)" fill="#f9f9f9"/>
          <g id="Grupo_62167" data-name="Grupo 62167" transform="translate(22.42)">
            <g id="Grupo_62166" data-name="Grupo 62166">
              <path id="Trazado_122322" data-name="Trazado 122322" d="M388.292,144.7a17.562,17.562,0,0,1,2.575-.957c.54-.052,1.528-1.156,1.749-1.808s.624-2.466-.347-2.164-1.359.654-1.994.754a4.35,4.35,0,0,0-2,1.12c-.271.371-1.133,1.562-1.133,1.562Z" transform="translate(-387.144 -139.742)" fill="#efb185"/>
            </g>
          </g>
          <path id="Trazado_122323" data-name="Trazado 122323" d="M380.159,150.765s1.137,2.717,3.416,1.7,8.34-8.453,8.34-8.453-1.911-1.249-1.505-2.389C390.41,141.626,380.37,148.176,380.159,150.765Z" transform="translate(-367.64 -138.955)" fill="#f9f9f9"/>
        </g>
      </g>
    </g>
  </g>
</svg>
