<svg xmlns="http://www.w3.org/2000/svg" xmlns:xlink="http://www.w3.org/1999/xlink" width="297.033" height="181.528" viewBox="0 0 297.033 181.528">
  <defs>
    <linearGradient id="linear-gradient" y1="0.5" x2="1" y2="0.5" gradientUnits="objectBoundingBox">
      <stop offset="0" stop-color="#dacfc5"/>
      <stop offset="1" stop-color="#d5cbbf"/>
    </linearGradient>
  </defs>
  <g id="Grupo_840516" data-name="Grupo 840516" transform="translate(-2411.954 -33.451)">
    <g id="Grupo_840522" data-name="Grupo 840522" transform="translate(2411.954 38.378)">
      <g id="Grupo_840521" data-name="Grupo 840521" style="isolation: isolate">
        <g id="Grupo_840517" data-name="Grupo 840517" transform="translate(0 72.942)">
          <g id="Grupo_840516-2" data-name="Grupo 840516">
            <path id="Trazado_296985" data-name="Trazado 296985" d="M2411.954,81.816l.007,4.509,170.687,99.149-.007-4.509Z" transform="translate(-2411.954 -81.816)" fill="#727997"/>
          </g>
        </g>
        <g id="Grupo_840518" data-name="Grupo 840518" transform="translate(170.687 99.149)">
          <path id="Trazado_296986" data-name="Trazado 296986" d="M2517.968,171.036l.007,4.509L2644.315,102.6l-.007-4.509Z" transform="translate(-2517.968 -98.094)" fill="#727997"/>
        </g>
        <g id="Grupo_840520" data-name="Grupo 840520">
          <g id="Grupo_840519" data-name="Grupo 840519">
            <path id="Trazado_296987" data-name="Trazado 296987" d="M2411.954,109.453,2582.64,208.6l126.34-72.942L2538.293,36.511Z" transform="translate(-2411.954 -36.511)" fill="#b0c0d2"/>
          </g>
        </g>
      </g>
    </g>
    <g id="Grupo_840626" data-name="Grupo 840626" transform="translate(2440.527 33.451)">
      <g id="Grupo_840539" data-name="Grupo 840539" transform="translate(28.317 36.344)">
        <g id="Grupo_840530" data-name="Grupo 840530" transform="translate(47.059)">
          <path id="Trazado_296988" data-name="Trazado 296988" d="M2595.171,143.223l31.737-18.324L2511.664,58l-31.738,18.324,115.245,66.9Z" transform="translate(-2474.438 -54.82)" fill="#1b8289"/>
          <g id="Grupo_840529" data-name="Grupo 840529" style="isolation: isolate">
            <g id="Grupo_840523" data-name="Grupo 840523" transform="translate(5.488 3.179)">
              <path id="Trazado_296989" data-name="Trazado 296989" d="M2479.926,76.322l.009,3.163,31.737-18.324L2511.664,58Z" transform="translate(-2479.926 -57.998)" fill="#dae0f4"/>
            </g>
            <g id="Grupo_840525" data-name="Grupo 840525" transform="translate(37.226 3.179)">
              <g id="Grupo_840524" data-name="Grupo 840524">
                <path id="Trazado_296990" data-name="Trazado 296990" d="M2499.639,58l.009,3.163,115.245,66.9-.009-3.163Z" transform="translate(-2499.639 -57.998)" fill="#afbbe8"/>
              </g>
            </g>
            <g id="Grupo_840526" data-name="Grupo 840526" transform="translate(120.714 70.079)">
              <path id="Trazado_296991" data-name="Trazado 296991" d="M2551.494,121.053l.009,3.163,37.243-21.5-.009-3.163Z" transform="translate(-2551.494 -99.551)" fill="#dae0f4"/>
            </g>
            <g id="Grupo_840527" data-name="Grupo 840527" transform="translate(0 21.502)">
              <path id="Trazado_296992" data-name="Trazado 296992" d="M2476.518,69.379l.009,3.163,120.714,70.08-.009-3.163Z" transform="translate(-2476.518 -69.379)" fill="#afbbe8"/>
            </g>
            <g id="Grupo_840528" data-name="Grupo 840528" transform="translate(0)">
              <path id="Trazado_296993" data-name="Trazado 296993" d="M2634.474,126.1l-37.243,21.5-120.713-70.08,37.243-21.5Zm-37.223,18.324,31.736-18.324L2513.743,59.2,2482,77.526l115.246,66.9Z" transform="translate(-2476.518 -56.024)" fill="#f2f4fe"/>
            </g>
          </g>
        </g>
        <g id="Grupo_840538" data-name="Grupo 840538" transform="translate(0 27.741)">
          <path id="Trazado_296994" data-name="Trazado 296994" d="M2565.942,160.453l31.737-18.324-115.245-66.9L2450.7,93.552l115.245,66.9Z" transform="translate(-2445.209 -72.049)" fill="#1b8289"/>
          <g id="Grupo_840537" data-name="Grupo 840537" style="isolation: isolate">
            <g id="Grupo_840531" data-name="Grupo 840531" transform="translate(5.488 3.179)">
              <path id="Trazado_296995" data-name="Trazado 296995" d="M2450.7,93.552l.009,3.163,31.737-18.324-.009-3.163Z" transform="translate(-2450.697 -75.229)" fill="#dae0f4"/>
            </g>
            <g id="Grupo_840533" data-name="Grupo 840533" transform="translate(37.226 3.179)">
              <g id="Grupo_840532" data-name="Grupo 840532">
                <path id="Trazado_296996" data-name="Trazado 296996" d="M2470.41,75.229l.009,3.163,115.245,66.9-.009-3.163Z" transform="translate(-2470.41 -75.229)" fill="#afbbe8"/>
              </g>
            </g>
            <g id="Grupo_840534" data-name="Grupo 840534" transform="translate(120.714 70.08)">
              <path id="Trazado_296997" data-name="Trazado 296997" d="M2522.265,138.284l.009,3.163,37.243-21.5-.009-3.163Z" transform="translate(-2522.265 -116.781)" fill="#dae0f4"/>
            </g>
            <g id="Grupo_840535" data-name="Grupo 840535" transform="translate(0 21.502)">
              <path id="Trazado_296998" data-name="Trazado 296998" d="M2447.289,86.609l.009,3.163,120.715,70.08-.009-3.163Z" transform="translate(-2447.289 -86.609)" fill="#afbbe8"/>
            </g>
            <g id="Grupo_840536" data-name="Grupo 840536" transform="translate(0)">
              <path id="Trazado_296999" data-name="Trazado 296999" d="M2605.245,143.334,2568,164.837,2447.289,94.756l37.243-21.5Zm-37.224,18.324,31.737-18.324-115.244-66.9-31.738,18.324,115.246,66.9Z" transform="translate(-2447.289 -73.254)" fill="#f2f4fe"/>
            </g>
          </g>
        </g>
      </g>
      <path id="Trazado_297000" data-name="Trazado 297000" d="M2489.877,87.494l-8.744-5.047,10.6-6.121-21.473-12.4L2429.7,87.347l21.473,12.4,8.926-5.154,8.742,5.047a3.649,3.649,0,0,0,3.3,0,1.006,1.006,0,0,0,0-1.906l-8.742-5.047,5.564-3.212,8.742,5.047a3.65,3.65,0,0,0,3.3,0,1.006,1.006,0,0,0,0-1.906l-8.743-5.049,5.563-3.212,8.742,5.047a3.643,3.643,0,0,0,3.3,0A1.006,1.006,0,0,0,2489.877,87.494Z" transform="translate(-2429.701 -14.858)" fill="#7c6e5e" opacity="0.4" style="mix-blend-mode: multiply;isolation: isolate"/>
      <path id="Trazado_297001" data-name="Trazado 297001" d="M2520.441,69.849,2511.7,64.8l10.6-6.12-21.473-12.4L2460.266,69.7l21.471,12.4,8.927-5.154,8.742,5.047a3.649,3.649,0,0,0,3.3,0,1.006,1.006,0,0,0,0-1.906l-8.742-5.047,5.563-3.212,8.744,5.047a3.649,3.649,0,0,0,3.3,0,1.006,1.006,0,0,0,0-1.906l-8.744-5.047,5.564-3.212,8.743,5.047a3.65,3.65,0,0,0,3.3,0A1.006,1.006,0,0,0,2520.441,69.849Z" transform="translate(-2411.055 -25.624)" fill="#7c6e5e" opacity="0.4" style="mix-blend-mode: multiply;isolation: isolate"/>
      <g id="Grupo_840582" data-name="Grupo 840582" transform="translate(49.988)">
        <g id="Grupo_840574" data-name="Grupo 840574">
          <g id="Axonometric_Cube" data-name="Axonometric Cube">
            <g id="Grupo_840540" data-name="Grupo 840540" transform="translate(0 23.074)">
              <path id="Trazado_297002" data-name="Trazado 297002" d="M2481.512,59.77l-20.763-11.988V68.763l20.763,11.988Z" transform="translate(-2460.749 -47.782)" fill="#cec4b7"/>
            </g>
            <path id="Cube_face_-_right" data-name="Cube face - right" d="M2513.611,61.878l-39.966,23.074V63.97L2513.611,40.9Z" transform="translate(-2452.881 -28.908)" fill="url(#linear-gradient)"/>
            <path id="Cube_face_-_top" data-name="Cube face - top" d="M2481.512,68.512l-20.763-11.988,39.965-23.074,20.764,11.988Z" transform="translate(-2460.749 -33.451)" fill="#f2e8df"/>
            <path id="Trazado_297003" data-name="Trazado 297003" d="M2461.672,56.2l38.479-22.215,19.276,11.13-38.479,22.215Z" transform="translate(-2460.185 -33.125)" fill="#5b5651"/>
            <path id="Trazado_297004" data-name="Trazado 297004" d="M2500.151,36.633l16.982,9.805,2.294-1.324-19.276-11.13L2461.672,56.2l2.294,1.324Z" transform="translate(-2460.185 -33.125)" fill="#cec4b7"/>
            <path id="Trazado_297005" data-name="Trazado 297005" d="M2500.151,36.633V33.984L2461.672,56.2l2.294,1.324Z" transform="translate(-2460.185 -33.125)" fill="#ded3c9"/>
          </g>
          <g id="Grupo_840573" data-name="Grupo 840573" transform="translate(2.649 29.704)">
            <g id="Grupo_840548" data-name="Grupo 840548">
              <g id="Grupo_840547" data-name="Grupo 840547">
                <g id="Grupo_840546" data-name="Grupo 840546">
                  <g id="Grupo_840545" data-name="Grupo 840545">
                    <g id="Grupo_840544" data-name="Grupo 840544">
                      <g id="Grupo_840543" data-name="Grupo 840543">
                        <g id="Grupo_840542" data-name="Grupo 840542">
                          <g id="Grupo_840541" data-name="Grupo 840541" transform="translate(0.146 0.084)">
                            <path id="Trazado_297006" data-name="Trazado 297006" d="M2462.485,51.952v3.476l3.332,1.924V53.877Z" transform="translate(-2462.485 -51.952)" fill="#4c4441"/>
                          </g>
                          <path id="Trazado_297007" data-name="Trazado 297007" d="M2462.418,54.027l3.457,2v.259l-3.48-2.009Z" transform="translate(-2462.393 -50.603)" fill="#ded3c9"/>
                          <path id="Trazado_297008" data-name="Trazado 297008" d="M2462.394,51.9v3.67l.226-.13V52.03Z" transform="translate(-2462.394 -51.9)" fill="#b5aba0"/>
                        </g>
                      </g>
                    </g>
                  </g>
                </g>
              </g>
            </g>
            <g id="Grupo_840556" data-name="Grupo 840556" transform="translate(3.924 2.266)">
              <g id="Grupo_840555" data-name="Grupo 840555">
                <g id="Grupo_840554" data-name="Grupo 840554">
                  <g id="Grupo_840553" data-name="Grupo 840553">
                    <g id="Grupo_840552" data-name="Grupo 840552">
                      <g id="Grupo_840551" data-name="Grupo 840551">
                        <g id="Grupo_840550" data-name="Grupo 840550">
                          <g id="Grupo_840549" data-name="Grupo 840549" transform="translate(0.146 0.084)">
                            <path id="Trazado_297009" data-name="Trazado 297009" d="M2464.922,53.36v3.476l3.332,1.924V55.284Z" transform="translate(-2464.922 -53.36)" fill="#4c4441"/>
                          </g>
                          <path id="Trazado_297010" data-name="Trazado 297010" d="M2464.856,55.434l3.456,2v.259l-3.48-2.009Z" transform="translate(-2464.831 -52.01)" fill="#ded3c9"/>
                          <path id="Trazado_297011" data-name="Trazado 297011" d="M2464.832,53.307v3.67l.225-.13V53.438Z" transform="translate(-2464.832 -53.307)" fill="#b5aba0"/>
                        </g>
                      </g>
                    </g>
                  </g>
                </g>
              </g>
            </g>
            <g id="Grupo_840564" data-name="Grupo 840564" transform="translate(7.848 4.531)">
              <g id="Grupo_840563" data-name="Grupo 840563">
                <g id="Grupo_840562" data-name="Grupo 840562">
                  <g id="Grupo_840561" data-name="Grupo 840561">
                    <g id="Grupo_840560" data-name="Grupo 840560">
                      <g id="Grupo_840559" data-name="Grupo 840559">
                        <g id="Grupo_840558" data-name="Grupo 840558">
                          <g id="Grupo_840557" data-name="Grupo 840557" transform="translate(0.146 0.084)">
                            <path id="Trazado_297012" data-name="Trazado 297012" d="M2467.359,54.767v3.476l3.332,1.924V56.691Z" transform="translate(-2467.359 -54.767)" fill="#4c4441"/>
                          </g>
                          <path id="Trazado_297013" data-name="Trazado 297013" d="M2467.293,56.841l3.457,2V59.1l-3.48-2.009Z" transform="translate(-2467.268 -53.417)" fill="#ded3c9"/>
                          <path id="Trazado_297014" data-name="Trazado 297014" d="M2467.269,54.715v3.67l.226-.13V54.845Z" transform="translate(-2467.269 -54.715)" fill="#b5aba0"/>
                        </g>
                      </g>
                    </g>
                  </g>
                </g>
              </g>
            </g>
            <g id="Grupo_840572" data-name="Grupo 840572" transform="translate(11.773 6.797)">
              <g id="Grupo_840571" data-name="Grupo 840571">
                <g id="Grupo_840570" data-name="Grupo 840570">
                  <g id="Grupo_840569" data-name="Grupo 840569">
                    <g id="Grupo_840568" data-name="Grupo 840568">
                      <g id="Grupo_840567" data-name="Grupo 840567">
                        <g id="Grupo_840566" data-name="Grupo 840566">
                          <g id="Grupo_840565" data-name="Grupo 840565" transform="translate(0.146 0.084)">
                            <path id="Trazado_297015" data-name="Trazado 297015" d="M2469.8,56.174V59.65l3.332,1.924V58.1Z" transform="translate(-2469.797 -56.174)" fill="#4c4441"/>
                          </g>
                          <path id="Trazado_297016" data-name="Trazado 297016" d="M2469.73,58.248l3.457,2V60.5l-3.48-2.009Z" transform="translate(-2469.706 -54.825)" fill="#ded3c9"/>
                          <path id="Trazado_297017" data-name="Trazado 297017" d="M2469.706,56.122v3.67l.225-.13V56.252Z" transform="translate(-2469.706 -56.122)" fill="#b5aba0"/>
                        </g>
                      </g>
                    </g>
                  </g>
                </g>
              </g>
            </g>
          </g>
        </g>
        <g id="Grupo_840581" data-name="Grupo 840581" transform="translate(32.07 30.883)">
          <g id="Grupo_840576" data-name="Grupo 840576" transform="translate(17.474)">
            <g id="Grupo_840575" data-name="Grupo 840575">
              <g id="Axonometric_Cylinder" data-name="Axonometric Cylinder" transform="translate(6.486 12.995)">
                <ellipse id="Cylinder_face" data-name="Cylinder face" cx="1.926" cy="1.112" rx="1.926" ry="1.112" fill="#4a4846"/>
                <path id="Cylinder_body" data-name="Cylinder body" d="M2499.4,61.388v.206a.953.953,0,0,1-.563.8,3.008,3.008,0,0,1-2.724,0,.96.96,0,0,1-.563-.776v-.208a.958.958,0,0,0,.563.776,3.008,3.008,0,0,0,2.724,0A.949.949,0,0,0,2499.4,61.388Z" transform="translate(-2495.549 -60.286)" fill="#3d3a39"/>
              </g>
              <g id="Axonometric_Cylinder-2" data-name="Axonometric Cylinder">
                <path id="Cylinder_face-2" data-name="Cylinder face" d="M2492.994,52.883a3.012,3.012,0,0,0-1.362,2.359c0,.868.61,1.22,1.362.786a3.007,3.007,0,0,0,1.362-2.359C2494.356,52.8,2493.746,52.448,2492.994,52.883Z" transform="translate(-2491.453 -52.593)" fill="#302e2d"/>
                <path id="Cylinder_body-2" data-name="Cylinder body" d="M2494.034,52.831l-.179-.1a.95.95,0,0,0-.973.09,3.007,3.007,0,0,0-1.362,2.359.963.963,0,0,0,.389.876l.181.1a.962.962,0,0,1-.391-.876,3.012,3.012,0,0,1,1.362-2.359A.95.95,0,0,1,2494.034,52.831Z" transform="translate(-2491.521 -52.632)" fill="#3d3a39"/>
              </g>
              <path id="Trazado_297018" data-name="Trazado 297018" d="M2500.553,57.876a7.511,7.511,0,0,0-2.742-2.745l-3.639-2.1c-1.559-.9-3.12,2.331-1.98,2.988l3.831,2.212a3.924,3.924,0,0,1,1.958,3.391v4.63c0,1.734,3.579,1.488,3.579.066v-4.7A7.5,7.5,0,0,0,2500.553,57.876Z" transform="translate(-2491.35 -52.485)" fill="#3d3a39"/>
            </g>
          </g>
          <g id="Grupo_840578" data-name="Grupo 840578" transform="translate(8.738 5.044)">
            <g id="Grupo_840577" data-name="Grupo 840577">
              <g id="Axonometric_Cylinder-3" data-name="Axonometric Cylinder" transform="translate(6.485 12.995)">
                <ellipse id="Cylinder_face-3" data-name="Cylinder face" cx="1.926" cy="1.112" rx="1.926" ry="1.112" fill="#4a4846"/>
                <path id="Cylinder_body-3" data-name="Cylinder body" d="M2493.976,64.521v.206a.954.954,0,0,1-.565.8,3.009,3.009,0,0,1-2.725,0,.963.963,0,0,1-.563-.776V64.54a.963.963,0,0,0,.563.776,3.009,3.009,0,0,0,2.725,0A.95.95,0,0,0,2493.976,64.521Z" transform="translate(-2490.123 -63.419)" fill="#3d3a39"/>
              </g>
              <g id="Axonometric_Cylinder-4" data-name="Axonometric Cylinder">
                <path id="Cylinder_face-4" data-name="Cylinder face" d="M2487.568,56.016a3.008,3.008,0,0,0-1.362,2.359c0,.869.608,1.22,1.362.786a3.007,3.007,0,0,0,1.362-2.359C2488.93,55.933,2488.32,55.581,2487.568,56.016Z" transform="translate(-2486.027 -55.726)" fill="#302e2d"/>
                <path id="Cylinder_body-4" data-name="Cylinder body" d="M2488.606,55.964l-.179-.1a.95.95,0,0,0-.973.09,3.006,3.006,0,0,0-1.36,2.359.961.961,0,0,0,.39.876l.179.1a.964.964,0,0,1-.389-.877,3.008,3.008,0,0,1,1.362-2.359A.947.947,0,0,1,2488.606,55.964Z" transform="translate(-2486.095 -55.765)" fill="#3d3a39"/>
              </g>
              <path id="Trazado_297019" data-name="Trazado 297019" d="M2495.125,61.009a7.49,7.49,0,0,0-2.74-2.743l-3.639-2.1c-1.559-.9-3.12,2.331-1.98,2.988l3.829,2.212a3.926,3.926,0,0,1,1.958,3.391v4.63c0,1.734,3.579,1.488,3.579.066v-4.7A7.5,7.5,0,0,0,2495.125,61.009Z" transform="translate(-2485.924 -55.618)" fill="#3d3a39"/>
            </g>
          </g>
          <g id="Grupo_840580" data-name="Grupo 840580" transform="translate(0 10.088)">
            <g id="Grupo_840579" data-name="Grupo 840579">
              <g id="Axonometric_Cylinder-5" data-name="Axonometric Cylinder" transform="translate(6.486 12.995)">
                <path id="Cylinder_face-5" data-name="Cylinder face" d="M2487.985,68.869a3.018,3.018,0,0,1-2.724,0,.83.83,0,0,1,0-1.573,3.008,3.008,0,0,1,2.724,0A.83.83,0,0,1,2487.985,68.869Z" transform="translate(-2484.697 -66.969)" fill="#4a4846"/>
                <path id="Cylinder_body-5" data-name="Cylinder body" d="M2488.548,67.654v.206a.953.953,0,0,1-.564.8,3.007,3.007,0,0,1-2.724,0,.957.957,0,0,1-.564-.776v-.208a.962.962,0,0,0,.564.778,3.017,3.017,0,0,0,2.724,0A.953.953,0,0,0,2488.548,67.654Z" transform="translate(-2484.696 -66.552)" fill="#3d3a39"/>
              </g>
              <g id="Axonometric_Cylinder-6" data-name="Axonometric Cylinder">
                <path id="Cylinder_face-6" data-name="Cylinder face" d="M2482.141,59.149a3.012,3.012,0,0,0-1.362,2.359c0,.869.61,1.22,1.362.786a3.007,3.007,0,0,0,1.362-2.359C2483.5,59.066,2482.893,58.714,2482.141,59.149Z" transform="translate(-2480.6 -58.859)" fill="#302e2d"/>
                <path id="Cylinder_body-6" data-name="Cylinder body" d="M2483.181,59.1l-.18-.1a.947.947,0,0,0-.971.09,3.008,3.008,0,0,0-1.362,2.359.961.961,0,0,0,.389.876l.179.1a.963.963,0,0,1-.39-.876,3.012,3.012,0,0,1,1.362-2.359A.95.95,0,0,1,2483.181,59.1Z" transform="translate(-2480.668 -58.898)" fill="#3d3a39"/>
              </g>
              <path id="Trazado_297020" data-name="Trazado 297020" d="M2489.7,64.144a7.471,7.471,0,0,0-2.74-2.745l-3.639-2.1c-1.559-.9-3.12,2.331-1.98,2.99l3.831,2.211a3.926,3.926,0,0,1,1.958,3.391v4.63c0,1.734,3.579,1.488,3.579.066v-4.7A7.5,7.5,0,0,0,2489.7,64.144Z" transform="translate(-2480.497 -58.751)" fill="#3d3a39"/>
            </g>
          </g>
        </g>
      </g>
      <g id="Grupo_840625" data-name="Grupo 840625" transform="translate(0.719 28.445)">
        <g id="Grupo_840617" data-name="Grupo 840617">
          <g id="Axonometric_Cube-2" data-name="Axonometric Cube">
            <g id="Grupo_840583" data-name="Grupo 840583" transform="translate(0 23.074)">
              <path id="Trazado_297021" data-name="Trazado 297021" d="M2450.911,77.438l-20.764-11.988V86.431l20.764,11.988Z" transform="translate(-2430.147 -65.449)" fill="#cec4b7"/>
            </g>
            <path id="Cube_face_-_right-2" data-name="Cube face - right" d="M2483.01,79.545l-39.966,23.074V81.638l39.966-23.074Z" transform="translate(-2422.281 -46.576)" fill="url(#linear-gradient)"/>
            <path id="Cube_face_-_top-2" data-name="Cube face - top" d="M2450.911,86.18l-20.764-11.988,39.966-23.074,20.764,11.988Z" transform="translate(-2430.147 -51.118)" fill="#f2e8df"/>
            <path id="Trazado_297022" data-name="Trazado 297022" d="M2431.071,73.866l38.479-22.215,19.276,11.13L2450.348,85Z" transform="translate(-2429.584 -50.793)" fill="#5b5651"/>
            <path id="Trazado_297023" data-name="Trazado 297023" d="M2469.55,54.3l16.982,9.805,2.294-1.324-19.276-11.13-38.479,22.215,2.294,1.324Z" transform="translate(-2429.584 -50.793)" fill="#cec4b7"/>
            <path id="Trazado_297024" data-name="Trazado 297024" d="M2469.55,54.3V51.651l-38.479,22.215,2.294,1.324Z" transform="translate(-2429.584 -50.793)" fill="#ded3c9"/>
          </g>
          <g id="Grupo_840616" data-name="Grupo 840616" transform="translate(2.649 29.704)">
            <g id="Grupo_840591" data-name="Grupo 840591">
              <g id="Grupo_840590" data-name="Grupo 840590">
                <g id="Grupo_840589" data-name="Grupo 840589">
                  <g id="Grupo_840588" data-name="Grupo 840588">
                    <g id="Grupo_840587" data-name="Grupo 840587">
                      <g id="Grupo_840586" data-name="Grupo 840586">
                        <g id="Grupo_840585" data-name="Grupo 840585">
                          <g id="Grupo_840584" data-name="Grupo 840584" transform="translate(0.145 0.084)">
                            <path id="Trazado_297025" data-name="Trazado 297025" d="M2431.883,69.62V73.1l3.332,1.924V71.544Z" transform="translate(-2431.883 -69.62)" fill="#4c4441"/>
                          </g>
                          <path id="Trazado_297026" data-name="Trazado 297026" d="M2431.817,71.694l3.457,2v.259l-3.48-2.009Z" transform="translate(-2431.793 -68.27)" fill="#ded3c9"/>
                          <path id="Trazado_297027" data-name="Trazado 297027" d="M2431.793,69.568v3.67l.225-.13V69.7Z" transform="translate(-2431.793 -69.568)" fill="#b5aba0"/>
                        </g>
                      </g>
                    </g>
                  </g>
                </g>
              </g>
            </g>
            <g id="Grupo_840599" data-name="Grupo 840599" transform="translate(3.924 2.266)">
              <g id="Grupo_840598" data-name="Grupo 840598">
                <g id="Grupo_840597" data-name="Grupo 840597">
                  <g id="Grupo_840596" data-name="Grupo 840596">
                    <g id="Grupo_840595" data-name="Grupo 840595">
                      <g id="Grupo_840594" data-name="Grupo 840594">
                        <g id="Grupo_840593" data-name="Grupo 840593">
                          <g id="Grupo_840592" data-name="Grupo 840592" transform="translate(0.146 0.084)">
                            <path id="Trazado_297028" data-name="Trazado 297028" d="M2434.321,71.027V74.5l3.332,1.924V72.951Z" transform="translate(-2434.321 -71.027)" fill="#4c4441"/>
                          </g>
                          <path id="Trazado_297029" data-name="Trazado 297029" d="M2434.255,73.1l3.457,2v.259l-3.48-2.009Z" transform="translate(-2434.23 -69.678)" fill="#ded3c9"/>
                          <path id="Trazado_297030" data-name="Trazado 297030" d="M2434.23,70.975v3.67l.226-.13V71.105Z" transform="translate(-2434.23 -70.975)" fill="#b5aba0"/>
                        </g>
                      </g>
                    </g>
                  </g>
                </g>
              </g>
            </g>
            <g id="Grupo_840607" data-name="Grupo 840607" transform="translate(7.848 4.531)">
              <g id="Grupo_840606" data-name="Grupo 840606">
                <g id="Grupo_840605" data-name="Grupo 840605">
                  <g id="Grupo_840604" data-name="Grupo 840604">
                    <g id="Grupo_840603" data-name="Grupo 840603">
                      <g id="Grupo_840602" data-name="Grupo 840602">
                        <g id="Grupo_840601" data-name="Grupo 840601">
                          <g id="Grupo_840600" data-name="Grupo 840600" transform="translate(0.145 0.084)">
                            <path id="Trazado_297031" data-name="Trazado 297031" d="M2436.758,72.434v3.476l3.332,1.924V74.359Z" transform="translate(-2436.758 -72.434)" fill="#4c4441"/>
                          </g>
                          <path id="Trazado_297032" data-name="Trazado 297032" d="M2436.692,74.509l3.457,2v.259l-3.48-2.009Z" transform="translate(-2436.667 -71.085)" fill="#ded3c9"/>
                          <path id="Trazado_297033" data-name="Trazado 297033" d="M2436.668,72.382v3.67l.226-.13V72.512Z" transform="translate(-2436.668 -72.382)" fill="#b5aba0"/>
                        </g>
                      </g>
                    </g>
                  </g>
                </g>
              </g>
            </g>
            <g id="Grupo_840615" data-name="Grupo 840615" transform="translate(11.773 6.797)">
              <g id="Grupo_840614" data-name="Grupo 840614">
                <g id="Grupo_840613" data-name="Grupo 840613">
                  <g id="Grupo_840612" data-name="Grupo 840612">
                    <g id="Grupo_840611" data-name="Grupo 840611">
                      <g id="Grupo_840610" data-name="Grupo 840610">
                        <g id="Grupo_840609" data-name="Grupo 840609">
                          <g id="Grupo_840608" data-name="Grupo 840608" transform="translate(0.146 0.084)">
                            <path id="Trazado_297034" data-name="Trazado 297034" d="M2439.2,73.842v3.476l3.332,1.924V75.766Z" transform="translate(-2439.196 -73.842)" fill="#4c4441"/>
                          </g>
                          <path id="Trazado_297035" data-name="Trazado 297035" d="M2439.129,75.916l3.457,2v.259l-3.48-2.009Z" transform="translate(-2439.104 -72.492)" fill="#ded3c9"/>
                          <path id="Trazado_297036" data-name="Trazado 297036" d="M2439.105,73.789v3.67l.226-.13V73.92Z" transform="translate(-2439.105 -73.789)" fill="#b5aba0"/>
                        </g>
                      </g>
                    </g>
                  </g>
                </g>
              </g>
            </g>
          </g>
        </g>
        <g id="Grupo_840624" data-name="Grupo 840624" transform="translate(32.07 30.883)">
          <g id="Grupo_840619" data-name="Grupo 840619" transform="translate(17.474)">
            <g id="Grupo_840618" data-name="Grupo 840618">
              <g id="Axonometric_Cylinder-7" data-name="Axonometric Cylinder" transform="translate(6.486 12.994)">
                <path id="Cylinder_face-7" data-name="Cylinder face" d="M2468.237,80.27a3.008,3.008,0,0,1-2.724,0,.83.83,0,0,1,0-1.573,3.008,3.008,0,0,1,2.724,0A.83.83,0,0,1,2468.237,80.27Z" transform="translate(-2464.949 -78.37)" fill="#4a4846"/>
                <path id="Cylinder_body-7" data-name="Cylinder body" d="M2468.8,79.055v.208a.95.95,0,0,1-.563.8,3.008,3.008,0,0,1-2.724,0,.962.962,0,0,1-.564-.776v-.206a.964.964,0,0,0,.564.776,3.008,3.008,0,0,0,2.724,0A.952.952,0,0,0,2468.8,79.055Z" transform="translate(-2464.948 -77.953)" fill="#3d3a39"/>
              </g>
              <g id="Axonometric_Cylinder-8" data-name="Axonometric Cylinder">
                <path id="Cylinder_face-8" data-name="Cylinder face" d="M2462.393,70.549a3.012,3.012,0,0,0-1.362,2.359c0,.869.61,1.222,1.362.787a3.008,3.008,0,0,0,1.362-2.359C2463.755,70.467,2463.146,70.116,2462.393,70.549Z" transform="translate(-2460.852 -70.26)" fill="#302e2d"/>
                <path id="Cylinder_body-8" data-name="Cylinder body" d="M2463.433,70.5l-.178-.1a.954.954,0,0,0-.973.09,3.013,3.013,0,0,0-1.362,2.359.968.968,0,0,0,.39.877l.18.1a.965.965,0,0,1-.391-.877,3.012,3.012,0,0,1,1.362-2.359A.954.954,0,0,1,2463.433,70.5Z" transform="translate(-2460.92 -70.3)" fill="#3d3a39"/>
              </g>
              <path id="Trazado_297037" data-name="Trazado 297037" d="M2469.952,75.545a7.5,7.5,0,0,0-2.742-2.745l-3.639-2.1c-1.559-.9-3.12,2.331-1.98,2.99l3.83,2.211a3.926,3.926,0,0,1,1.958,3.391v4.632c0,1.732,3.579,1.486,3.579.064v-4.7A7.5,7.5,0,0,0,2469.952,75.545Z" transform="translate(-2460.749 -70.152)" fill="#3d3a39"/>
            </g>
          </g>
          <g id="Grupo_840621" data-name="Grupo 840621" transform="translate(8.738 5.044)">
            <g id="Grupo_840620" data-name="Grupo 840620">
              <g id="Axonometric_Cylinder-9" data-name="Axonometric Cylinder" transform="translate(6.485 12.995)">
                <ellipse id="Cylinder_face-9" data-name="Cylinder face" cx="1.926" cy="1.112" rx="1.926" ry="1.112" fill="#4a4846"/>
                <path id="Cylinder_body-9" data-name="Cylinder body" d="M2463.375,82.188V82.4a.951.951,0,0,1-.565.8,3.008,3.008,0,0,1-2.724,0,.964.964,0,0,1-.563-.776v-.206a.964.964,0,0,0,.563.776,3.008,3.008,0,0,0,2.724,0A.955.955,0,0,0,2463.375,82.188Z" transform="translate(-2459.522 -81.086)" fill="#3d3a39"/>
              </g>
              <g id="Axonometric_Cylinder-10" data-name="Axonometric Cylinder">
                <path id="Cylinder_face-10" data-name="Cylinder face" d="M2456.967,73.682a3.013,3.013,0,0,0-1.362,2.36c0,.868.61,1.22,1.362.786a3.013,3.013,0,0,0,1.362-2.359C2458.329,73.6,2457.719,73.249,2456.967,73.682Z" transform="translate(-2455.426 -73.393)" fill="#302e2d"/>
                <path id="Cylinder_body-10" data-name="Cylinder body" d="M2458.005,73.631l-.178-.1a.954.954,0,0,0-.972.09,3.011,3.011,0,0,0-1.361,2.359.963.963,0,0,0,.39.877l.178.1a.963.963,0,0,1-.389-.876,3.013,3.013,0,0,1,1.362-2.36A.951.951,0,0,1,2458.005,73.631Z" transform="translate(-2455.494 -73.433)" fill="#3d3a39"/>
              </g>
              <path id="Trazado_297038" data-name="Trazado 297038" d="M2464.524,78.678a7.493,7.493,0,0,0-2.74-2.745l-3.639-2.1c-1.559-.9-3.12,2.331-1.98,2.99l3.828,2.211a3.926,3.926,0,0,1,1.958,3.391v4.632c0,1.734,3.579,1.486,3.579.064v-4.7A7.5,7.5,0,0,0,2464.524,78.678Z" transform="translate(-2455.323 -73.285)" fill="#3d3a39"/>
            </g>
          </g>
          <g id="Grupo_840623" data-name="Grupo 840623" transform="translate(0 10.088)">
            <g id="Grupo_840622" data-name="Grupo 840622">
              <g id="Axonometric_Cylinder-11" data-name="Axonometric Cylinder" transform="translate(6.486 12.995)">
                <ellipse id="Cylinder_face-11" data-name="Cylinder face" cx="1.926" cy="1.112" rx="1.926" ry="1.112" fill="#4a4846"/>
                <path id="Cylinder_body-11" data-name="Cylinder body" d="M2457.947,85.321v.208a.948.948,0,0,1-.563.8,3.008,3.008,0,0,1-2.724,0,.958.958,0,0,1-.564-.776v-.206a.958.958,0,0,0,.564.776,3.008,3.008,0,0,0,2.724,0A.95.95,0,0,0,2457.947,85.321Z" transform="translate(-2454.095 -84.22)" fill="#3d3a39"/>
              </g>
              <g id="Axonometric_Cylinder-12" data-name="Axonometric Cylinder">
                <path id="Cylinder_face-12" data-name="Cylinder face" d="M2451.54,76.815a3.013,3.013,0,0,0-1.362,2.36c0,.868.61,1.22,1.362.786A3.013,3.013,0,0,0,2452.9,77.6C2452.9,76.733,2452.292,76.382,2451.54,76.815Z" transform="translate(-2449.999 -76.526)" fill="#302e2d"/>
                <path id="Cylinder_body-12" data-name="Cylinder body" d="M2452.58,76.764l-.178-.1a.954.954,0,0,0-.973.09,3.013,3.013,0,0,0-1.362,2.359.963.963,0,0,0,.39.877l.179.1a.966.966,0,0,1-.39-.876,3.013,3.013,0,0,1,1.362-2.36A.958.958,0,0,1,2452.58,76.764Z" transform="translate(-2450.067 -76.566)" fill="#3d3a39"/>
              </g>
              <path id="Trazado_297039" data-name="Trazado 297039" d="M2459.1,81.811a7.482,7.482,0,0,0-2.74-2.745l-3.639-2.1c-1.559-.9-3.12,2.331-1.98,2.99l3.83,2.211a3.926,3.926,0,0,1,1.958,3.391v4.632c0,1.734,3.579,1.486,3.579.064v-4.7A7.5,7.5,0,0,0,2459.1,81.811Z" transform="translate(-2449.896 -76.418)" fill="#3d3a39"/>
            </g>
          </g>
        </g>
      </g>
    </g>
  </g>
</svg>
