<svg id="Grupo_840096" data-name="Grupo 840096" xmlns="http://www.w3.org/2000/svg" width="297.015" height="175.449" viewBox="0 0 297.015 175.449">
  <g id="Grupo_840100" data-name="Grupo 840100">
    <g id="Grupo_840099" data-name="Grupo 840099" style="isolation: isolate">
      <g id="Grupo_840096-2" data-name="Grupo 840096" transform="translate(136.274 78.678)">
        <path id="Trazado_296465" data-name="Trazado 296465" d="M2008.074,62.656l-.009,3.364-160.731,93.407.01-3.365Z" transform="translate(-1847.333 -62.656)" fill="#727997"/>
      </g>
      <g id="Grupo_840097" data-name="Grupo 840097" transform="translate(0 93.407)">
        <path id="Trazado_296466" data-name="Trazado 296466" d="M1919.333,148.281l-.01,3.365L1783.049,72.968l.01-3.364Z" transform="translate(-1783.049 -69.603)" fill="#727997"/>
      </g>
      <g id="Grupo_840098" data-name="Grupo 840098" transform="translate(0.01)">
        <path id="Trazado_296467" data-name="Trazado 296467" d="M2080.059,104.219l-160.731,93.406-136.274-78.678,160.731-93.407Z" transform="translate(-1783.054 -25.541)" fill="#b0c0d2"/>
      </g>
    </g>
  </g>
  <path id="Trazado_296468" data-name="Trazado 296468" d="M1846.01,175.037H1858.2l138.025-80.472-104.76-58.408Z" transform="translate(-1712.541 -13.653)" fill="#bdc4df" style="mix-blend-mode: multiply;isolation: isolate"/>
  <g id="Grupo_840269" data-name="Grupo 840269" transform="translate(21.335 2.553)">
    <g id="Grupo_840189" data-name="Grupo 840189" transform="translate(0.007)">
      <g id="Grupo_840105" data-name="Grupo 840105" transform="translate(0 6.827)">
        <g id="Grupo_840104" data-name="Grupo 840104" style="isolation: isolate">
          <g id="Grupo_840101" data-name="Grupo 840101" transform="translate(11.477 6.627)">
            <path id="Trazado_296469" data-name="Trazado 296469" d="M1940.443,33.092l0,1.709-141.907,81.887,0-1.709Z" transform="translate(-1798.531 -33.092)" fill="#d69617"/>
          </g>
          <g id="Grupo_840102" data-name="Grupo 840102" transform="translate(0 81.888)">
            <path id="Trazado_296470" data-name="Trazado 296470" d="M1804.6,75.221l0,1.709L1793.117,70.3l.005-1.709Z" transform="translate(-1793.117 -68.594)" fill="#d3891a"/>
          </g>
          <g id="Grupo_840103" data-name="Grupo 840103" transform="translate(0.005)">
            <path id="Trazado_296471" data-name="Trazado 296471" d="M1946.5,36.593,1804.6,118.48l-11.477-6.626,141.907-81.888Z" transform="translate(-1793.12 -29.966)" fill="#ffb806"/>
          </g>
        </g>
      </g>
      <g id="Grupo_840148" data-name="Grupo 840148" transform="translate(0.208)">
        <g id="Grupo_840122" data-name="Grupo 840122" transform="translate(85.593)">
          <g id="Grupo_840121" data-name="Grupo 840121" style="isolation: isolate">
            <g id="Grupo_840106" data-name="Grupo 840106" transform="translate(55.419 1.416)">
              <path id="Trazado_296472" data-name="Trazado 296472" d="M1860.274,27.728l-.541-.314.017,5.9.541.314Z" transform="translate(-1859.734 -27.414)" fill="#3d2d4a"/>
            </g>
            <g id="Grupo_840107" data-name="Grupo 840107" transform="translate(51.055 3.936)">
              <path id="Trazado_296473" data-name="Trazado 296473" d="M1858.216,28.916l-.541-.314.017,5.9.541.314Z" transform="translate(-1857.675 -28.602)" fill="#3d2d4a"/>
            </g>
            <g id="Grupo_840108" data-name="Grupo 840108" transform="translate(46.69 6.456)">
              <path id="Trazado_296474" data-name="Trazado 296474" d="M1856.156,30.106l-.541-.314.017,5.9.541.314Z" transform="translate(-1855.616 -29.791)" fill="#3d2d4a"/>
            </g>
            <g id="Grupo_840109" data-name="Grupo 840109" transform="translate(42.325 8.976)">
              <path id="Trazado_296475" data-name="Trazado 296475" d="M1854.1,31.294l-.541-.314.017,5.9.541.314Z" transform="translate(-1853.557 -30.98)" fill="#3d2d4a"/>
            </g>
            <g id="Grupo_840110" data-name="Grupo 840110" transform="translate(37.962 11.495)">
              <path id="Trazado_296476" data-name="Trazado 296476" d="M1852.039,32.483l-.54-.314.016,5.9.541.314Z" transform="translate(-1851.499 -32.168)" fill="#3d2d4a"/>
            </g>
            <g id="Grupo_840111" data-name="Grupo 840111" transform="translate(33.596 14.015)">
              <path id="Trazado_296477" data-name="Trazado 296477" d="M1849.98,33.671l-.541-.314.017,5.9.54.314Z" transform="translate(-1849.439 -33.357)" fill="#3d2d4a"/>
            </g>
            <g id="Grupo_840112" data-name="Grupo 840112" transform="translate(29.232 16.535)">
              <path id="Trazado_296478" data-name="Trazado 296478" d="M1847.922,34.86l-.541-.314.016,5.9.541.314Z" transform="translate(-1847.381 -34.546)" fill="#3d2d4a"/>
            </g>
            <g id="Grupo_840113" data-name="Grupo 840113" transform="translate(24.868 19.055)">
              <path id="Trazado_296479" data-name="Trazado 296479" d="M1845.863,36.049l-.541-.314.017,5.9.541.314Z" transform="translate(-1845.322 -35.734)" fill="#3d2d4a"/>
            </g>
            <g id="Grupo_840114" data-name="Grupo 840114" transform="translate(20.503 21.575)">
              <path id="Trazado_296480" data-name="Trazado 296480" d="M1843.8,37.237l-.541-.314.016,5.9.541.314Z" transform="translate(-1843.263 -36.923)" fill="#3d2d4a"/>
            </g>
            <g id="Grupo_840115" data-name="Grupo 840115" transform="translate(16.139 24.094)">
              <path id="Trazado_296481" data-name="Trazado 296481" d="M1841.746,38.426l-.541-.314.017,5.9.54.314Z" transform="translate(-1841.204 -38.112)" fill="#3d2d4a"/>
            </g>
            <g id="Grupo_840116" data-name="Grupo 840116" transform="translate(11.775 26.614)">
              <path id="Trazado_296482" data-name="Trazado 296482" d="M1839.687,39.614l-.541-.314.017,5.9.541.314Z" transform="translate(-1839.146 -39.3)" fill="#3d2d4a"/>
            </g>
            <g id="Grupo_840117" data-name="Grupo 840117" transform="translate(7.41 29.134)">
              <path id="Trazado_296483" data-name="Trazado 296483" d="M1837.628,40.8l-.541-.314.017,5.9.541.314Z" transform="translate(-1837.086 -40.489)" fill="#3d2d4a"/>
            </g>
            <g id="Grupo_840118" data-name="Grupo 840118" transform="translate(3.046 31.654)">
              <path id="Trazado_296484" data-name="Trazado 296484" d="M1835.569,41.992l-.541-.314.017,5.9.541.314Z" transform="translate(-1835.028 -41.677)" fill="#3d2d4a"/>
            </g>
            <g id="Grupo_840119" data-name="Grupo 840119" transform="translate(0 0.314)">
              <path id="Trazado_296485" data-name="Trazado 296485" d="M1833.591,59.578,1890.2,26.894l0,1.039.017,5.9-.654.378-.017-5.9-3.71,2.142.017,5.9-.654.378-.017-5.9-3.711,2.143.017,5.9-.654.377-.017-5.9-3.71,2.142.017,5.9-.654.378-.017-5.9-3.71,2.142.017,5.9-.654.378-.017-5.9-3.711,2.143.017,5.9-.654.378-.017-5.9-3.71,2.142.016,5.9-.654.378-.017-5.9-3.71,2.142.017,5.9-.654.378-.016-5.9-3.711,2.143.017,5.9-.654.378-.017-5.9-3.71,2.142.017,5.9-.654.378-.017-5.9-3.71,2.142.016,5.9-.654.378-.017-5.9L1842.2,55.65l.017,5.9-.654.378-.017-5.9-3.71,2.142.017,5.9-.654.378-.017-5.9-3.587,2.07Z" transform="translate(-1833.591 -26.894)" fill="#5a4b66"/>
            </g>
            <g id="Grupo_840120" data-name="Grupo 840120">
              <path id="Trazado_296486" data-name="Trazado 296486" d="M1833.591,59.117l56.07-32.372.541.314-56.611,32.684Z" transform="translate(-1833.591 -26.746)" fill="#715f7f"/>
            </g>
          </g>
        </g>
        <g id="Grupo_840147" data-name="Grupo 840147" transform="translate(0 30.605)">
          <g id="Grupo_840146" data-name="Grupo 840146" style="isolation: isolate">
            <g id="Grupo_840123" data-name="Grupo 840123" transform="translate(84.398 3.489)">
              <path id="Trazado_296487" data-name="Trazado 296487" d="M1833.568,43.143l-.541-.314.017,5.9.541.314Z" transform="translate(-1833.027 -42.829)" fill="#3d2d4a"/>
            </g>
            <g id="Grupo_840124" data-name="Grupo 840124" transform="translate(80.032 6.009)">
              <path id="Trazado_296488" data-name="Trazado 296488" d="M1831.509,44.332l-.541-.314.017,5.9.541.314Z" transform="translate(-1830.969 -44.018)" fill="#3d2d4a"/>
            </g>
            <g id="Grupo_840125" data-name="Grupo 840125" transform="translate(75.668 8.529)">
              <path id="Trazado_296489" data-name="Trazado 296489" d="M1829.451,45.52l-.541-.314.017,5.9.54.314Z" transform="translate(-1828.91 -45.206)" fill="#3d2d4a"/>
            </g>
            <g id="Grupo_840126" data-name="Grupo 840126" transform="translate(71.304 11.048)">
              <path id="Trazado_296490" data-name="Trazado 296490" d="M1827.392,46.709l-.541-.314.017,5.9.54.314Z" transform="translate(-1826.851 -46.395)" fill="#3d2d4a"/>
            </g>
            <g id="Grupo_840127" data-name="Grupo 840127" transform="translate(66.939 13.569)">
              <path id="Trazado_296491" data-name="Trazado 296491" d="M1825.333,47.9l-.541-.314.017,5.9.541.314Z" transform="translate(-1824.792 -47.584)" fill="#3d2d4a"/>
            </g>
            <g id="Grupo_840128" data-name="Grupo 840128" transform="translate(62.575 16.088)">
              <path id="Trazado_296492" data-name="Trazado 296492" d="M1823.274,49.086l-.541-.314.017,5.9.541.314Z" transform="translate(-1822.733 -48.772)" fill="#3d2d4a"/>
            </g>
            <g id="Grupo_840129" data-name="Grupo 840129" transform="translate(58.211 18.608)">
              <path id="Trazado_296493" data-name="Trazado 296493" d="M1821.216,50.275l-.541-.314.016,5.9.541.314Z" transform="translate(-1820.675 -49.961)" fill="#3d2d4a"/>
            </g>
            <g id="Grupo_840130" data-name="Grupo 840130" transform="translate(53.846 21.128)">
              <path id="Trazado_296494" data-name="Trazado 296494" d="M1819.156,51.464l-.541-.314.017,5.9.541.314Z" transform="translate(-1818.615 -51.149)" fill="#3d2d4a"/>
            </g>
            <g id="Grupo_840131" data-name="Grupo 840131" transform="translate(49.482 23.648)">
              <path id="Trazado_296495" data-name="Trazado 296495" d="M1817.1,52.652l-.54-.314.016,5.9.541.314Z" transform="translate(-1816.557 -52.338)" fill="#3d2d4a"/>
            </g>
            <g id="Grupo_840132" data-name="Grupo 840132" transform="translate(45.116 26.168)">
              <path id="Trazado_296496" data-name="Trazado 296496" d="M1815.038,53.841l-.541-.314.017,5.9.541.314Z" transform="translate(-1814.498 -53.527)" fill="#3d2d4a"/>
            </g>
            <g id="Grupo_840133" data-name="Grupo 840133" transform="translate(40.753 28.687)">
              <path id="Trazado_296497" data-name="Trazado 296497" d="M1812.98,55.03l-.54-.314.016,5.9.541.314Z" transform="translate(-1812.439 -54.715)" fill="#3d2d4a"/>
            </g>
            <g id="Grupo_840134" data-name="Grupo 840134" transform="translate(36.389 31.207)">
              <path id="Trazado_296498" data-name="Trazado 296498" d="M1810.921,56.218l-.541-.314.016,5.9.541.314Z" transform="translate(-1810.381 -55.904)" fill="#3d2d4a"/>
            </g>
            <g id="Grupo_840135" data-name="Grupo 840135" transform="translate(32.023 33.727)">
              <path id="Trazado_296499" data-name="Trazado 296499" d="M1808.862,57.407l-.541-.314.017,5.9.541.314Z" transform="translate(-1808.321 -57.093)" fill="#3d2d4a"/>
            </g>
            <g id="Grupo_840136" data-name="Grupo 840136" transform="translate(27.659 36.247)">
              <path id="Trazado_296500" data-name="Trazado 296500" d="M1806.8,58.6l-.541-.314.017,5.9.541.314Z" transform="translate(-1806.263 -58.281)" fill="#3d2d4a"/>
            </g>
            <g id="Grupo_840137" data-name="Grupo 840137" transform="translate(23.295 38.766)">
              <path id="Trazado_296501" data-name="Trazado 296501" d="M1804.745,59.784l-.541-.314.017,5.9.541.314Z" transform="translate(-1804.204 -59.47)" fill="#3d2d4a"/>
            </g>
            <g id="Grupo_840138" data-name="Grupo 840138" transform="translate(18.93 41.287)">
              <path id="Trazado_296502" data-name="Trazado 296502" d="M1802.686,60.973l-.541-.314.017,5.9.541.314Z" transform="translate(-1802.145 -60.659)" fill="#3d2d4a"/>
            </g>
            <g id="Grupo_840139" data-name="Grupo 840139" transform="translate(14.566 43.806)">
              <path id="Trazado_296503" data-name="Trazado 296503" d="M1800.627,62.161l-.541-.314.017,5.9.541.314Z" transform="translate(-1800.086 -61.847)" fill="#3d2d4a"/>
            </g>
            <g id="Grupo_840140" data-name="Grupo 840140" transform="translate(10.202 46.326)">
              <path id="Trazado_296504" data-name="Trazado 296504" d="M1798.569,63.35l-.541-.314.017,5.9.541.314Z" transform="translate(-1798.028 -63.036)" fill="#3d2d4a"/>
            </g>
            <g id="Grupo_840141" data-name="Grupo 840141" transform="translate(5.837 48.846)">
              <path id="Trazado_296505" data-name="Trazado 296505" d="M1796.51,64.539l-.541-.314.017,5.9.541.314Z" transform="translate(-1795.969 -64.225)" fill="#3d2d4a"/>
            </g>
            <g id="Grupo_840142" data-name="Grupo 840142" transform="translate(0.003 52.214)">
              <path id="Trazado_296506" data-name="Trazado 296506" d="M1793.758,66.128l-.541-.314.017,5.9.541.314Z" transform="translate(-1793.217 -65.813)" fill="#3d2d4a"/>
            </g>
            <g id="Grupo_840143" data-name="Grupo 840143" transform="translate(0.541 0.627)">
              <path id="Trazado_296507" data-name="Trazado 296507" d="M1881.568,41.478v1.04l-3.046,1.758.017,5.9-.654.378-.017-5.9-3.711,2.143.017,5.9-.654.378-.017-5.9-3.71,2.142.017,5.9-.654.378-.016-5.9-3.71,2.142.016,5.9-.654.378-.017-5.9-3.711,2.143.017,5.9-.654.378-.017-5.9-3.71,2.142.017,5.9-.654.378-.017-5.9-3.71,2.142.017,5.9-.654.378-.016-5.9-3.711,2.143.016,5.9-.654.378-.017-5.9-3.71,2.142.017,5.9-.654.378-.017-5.9-3.71,2.142.017,5.9-.655.378-.017-5.9-.308.178-3.4,1.964.017,5.9-.654.378-.017-5.9L1830.513,72l.017,5.9-.654.378-.017-5.9-3.71,2.142.017,5.9-.655.378-.016-5.9-3.71,2.142.017,5.9-.654.378-.017-5.9-3.71,2.142.017,5.9-.654.378-.017-5.9-3.71,2.142.017,5.9-.655.378-.017-5.9-3.71,2.142.016,5.9-.654.378-.017-5.9-3.71,2.142.017,5.9-.654.377-.017-5.9-3.71,2.142.017,5.9-.655.378-.017-5.9L1794.127,93l.017,5.9-.654.377-.017-5.9,0-1.039Z" transform="translate(-1793.47 -41.478)" fill="#5a4b66"/>
            </g>
            <g id="Grupo_840144" data-name="Grupo 840144" transform="translate(0 51.176)">
              <path id="Trazado_296508" data-name="Trazado 296508" d="M1793.756,65.638l-.541-.314,0,1.039.541.314Z" transform="translate(-1793.215 -65.324)" fill="#3d2d4a"/>
            </g>
            <g id="Grupo_840145" data-name="Grupo 840145">
              <path id="Trazado_296509" data-name="Trazado 296509" d="M1881.854,41.183v.627l-88.1,50.863-.541-.314Z" transform="translate(-1793.215 -41.183)" fill="#715f7f"/>
            </g>
          </g>
        </g>
      </g>
      <g id="Grupo_840168" data-name="Grupo 840168" transform="translate(91.891 6.281)">
        <g id="Grupo_840167" data-name="Grupo 840167" style="isolation: isolate">
          <g id="Grupo_840149" data-name="Grupo 840149" transform="translate(60.307 1.398)">
            <path id="Trazado_296510" data-name="Trazado 296510" d="M1865.446,30.678l-.534-.31.017,5.828.534.31Z" transform="translate(-1864.912 -30.368)" fill="#3d2d4a"/>
          </g>
          <g id="Grupo_840150" data-name="Grupo 840150" transform="translate(60.841 1.708)">
            <path id="Trazado_296511" data-name="Trazado 296511" d="M1865.181,36.344l-.017-5.83Z" transform="translate(-1865.164 -30.514)" fill="#3d2d4a"/>
          </g>
          <g id="Grupo_840151" data-name="Grupo 840151" transform="translate(55.999 3.885)">
            <path id="Trazado_296512" data-name="Trazado 296512" d="M1863.414,31.851l-.534-.31.016,5.828.534.31Z" transform="translate(-1862.88 -31.541)" fill="#3d2d4a"/>
          </g>
          <g id="Grupo_840152" data-name="Grupo 840152" transform="translate(51.69 6.373)">
            <path id="Trazado_296513" data-name="Trazado 296513" d="M1861.381,33.025l-.534-.31.016,5.828.534.31Z" transform="translate(-1860.847 -32.715)" fill="#3d2d4a"/>
          </g>
          <g id="Grupo_840153" data-name="Grupo 840153" transform="translate(47.383 8.86)">
            <path id="Trazado_296514" data-name="Trazado 296514" d="M1859.349,34.2l-.534-.31.016,5.828.534.31Z" transform="translate(-1858.816 -33.888)" fill="#3d2d4a"/>
          </g>
          <g id="Grupo_840154" data-name="Grupo 840154" transform="translate(43.075 11.347)">
            <path id="Trazado_296515" data-name="Trazado 296515" d="M1857.317,35.371l-.534-.31.017,5.828.534.31Z" transform="translate(-1856.783 -35.061)" fill="#3d2d4a"/>
          </g>
          <g id="Grupo_840155" data-name="Grupo 840155" transform="translate(38.766 13.835)">
            <path id="Trazado_296516" data-name="Trazado 296516" d="M1855.285,36.545l-.534-.31.017,5.828.534.31Z" transform="translate(-1854.751 -36.235)" fill="#3d2d4a"/>
          </g>
          <g id="Grupo_840156" data-name="Grupo 840156" transform="translate(34.458 16.322)">
            <path id="Trazado_296517" data-name="Trazado 296517" d="M1853.253,37.718l-.534-.31.016,5.828.534.31Z" transform="translate(-1852.719 -37.408)" fill="#3d2d4a"/>
          </g>
          <g id="Grupo_840157" data-name="Grupo 840157" transform="translate(30.15 18.809)">
            <path id="Trazado_296518" data-name="Trazado 296518" d="M1851.22,38.891l-.534-.31.017,5.828.534.31Z" transform="translate(-1850.687 -38.581)" fill="#3d2d4a"/>
          </g>
          <g id="Grupo_840158" data-name="Grupo 840158" transform="translate(25.842 21.297)">
            <path id="Trazado_296519" data-name="Trazado 296519" d="M1849.188,40.065l-.534-.31.017,5.828.534.31Z" transform="translate(-1848.654 -39.755)" fill="#3d2d4a"/>
          </g>
          <g id="Grupo_840159" data-name="Grupo 840159" transform="translate(21.534 23.784)">
            <path id="Trazado_296520" data-name="Trazado 296520" d="M1847.156,41.238l-.534-.31.017,5.828.534.31Z" transform="translate(-1846.622 -40.928)" fill="#3d2d4a"/>
          </g>
          <g id="Grupo_840160" data-name="Grupo 840160" transform="translate(17.226 26.271)">
            <path id="Trazado_296521" data-name="Trazado 296521" d="M1845.124,42.411l-.533-.31.016,5.828.534.31Z" transform="translate(-1844.59 -42.101)" fill="#3d2d4a"/>
          </g>
          <g id="Grupo_840161" data-name="Grupo 840161" transform="translate(12.918 28.758)">
            <path id="Trazado_296522" data-name="Trazado 296522" d="M1843.091,43.585l-.533-.31.016,5.828.534.31Z" transform="translate(-1842.558 -43.275)" fill="#3d2d4a"/>
          </g>
          <g id="Grupo_840162" data-name="Grupo 840162" transform="translate(8.61 31.245)">
            <path id="Trazado_296523" data-name="Trazado 296523" d="M1841.059,44.758l-.533-.31.017,5.828.533.31Z" transform="translate(-1840.525 -44.448)" fill="#3d2d4a"/>
          </g>
          <g id="Grupo_840163" data-name="Grupo 840163" transform="translate(4.301 33.733)">
            <path id="Trazado_296524" data-name="Trazado 296524" d="M1839.026,45.932l-.533-.31.017,5.828.534.31Z" transform="translate(-1838.493 -45.621)" fill="#3d2d4a"/>
          </g>
          <g id="Grupo_840164" data-name="Grupo 840164" transform="translate(0 35.206)">
            <path id="Trazado_296525" data-name="Trazado 296525" d="M1837,46.626l-.534-.31.009,6.842.534.31Z" transform="translate(-1836.464 -46.316)" fill="#3d2d4a"/>
          </g>
          <g id="Grupo_840165" data-name="Grupo 840165" transform="translate(0.527 0.31)">
            <path id="Trazado_296526" data-name="Trazado 296526" d="M1836.719,65.061l-.007,1.014.017,5.828.646-.373-.016-5.828,3.357-1.938.3-.176.017,5.828.647-.373-.016-5.828,3.662-2.114.017,5.828.646-.373-.017-5.828,3.662-2.114.016,5.828.646-.373-.016-5.828,3.663-2.115.016,5.828.646-.373-.017-5.828,3.662-2.114.017,5.828.646-.373-.016-5.828,3.662-2.114.016,5.828.646-.373-.017-5.828,3.663-2.115.017,5.828.646-.373-.017-5.828,3.662-2.114.016,5.828.645-.373-.016-5.828,3.662-2.114.016,5.828.646-.373-.017-5.828,3.664-2.115.017,5.828.645-.373-.017-5.828,3.662-2.114.017,5.828.645-.373-.016-5.828,3.662-2.114.017,5.828.645-.373-.017-5.828,3.664-2.115.016,5.828.645-.372-.016-5.828,3.662-2.114.017,5.828.646-.373-.017-5.828,0-1.025Z" transform="translate(-1836.713 -29.855)" fill="#5a4b66"/>
          </g>
          <g id="Grupo_840166" data-name="Grupo 840166">
            <path id="Trazado_296527" data-name="Trazado 296527" d="M1897.948,30.019l-.534-.31-60.949,35.206.534.31Z" transform="translate(-1836.464 -29.709)" fill="#715f7f"/>
          </g>
        </g>
      </g>
      <g id="Grupo_840188" data-name="Grupo 840188" transform="translate(10.942 52.983)">
        <g id="Grupo_840187" data-name="Grupo 840187" style="isolation: isolate">
          <g id="Grupo_840169" data-name="Grupo 840169" transform="translate(60.307 1.398)">
            <path id="Trazado_296528" data-name="Trazado 296528" d="M1827.26,52.709l-.534-.31.016,5.828.534.31Z" transform="translate(-1826.727 -52.398)" fill="#3d2d4a"/>
          </g>
          <g id="Grupo_840170" data-name="Grupo 840170" transform="translate(60.84 1.709)">
            <path id="Trazado_296529" data-name="Trazado 296529" d="M1827,58.373l-.017-5.828Z" transform="translate(-1826.978 -52.545)" fill="#3d2d4a"/>
          </g>
          <g id="Grupo_840171" data-name="Grupo 840171" transform="translate(55.999 3.885)">
            <path id="Trazado_296530" data-name="Trazado 296530" d="M1825.228,53.882l-.534-.31.017,5.828.534.31Z" transform="translate(-1824.694 -53.572)" fill="#3d2d4a"/>
          </g>
          <g id="Grupo_840172" data-name="Grupo 840172" transform="translate(51.69 6.373)">
            <path id="Trazado_296531" data-name="Trazado 296531" d="M1823.2,55.055l-.534-.31.017,5.828.534.31Z" transform="translate(-1822.662 -54.745)" fill="#3d2d4a"/>
          </g>
          <g id="Grupo_840173" data-name="Grupo 840173" transform="translate(47.383 8.86)">
            <path id="Trazado_296532" data-name="Trazado 296532" d="M1821.164,56.228l-.534-.31.017,5.828.534.31Z" transform="translate(-1820.63 -55.918)" fill="#3d2d4a"/>
          </g>
          <g id="Grupo_840174" data-name="Grupo 840174" transform="translate(43.075 11.347)">
            <path id="Trazado_296533" data-name="Trazado 296533" d="M1819.132,57.4l-.534-.31.016,5.828.534.31Z" transform="translate(-1818.598 -57.092)" fill="#3d2d4a"/>
          </g>
          <g id="Grupo_840175" data-name="Grupo 840175" transform="translate(38.766 13.835)">
            <path id="Trazado_296534" data-name="Trazado 296534" d="M1817.1,58.575l-.534-.31.016,5.828.534.31Z" transform="translate(-1816.565 -58.265)" fill="#3d2d4a"/>
          </g>
          <g id="Grupo_840176" data-name="Grupo 840176" transform="translate(34.458 16.322)">
            <path id="Trazado_296535" data-name="Trazado 296535" d="M1815.067,59.748l-.534-.31.016,5.828.534.31Z" transform="translate(-1814.533 -59.438)" fill="#3d2d4a"/>
          </g>
          <g id="Grupo_840177" data-name="Grupo 840177" transform="translate(30.15 18.809)">
            <path id="Trazado_296536" data-name="Trazado 296536" d="M1813.035,60.922l-.534-.31.017,5.828.533.31Z" transform="translate(-1812.501 -60.611)" fill="#3d2d4a"/>
          </g>
          <g id="Grupo_840178" data-name="Grupo 840178" transform="translate(25.842 21.296)">
            <path id="Trazado_296537" data-name="Trazado 296537" d="M1811,62.1l-.534-.31.017,5.828.534.31Z" transform="translate(-1810.469 -61.785)" fill="#3d2d4a"/>
          </g>
          <g id="Grupo_840179" data-name="Grupo 840179" transform="translate(21.534 23.783)">
            <path id="Trazado_296538" data-name="Trazado 296538" d="M1808.97,63.268l-.534-.31.017,5.828.534.31Z" transform="translate(-1808.436 -62.958)" fill="#3d2d4a"/>
          </g>
          <g id="Grupo_840180" data-name="Grupo 840180" transform="translate(17.226 26.271)">
            <path id="Trazado_296539" data-name="Trazado 296539" d="M1806.938,64.442l-.533-.31.016,5.828.534.31Z" transform="translate(-1806.405 -64.131)" fill="#3d2d4a"/>
          </g>
          <g id="Grupo_840181" data-name="Grupo 840181" transform="translate(12.917 28.758)">
            <path id="Trazado_296540" data-name="Trazado 296540" d="M1804.906,65.615l-.534-.31.017,5.828.534.31Z" transform="translate(-1804.372 -65.305)" fill="#3d2d4a"/>
          </g>
          <g id="Grupo_840182" data-name="Grupo 840182" transform="translate(8.609 31.245)">
            <path id="Trazado_296541" data-name="Trazado 296541" d="M1802.874,66.788l-.534-.31.017,5.828.534.31Z" transform="translate(-1802.34 -66.478)" fill="#3d2d4a"/>
          </g>
          <g id="Grupo_840183" data-name="Grupo 840183" transform="translate(4.301 33.733)">
            <path id="Trazado_296542" data-name="Trazado 296542" d="M1800.841,67.962l-.534-.31.016,5.828.534.31Z" transform="translate(-1800.307 -67.652)" fill="#3d2d4a"/>
          </g>
          <g id="Grupo_840184" data-name="Grupo 840184" transform="translate(0 35.206)">
            <path id="Trazado_296543" data-name="Trazado 296543" d="M1798.812,68.657l-.534-.31.01,6.842.534.31Z" transform="translate(-1798.278 -68.347)" fill="#3d2d4a"/>
          </g>
          <g id="Grupo_840185" data-name="Grupo 840185" transform="translate(0.527 0.31)">
            <path id="Trazado_296544" data-name="Trazado 296544" d="M1798.534,87.092l-.007,1.014.017,5.828.645-.373-.017-5.828,3.358-1.938.3-.176.017,5.828.647-.374-.017-5.828,3.662-2.114.016,5.828.646-.373-.017-5.828,3.662-2.114.017,5.828.645-.373-.017-5.828,3.663-2.115.017,5.828.645-.373-.017-5.828,3.662-2.114.017,5.828.646-.373-.016-5.828,3.662-2.114.016,5.828.646-.373-.017-5.828,3.663-2.115.016,5.828.646-.372-.017-5.828,3.662-2.114.016,5.828.646-.373-.017-5.828,3.662-2.114.016,5.828.646-.373-.016-5.828,3.663-2.115.016,5.828.646-.373-.016-5.828,3.662-2.114.016,5.828.646-.373-.017-5.828,3.662-2.114.016,5.828.646-.373-.017-5.828,3.663-2.115.016,5.828.646-.373-.017-5.828,3.662-2.114.017,5.828.645-.373-.017-5.828,0-1.025Z" transform="translate(-1798.527 -51.885)" fill="#5a4b66"/>
          </g>
          <g id="Grupo_840186" data-name="Grupo 840186">
            <path id="Trazado_296545" data-name="Trazado 296545" d="M1859.762,52.049l-.534-.31-60.949,35.207.534.31Z" transform="translate(-1798.278 -51.739)" fill="#715f7f"/>
          </g>
        </g>
      </g>
    </g>
    <path id="Trazado_296546" data-name="Trazado 296546" d="M1908.185,134.686l-88.92-51.675,65.705-37.935,88.92,51.675-65.7,37.935Z" transform="translate(-1763.828 -6.217)" fill="#1b8289"/>
    <path id="Trazado_296547" data-name="Trazado 296547" d="M1922.81,107.787l-8.752,5.054-86.192-49.765,8.752-5.053Z" transform="translate(-1754.196 8.281)" fill="#05555b" opacity="0.2" style="mix-blend-mode: multiply;isolation: isolate"/>
    <path id="Trazado_296548" data-name="Trazado 296548" d="M1925.63,95.352l-59.763-34.73L1894.136,44.3l59.763,34.73L1925.63,95.352Z" transform="translate(-1711.639 -7.086)" fill="#05555b"/>
    <path id="Trazado_296549" data-name="Trazado 296549" d="M1863.839,115.092l-59.762-34.73,28.268-16.321,59.762,34.73-28.268,16.32Z" transform="translate(-1780.837 15.022)" fill="#05555b"/>
    <path id="Trazado_296550" data-name="Trazado 296550" d="M1877.367,67.3l-25.254-14.676,28.27-16.321,25.254,14.676L1877.367,67.3Z" transform="translate(-1727.042 -16.037)" fill="#13474a"/>
    <path id="Trazado_296551" data-name="Trazado 296551" d="M1859.364,112.491l-25.254-14.676,28.268-16.32,25.255,14.676-28.268,16.32Z" transform="translate(-1747.204 34.567)" fill="#199ba4"/>
    <path id="Trazado_296552" data-name="Trazado 296552" d="M1819.265,83.011l9.552,5.551,56.152-32.421,79.368,46.125,9.552-5.515-88.92-51.674Z" transform="translate(-1763.828 -6.217)" fill="#1b8289" opacity="0.2" style="mix-blend-mode: multiply;isolation: isolate"/>
    <path id="Trazado_296553" data-name="Trazado 296553" d="M1865.866,60.622l9.552,5.551,18.718-10.807,50.211,29.18,9.551-5.513L1894.137,44.3Z" transform="translate(-1711.639 -7.086)" fill="#05555b" opacity="0.2" style="mix-blend-mode: multiply;isolation: isolate"/>
    <path id="Trazado_296554" data-name="Trazado 296554" d="M1804.077,80.362l9.551,5.551,18.716-10.807,50.211,29.18,9.551-5.514-59.762-34.73Z" transform="translate(-1780.837 15.022)" fill="#05555b" opacity="0.2" style="mix-blend-mode: multiply;isolation: isolate"/>
    <path id="Trazado_296555" data-name="Trazado 296555" d="M1852.113,52.63l9.551,5.551,18.718-10.807,15.7,9.125,9.551-5.514-25.255-14.676Z" transform="translate(-1727.042 -16.038)" fill="#13474a" opacity="0.2" style="mix-blend-mode: multiply;isolation: isolate"/>
    <path id="Trazado_296556" data-name="Trazado 296556" d="M1834.109,97.814l9.551,5.551,18.717-10.806,15.7,9.126,9.551-5.515-25.255-14.675Z" transform="translate(-1747.203 34.567)" fill="#199ba4" opacity="0.2" style="mix-blend-mode: multiply;isolation: isolate"/>
    <g id="Grupo_840202" data-name="Grupo 840202" transform="translate(0 20.27)" style="isolation: isolate">
      <g id="Grupo_840190" data-name="Grupo 840190" transform="translate(153.34)">
        <path id="Trazado_296557" data-name="Trazado 296557" d="M1865.448,36.308l.014,4.966,25.254,14.676-.014-4.967Z" transform="translate(-1865.448 -36.308)" fill="#c8d0ec"/>
      </g>
      <g id="Grupo_840191" data-name="Grupo 840191" transform="translate(125.071)">
        <path id="Trazado_296558" data-name="Trazado 296558" d="M1852.113,52.629l.014,4.966,28.27-16.321-.014-4.966Z" transform="translate(-1852.113 -36.308)" fill="#dae0f4"/>
      </g>
      <g id="Grupo_840192" data-name="Grupo 840192" transform="translate(154.228 16.944)">
        <path id="Trazado_296559" data-name="Trazado 296559" d="M1865.867,60.622l.014,4.966,28.269-16.321-.014-4.966Z" transform="translate(-1865.867 -44.301)" fill="#dae0f4"/>
      </g>
      <g id="Grupo_840193" data-name="Grupo 840193" transform="translate(182.497 16.944)">
        <path id="Trazado_296560" data-name="Trazado 296560" d="M1879.2,44.3l.014,4.966L1938.979,84l-.014-4.966Z" transform="translate(-1879.202 -44.301)" fill="#c8d0ec"/>
      </g>
      <g id="Grupo_840194" data-name="Grupo 840194" transform="translate(55.436 18.59)">
        <path id="Trazado_296561" data-name="Trazado 296561" d="M1819.264,83.012l.014,4.967,65.705-37.935-.014-4.966Z" transform="translate(-1819.264 -45.077)" fill="#dae0f4"/>
      </g>
      <g id="Grupo_840195" data-name="Grupo 840195" transform="translate(121.142 18.59)">
        <path id="Trazado_296562" data-name="Trazado 296562" d="M1850.259,45.077l.014,4.966,88.92,51.675-.014-4.967Z" transform="translate(-1850.259 -45.077)" fill="#c8d0ec"/>
      </g>
      <g id="Grupo_840196" data-name="Grupo 840196" transform="translate(23.24 58.793)">
        <path id="Trazado_296563" data-name="Trazado 296563" d="M1804.077,80.362l.014,4.966,28.268-16.321-.014-4.966Z" transform="translate(-1804.077 -64.042)" fill="#dae0f4"/>
      </g>
      <g id="Grupo_840197" data-name="Grupo 840197" transform="translate(51.508 58.793)">
        <path id="Trazado_296564" data-name="Trazado 296564" d="M1817.411,64.042l.014,4.966,59.762,34.73-.014-4.966Z" transform="translate(-1817.411 -64.042)" fill="#c8d0ec"/>
      </g>
      <g id="Grupo_840198" data-name="Grupo 840198" transform="translate(115.173 95.791)">
        <path id="Trazado_296565" data-name="Trazado 296565" d="M1847.444,81.495l.014,4.967,25.254,14.676-.014-4.966Z" transform="translate(-1847.444 -81.495)" fill="#c8d0ec"/>
      </g>
      <g id="Grupo_840199" data-name="Grupo 840199" transform="translate(86.905 95.791)">
        <path id="Trazado_296566" data-name="Trazado 296566" d="M1834.109,97.815l.014,4.967,28.268-16.32-.014-4.967Z" transform="translate(-1834.109 -81.495)" fill="#dae0f4"/>
      </g>
      <g id="Grupo_840200" data-name="Grupo 840200" transform="translate(0 68.445)">
        <path id="Trazado_296567" data-name="Trazado 296567" d="M1793.114,68.594l.014,4.966,112.119,65.15-.014-4.967Z" transform="translate(-1793.114 -68.594)" fill="#c8d0ec"/>
      </g>
      <g id="Grupo_840201" data-name="Grupo 840201" transform="translate(112.119 51.674)">
        <path id="Trazado_296568" data-name="Trazado 296568" d="M1846,142.6l.014,4.967,141.889-81.92-.014-4.966Z" transform="translate(-1846.003 -60.684)" fill="#dae0f4"/>
      </g>
    </g>
    <path id="Trazado_296569" data-name="Trazado 296569" d="M1827.249,73.261V66.478l37.1-21.42v6.783Z" transform="translate(-1754.887 -6.238)" fill="#f2f4fe"/>
    <g id="Grupo_840267" data-name="Grupo 840267" transform="translate(82.785 49.134)">
      <g id="Grupo_840207" data-name="Grupo 840207" transform="translate(0.004 6.026)">
        <g id="Grupo_840206" data-name="Grupo 840206" style="isolation: isolate">
          <g id="Grupo_840203" data-name="Grupo 840203" transform="translate(0 5.844)">
            <path id="Trazado_296570" data-name="Trazado 296570" d="M1832.167,55.522l0,1.507,89.217,51.509,0-1.507Z" transform="translate(-1832.167 -55.522)" fill="#d69617"/>
          </g>
          <g id="Grupo_840204" data-name="Grupo 840204" transform="translate(89.216 51.509)">
            <path id="Trazado_296571" data-name="Trazado 296571" d="M1874.252,82.907l0,1.507,10.122-5.844,0-1.507Z" transform="translate(-1874.252 -77.064)" fill="#d3891a"/>
          </g>
          <g id="Grupo_840205" data-name="Grupo 840205">
            <path id="Trazado_296572" data-name="Trazado 296572" d="M1832.167,58.61l89.216,51.509,10.122-5.843-89.216-51.509Z" transform="translate(-1832.167 -52.766)" fill="#ffb806"/>
          </g>
        </g>
      </g>
      <g id="Grupo_840236" data-name="Grupo 840236" transform="translate(9.68)">
        <g id="Grupo_840235" data-name="Grupo 840235" style="isolation: isolate">
          <g id="Grupo_840208" data-name="Grupo 840208" transform="translate(0.569 1.233)">
            <path id="Trazado_296573" data-name="Trazado 296573" d="M1837.014,50.778l.471-.273-.015,5.137-.47.274Z" transform="translate(-1837 -50.504)" fill="#3d2d4a"/>
          </g>
          <g id="Grupo_840209" data-name="Grupo 840209" transform="translate(4.366 3.425)">
            <path id="Trazado_296574" data-name="Trazado 296574" d="M1838.806,51.812l.47-.273-.014,5.137-.47.273Z" transform="translate(-1838.791 -51.539)" fill="#3d2d4a"/>
          </g>
          <g id="Grupo_840210" data-name="Grupo 840210" transform="translate(8.165 5.618)">
            <path id="Trazado_296575" data-name="Trazado 296575" d="M1840.6,52.847l.471-.274-.015,5.137-.47.273Z" transform="translate(-1840.583 -52.573)" fill="#3d2d4a"/>
          </g>
          <g id="Grupo_840211" data-name="Grupo 840211" transform="translate(11.961 7.81)">
            <path id="Trazado_296576" data-name="Trazado 296576" d="M1842.389,53.881l.471-.273-.015,5.137-.471.273Z" transform="translate(-1842.374 -53.607)" fill="#3d2d4a"/>
          </g>
          <g id="Grupo_840212" data-name="Grupo 840212" transform="translate(15.759 10.002)">
            <path id="Trazado_296577" data-name="Trazado 296577" d="M1844.18,54.915l.471-.273-.015,5.137-.471.273Z" transform="translate(-1844.165 -54.641)" fill="#3d2d4a"/>
          </g>
          <g id="Grupo_840213" data-name="Grupo 840213" transform="translate(19.557 12.195)">
            <path id="Trazado_296578" data-name="Trazado 296578" d="M1845.972,55.949l.471-.273-.015,5.137-.471.273Z" transform="translate(-1845.957 -55.676)" fill="#3d2d4a"/>
          </g>
          <g id="Grupo_840214" data-name="Grupo 840214" transform="translate(23.354 14.387)">
            <path id="Trazado_296579" data-name="Trazado 296579" d="M1847.763,56.983l.47-.273-.014,5.137-.471.274Z" transform="translate(-1847.748 -56.71)" fill="#3d2d4a"/>
          </g>
          <g id="Grupo_840215" data-name="Grupo 840215" transform="translate(27.151 16.58)">
            <path id="Trazado_296580" data-name="Trazado 296580" d="M1849.554,58.017l.471-.273-.015,5.137-.471.273Z" transform="translate(-1849.539 -57.744)" fill="#3d2d4a"/>
          </g>
          <g id="Grupo_840216" data-name="Grupo 840216" transform="translate(30.95 18.772)">
            <path id="Trazado_296581" data-name="Trazado 296581" d="M1851.346,59.052l.471-.274-.015,5.137-.47.273Z" transform="translate(-1851.331 -58.778)" fill="#3d2d4a"/>
          </g>
          <g id="Grupo_840217" data-name="Grupo 840217" transform="translate(34.747 20.965)">
            <path id="Trazado_296582" data-name="Trazado 296582" d="M1853.137,60.086l.471-.274-.014,5.137-.471.273Z" transform="translate(-1853.122 -59.813)" fill="#3d2d4a"/>
          </g>
          <g id="Grupo_840218" data-name="Grupo 840218" transform="translate(38.544 23.157)">
            <path id="Trazado_296583" data-name="Trazado 296583" d="M1854.928,61.12l.471-.273-.015,5.137-.47.273Z" transform="translate(-1854.914 -60.847)" fill="#3d2d4a"/>
          </g>
          <g id="Grupo_840219" data-name="Grupo 840219" transform="translate(42.342 25.35)">
            <path id="Trazado_296584" data-name="Trazado 296584" d="M1856.72,62.155l.47-.273-.015,5.137-.47.273Z" transform="translate(-1856.705 -61.881)" fill="#3d2d4a"/>
          </g>
          <g id="Grupo_840220" data-name="Grupo 840220" transform="translate(46.139 27.542)">
            <path id="Trazado_296585" data-name="Trazado 296585" d="M1858.511,63.189l.47-.273-.014,5.137-.471.274Z" transform="translate(-1858.497 -62.915)" fill="#3d2d4a"/>
          </g>
          <g id="Grupo_840221" data-name="Grupo 840221" transform="translate(49.937 29.735)">
            <path id="Trazado_296586" data-name="Trazado 296586" d="M1860.3,64.223l.471-.273-.015,5.137-.47.273Z" transform="translate(-1860.288 -63.95)" fill="#3d2d4a"/>
          </g>
          <g id="Grupo_840222" data-name="Grupo 840222" transform="translate(53.734 31.927)">
            <path id="Trazado_296587" data-name="Trazado 296587" d="M1862.094,65.258l.47-.274-.015,5.137-.47.273Z" transform="translate(-1862.079 -64.984)" fill="#3d2d4a"/>
          </g>
          <g id="Grupo_840223" data-name="Grupo 840223" transform="translate(57.532 34.12)">
            <path id="Trazado_296588" data-name="Trazado 296588" d="M1863.885,66.292l.471-.274-.015,5.137-.47.273Z" transform="translate(-1863.871 -66.018)" fill="#3d2d4a"/>
          </g>
          <g id="Grupo_840224" data-name="Grupo 840224" transform="translate(61.33 36.313)">
            <path id="Trazado_296589" data-name="Trazado 296589" d="M1865.677,67.326l.47-.273-.014,5.137-.47.273Z" transform="translate(-1865.662 -67.053)" fill="#3d2d4a"/>
          </g>
          <g id="Grupo_840225" data-name="Grupo 840225" transform="translate(65.127 38.505)">
            <path id="Trazado_296590" data-name="Trazado 296590" d="M1867.468,68.36l.47-.273-.014,5.137-.471.274Z" transform="translate(-1867.453 -68.087)" fill="#3d2d4a"/>
          </g>
          <g id="Grupo_840226" data-name="Grupo 840226" transform="translate(68.924 40.697)">
            <path id="Trazado_296591" data-name="Trazado 296591" d="M1869.26,69.394l.471-.273-.015,5.137-.471.273Z" transform="translate(-1869.245 -69.121)" fill="#3d2d4a"/>
          </g>
          <g id="Grupo_840227" data-name="Grupo 840227" transform="translate(72.722 42.89)">
            <path id="Trazado_296592" data-name="Trazado 296592" d="M1871.051,70.429l.47-.273-.014,5.137-.471.273Z" transform="translate(-1871.036 -70.155)" fill="#3d2d4a"/>
          </g>
          <g id="Grupo_840228" data-name="Grupo 840228" transform="translate(76.519 45.082)">
            <path id="Trazado_296593" data-name="Trazado 296593" d="M1872.842,71.463l.47-.273-.015,5.137-.47.273Z" transform="translate(-1872.828 -71.189)" fill="#3d2d4a"/>
          </g>
          <g id="Grupo_840229" data-name="Grupo 840229" transform="translate(80.317 47.275)">
            <path id="Trazado_296594" data-name="Trazado 296594" d="M1874.633,72.5l.471-.274-.015,5.137-.47.273Z" transform="translate(-1874.619 -72.224)" fill="#3d2d4a"/>
          </g>
          <g id="Grupo_840230" data-name="Grupo 840230" transform="translate(84.115 49.468)">
            <path id="Trazado_296595" data-name="Trazado 296595" d="M1876.425,73.532l.471-.273-.014,5.137-.471.273Z" transform="translate(-1876.41 -73.258)" fill="#3d2d4a"/>
          </g>
          <g id="Grupo_840231" data-name="Grupo 840231" transform="translate(89.191 52.398)">
            <path id="Trazado_296596" data-name="Trazado 296596" d="M1878.82,74.914l.47-.274-.014,5.137-.471.273Z" transform="translate(-1878.805 -74.64)" fill="#3d2d4a"/>
          </g>
          <g id="Grupo_840232" data-name="Grupo 840232" transform="translate(0 0.273)">
            <path id="Trazado_296597" data-name="Trazado 296597" d="M1925.94,101.546l0,.9-.015,5.137-.569-.328.015-5.137-4.507-2.6-.015,5.137-.57-.329.014-5.137-3.228-1.864-.014,5.137-.569-.328.014-5.137-3.228-1.864-.015,5.137-.569-.329.014-5.137-3.228-1.864-.015,5.137-.57-.329.015-5.137-3.228-1.864-.015,5.137-.569-.329.014-5.137-3.228-1.864-.015,5.137-.569-.329.015-5.137-3.228-1.864-.015,5.137-.57-.329.014-5.137-3.228-1.864-.014,5.137-.569-.328.015-5.137-3.228-1.864-.015,5.137-.569-.329.015-5.137-2.959-1.709-.269-.155-.014,5.137-.571-.329.014-5.137-3.228-1.864-.015,5.137-.569-.329.015-5.137-3.228-1.864-.014,5.137-.569-.329.014-5.137-3.229-1.864-.014,5.137-.569-.328.014-5.137-3.228-1.864-.015,5.137-.569-.329.014-5.137-3.228-1.864-.014,5.137-.569-.329.015-5.137-3.229-1.864-.015,5.137-.569-.329.014-5.137-3.228-1.864-.015,5.137-.569-.329.014-5.137-3.228-1.864-.015,5.137-.569-.329.014-5.137-3.229-1.864-.015,5.137-.569-.328.015-5.137-3.229-1.864L1848.693,63l-.569-.329.015-5.137-3.228-1.864-.014,5.137-.569-.329.015-5.137-3.229-1.864-.015,5.137-.569-.329.015-5.137-3.228-1.864-.014,5.137-.569-.329.014-5.137,0-.9Z" transform="translate(-1836.732 -50.052)" fill="#5a4b66"/>
          </g>
          <g id="Grupo_840233" data-name="Grupo 840233" transform="translate(89.205 51.494)">
            <path id="Trazado_296598" data-name="Trazado 296598" d="M1878.814,74.488l.471-.273,0,.9-.47.274Z" transform="translate(-1878.812 -74.214)" fill="#3d2d4a"/>
          </g>
          <g id="Grupo_840234" data-name="Grupo 840234" transform="translate(0.017)">
            <path id="Trazado_296599" data-name="Trazado 296599" d="M1836.739,50.2l.471-.273,89.191,51.494-.47.273Z" transform="translate(-1836.739 -49.923)" fill="#715f7f"/>
          </g>
        </g>
      </g>
      <g id="Grupo_840266" data-name="Grupo 840266" transform="translate(0 5.544)">
        <g id="Grupo_840265" data-name="Grupo 840265" style="isolation: isolate">
          <g id="Grupo_840237" data-name="Grupo 840237" transform="translate(0.569 1.233)">
            <path id="Trazado_296600" data-name="Trazado 296600" d="M1832.449,53.393l.471-.273-.015,5.139-.471.273Z" transform="translate(-1832.434 -53.12)" fill="#3d2d4a"/>
          </g>
          <g id="Grupo_840238" data-name="Grupo 840238" transform="translate(0.57 1.506)">
            <path id="Trazado_296601" data-name="Trazado 296601" d="M1832.434,58.388l.015-5.139Z" transform="translate(-1832.434 -53.249)" fill="#3d2d4a"/>
          </g>
          <g id="Grupo_840239" data-name="Grupo 840239" transform="translate(4.368 3.426)">
            <path id="Trazado_296602" data-name="Trazado 296602" d="M1834.241,54.428l.47-.273-.014,5.139-.471.273Z" transform="translate(-1834.226 -54.155)" fill="#3d2d4a"/>
          </g>
          <g id="Grupo_840240" data-name="Grupo 840240" transform="translate(8.168 5.62)">
            <path id="Trazado_296603" data-name="Trazado 296603" d="M1836.033,55.463l.471-.273-.014,5.139-.471.273Z" transform="translate(-1836.018 -55.19)" fill="#3d2d4a"/>
          </g>
          <g id="Grupo_840241" data-name="Grupo 840241" transform="translate(11.967 7.813)">
            <path id="Trazado_296604" data-name="Trazado 296604" d="M1837.825,56.5l.471-.273-.015,5.139-.471.273Z" transform="translate(-1837.811 -56.224)" fill="#3d2d4a"/>
          </g>
          <g id="Grupo_840242" data-name="Grupo 840242" transform="translate(15.766 10.007)">
            <path id="Trazado_296605" data-name="Trazado 296605" d="M1839.617,57.532l.471-.273-.015,5.139-.471.274Z" transform="translate(-1839.602 -57.259)" fill="#3d2d4a"/>
          </g>
          <g id="Grupo_840243" data-name="Grupo 840243" transform="translate(19.566 12.2)">
            <path id="Trazado_296606" data-name="Trazado 296606" d="M1841.41,58.567l.471-.273-.015,5.139-.471.274Z" transform="translate(-1841.395 -58.294)" fill="#3d2d4a"/>
          </g>
          <g id="Grupo_840244" data-name="Grupo 840244" transform="translate(23.364 14.394)">
            <path id="Trazado_296607" data-name="Trazado 296607" d="M1843.2,59.6l.471-.273-.015,5.139-.471.274Z" transform="translate(-1843.187 -59.328)" fill="#3d2d4a"/>
          </g>
          <g id="Grupo_840245" data-name="Grupo 840245" transform="translate(27.163 16.587)">
            <path id="Trazado_296608" data-name="Trazado 296608" d="M1844.993,60.636l.471-.273-.015,5.139-.47.274Z" transform="translate(-1844.979 -60.363)" fill="#3d2d4a"/>
          </g>
          <g id="Grupo_840246" data-name="Grupo 840246" transform="translate(30.963 18.781)">
            <path id="Trazado_296609" data-name="Trazado 296609" d="M1846.786,61.671l.47-.273-.014,5.139-.471.274Z" transform="translate(-1846.771 -61.398)" fill="#3d2d4a"/>
          </g>
          <g id="Grupo_840247" data-name="Grupo 840247" transform="translate(34.762 20.974)">
            <path id="Trazado_296610" data-name="Trazado 296610" d="M1848.578,62.706l.47-.274-.014,5.139-.471.274Z" transform="translate(-1848.563 -62.432)" fill="#3d2d4a"/>
          </g>
          <g id="Grupo_840248" data-name="Grupo 840248" transform="translate(38.561 23.167)">
            <path id="Trazado_296611" data-name="Trazado 296611" d="M1850.37,63.741l.471-.274-.014,5.139-.471.274Z" transform="translate(-1850.355 -63.467)" fill="#3d2d4a"/>
          </g>
          <g id="Grupo_840249" data-name="Grupo 840249" transform="translate(42.361 25.361)">
            <path id="Trazado_296612" data-name="Trazado 296612" d="M1852.162,64.776l.471-.274-.015,5.139-.471.274Z" transform="translate(-1852.148 -64.502)" fill="#3d2d4a"/>
          </g>
          <g id="Grupo_840250" data-name="Grupo 840250" transform="translate(46.159 27.554)">
            <path id="Trazado_296613" data-name="Trazado 296613" d="M1853.954,65.81l.471-.274-.015,5.139-.471.274Z" transform="translate(-1853.94 -65.536)" fill="#3d2d4a"/>
          </g>
          <g id="Grupo_840251" data-name="Grupo 840251" transform="translate(49.959 29.748)">
            <path id="Trazado_296614" data-name="Trazado 296614" d="M1855.746,66.845l.471-.274-.014,5.139-.47.273Z" transform="translate(-1855.733 -66.571)" fill="#3d2d4a"/>
          </g>
          <g id="Grupo_840252" data-name="Grupo 840252" transform="translate(53.758 31.942)">
            <path id="Trazado_296615" data-name="Trazado 296615" d="M1857.538,67.879l.471-.273-.015,5.139-.47.273Z" transform="translate(-1857.524 -67.606)" fill="#3d2d4a"/>
          </g>
          <g id="Grupo_840253" data-name="Grupo 840253" transform="translate(57.557 34.135)">
            <path id="Trazado_296616" data-name="Trazado 296616" d="M1859.331,68.914l.471-.273-.015,5.139-.47.273Z" transform="translate(-1859.316 -68.641)" fill="#3d2d4a"/>
          </g>
          <g id="Grupo_840254" data-name="Grupo 840254" transform="translate(61.357 36.329)">
            <path id="Trazado_296617" data-name="Trazado 296617" d="M1861.124,69.949l.471-.273-.015,5.139-.471.273Z" transform="translate(-1861.109 -69.676)" fill="#3d2d4a"/>
          </g>
          <g id="Grupo_840255" data-name="Grupo 840255" transform="translate(65.156 38.522)">
            <path id="Trazado_296618" data-name="Trazado 296618" d="M1862.915,70.984l.471-.273-.015,5.139-.471.273Z" transform="translate(-1862.901 -70.71)" fill="#3d2d4a"/>
          </g>
          <g id="Grupo_840256" data-name="Grupo 840256" transform="translate(68.955 40.715)">
            <path id="Trazado_296619" data-name="Trazado 296619" d="M1864.707,72.018l.471-.273-.015,5.139-.47.273Z" transform="translate(-1864.693 -71.745)" fill="#3d2d4a"/>
          </g>
          <g id="Grupo_840257" data-name="Grupo 840257" transform="translate(72.754 42.909)">
            <path id="Trazado_296620" data-name="Trazado 296620" d="M1866.5,73.053l.47-.273-.014,5.139-.471.273Z" transform="translate(-1866.485 -72.78)" fill="#3d2d4a"/>
          </g>
          <g id="Grupo_840258" data-name="Grupo 840258" transform="translate(76.553 45.102)">
            <path id="Trazado_296621" data-name="Trazado 296621" d="M1868.292,74.088l.471-.273-.014,5.139-.471.274Z" transform="translate(-1868.277 -73.814)" fill="#3d2d4a"/>
          </g>
          <g id="Grupo_840259" data-name="Grupo 840259" transform="translate(80.352 47.296)">
            <path id="Trazado_296622" data-name="Trazado 296622" d="M1870.084,75.122l.471-.273-.014,5.139-.471.274Z" transform="translate(-1870.069 -74.849)" fill="#3d2d4a"/>
          </g>
          <g id="Grupo_840260" data-name="Grupo 840260" transform="translate(84.152 49.489)">
            <path id="Trazado_296623" data-name="Trazado 296623" d="M1871.877,76.157l.471-.274-.015,5.139-.47.274Z" transform="translate(-1871.862 -75.884)" fill="#3d2d4a"/>
          </g>
          <g id="Grupo_840261" data-name="Grupo 840261" transform="translate(89.23 52.421)">
            <path id="Trazado_296624" data-name="Trazado 296624" d="M1874.271,77.54l.471-.274-.015,5.139-.47.273Z" transform="translate(-1874.257 -77.267)" fill="#3d2d4a"/>
          </g>
          <g id="Grupo_840262" data-name="Grupo 840262" transform="translate(0 0.273)">
            <path id="Trazado_296625" data-name="Trazado 296625" d="M1921.413,104.185l0,.9-.014,5.139-.57-.329.015-5.139-4.509-2.6-.015,5.139-.571-.329.015-5.139-3.229-1.865-.015,5.139-.569-.329.014-5.139-3.229-1.865-.015,5.139-.569-.329.014-5.139-3.229-1.865-.015,5.139-.571-.329.015-5.139-3.229-1.865-.014,5.139-.57-.329.015-5.139-3.229-1.865-.015,5.139-.569-.329.014-5.139L1893.537,89l-.015,5.139-.57-.329.015-5.139-3.23-1.865-.014,5.139-.569-.329.015-5.139-3.23-1.864-.014,5.139-.57-.329.015-5.139-2.961-1.709-.269-.155-.014,5.139-.571-.329.015-5.139-3.229-1.864-.015,5.139-.569-.329.015-5.139-3.23-1.864-.015,5.139-.569-.329.015-5.139-3.231-1.865-.015,5.139-.569-.329.014-5.139-3.229-1.864-.015,5.139-.569-.329.014-5.139-3.229-1.865-.015,5.14-.569-.329.014-5.139-3.231-1.865-.014,5.14-.569-.329.015-5.139-3.229-1.865-.015,5.14-.57-.329.015-5.139-3.229-1.865-.015,5.14-.569-.329.015-5.139-3.23-1.865-.015,5.14-.569-.329.015-5.139-3.23-1.865-.014,5.139-.57-.329.015-5.139-3.23-1.865-.014,5.139-.569-.329.015-5.139-3.231-1.865-.015,5.139-.569-.329.015-5.139-3.229-1.865-.015,5.139-.569-.329.015-5.14,0-.9Z" transform="translate(-1832.165 -52.667)" fill="#5a4b66"/>
          </g>
          <g id="Grupo_840263" data-name="Grupo 840263" transform="translate(89.245 51.517)">
            <path id="Trazado_296626" data-name="Trazado 296626" d="M1874.267,77.114l.471-.274,0,.9-.471.274Z" transform="translate(-1874.264 -76.84)" fill="#3d2d4a"/>
          </g>
          <g id="Grupo_840264" data-name="Grupo 840264" transform="translate(0.017)">
            <path id="Trazado_296627" data-name="Trazado 296627" d="M1832.173,52.812l.471-.273,89.23,51.517-.47.274Z" transform="translate(-1832.173 -52.538)" fill="#715f7f"/>
          </g>
        </g>
      </g>
    </g>
    <g id="Grupo_840268" data-name="Grupo 840268" transform="translate(11.49 13.464)">
      <path id="Trazado_296628" data-name="Trazado 296628" d="M1798.534,115.018,1899.163,173.5l141.888-81.919L1940.422,33.1,1896.5,58.453v6.784l11.681-6.743,88.921,51.674L1931.4,148.1l-88.921-51.677,16.927-9.771V79.872Zm167.1-60.44L1937.368,70.9l-25.252-14.676L1940.385,39.9Zm35.4,53.322-59.762-34.73,28.269-16.321,59.762,34.73Zm-127.085,44.115,28.269-16.319,25.254,14.676L1899.2,166.69Zm-3.9-2.268-59.762-34.73L1838.551,98.7l59.762,34.73Z" transform="translate(-1798.534 -33.097)" fill="#f2f4fe"/>
    </g>
  </g>
</svg>
