<svg xmlns="http://www.w3.org/2000/svg" xmlns:xlink="http://www.w3.org/1999/xlink" width="1240" height="113.888" viewBox="0 0 1240 113.888">
  <defs>
    <linearGradient id="linear-gradient" x1="0.5" x2="0.5" y2="1" gradientUnits="objectBoundingBox">
      <stop offset="0" stop-color="#08fbe7"/>
      <stop offset="1" stop-color="#047e74"/>
    </linearGradient>
  </defs>
  <g id="Grupo_557414" data-name="Grupo 557414" transform="translate(-180 -2053.598)">
    <g id="Grupo_60326" data-name="Grupo 60326" transform="translate(197.619 1517.449)">
      <path id="Trazado_120224" data-name="Trazado 120224" d="M-17.619,702.768V649.241c11.788,2.078,27.4,3.346,44.491,3.346,21.163,0,40.027-1.943,52.229-4.956,12.185,3.014,31.066,4.956,52.212,4.956,21.163,0,40.027-1.943,52.212-4.956,12.2,3.014,31.083,4.956,52.229,4.956s40.027-1.943,52.212-4.956c12.2,3.014,31.066,4.956,52.229,4.956,21.146,0,40.011-1.943,52.212-4.956,12.2,3.014,31.066,4.956,52.229,4.956,21.146,0,40.011-1.943,52.212-4.956,12.2,3.014,31.05,4.956,52.229,4.956,21.146,0,40.011-1.943,52.212-4.956,12.2,3.014,31.05,4.956,52.212,4.956s40.027-1.943,52.229-4.956c12.185,3.014,31.05,4.956,52.212,4.956s40.027-1.943,52.229-4.956c12.185,3.014,31.05,4.956,52.212,4.956s40.027-1.943,52.229-4.956c12.169,3.014,31.05,4.956,52.2,4.956,21.163,0,40.044-1.943,52.229-4.956,12.185,3.014,31.066,4.956,52.212,4.956,21.163,0,40.044-1.943,52.212-4.956,12.2,3.014,31.083,4.956,52.229,4.956,18.17,0,34.671-1.433,46.69-3.753v53.934" transform="translate(0 -100.457)" fill="url(#linear-gradient)"/>
      <path id="Trazado_120225" data-name="Trazado 120225" d="M162.17,666.317" transform="translate(-56.334 -109.171)" fill="#0e93d4"/>
      <path id="Trazado_120226" data-name="Trazado 120226" d="M127.373,536.149" transform="translate(-21.537)" fill="#0e93d4"/>
    </g>
    <g id="Grupo_61526" data-name="Grupo 61526" transform="translate(1538.039 1488.209) rotate(90)">
      <path id="Trazado_120208" data-name="Trazado 120208" d="M630.857,142.8a2.612,2.612,0,1,1,2.612-2.613A2.612,2.612,0,0,1,630.857,142.8Z" transform="translate(-17.049)" fill="#fff"/>
      <circle id="Elipse_4395" data-name="Elipse 4395" cx="2.612" cy="2.612" r="2.612" transform="translate(611.195 159.615)" fill="#fff"/>
      <circle id="Elipse_4396" data-name="Elipse 4396" cx="2.612" cy="2.612" r="2.612" transform="translate(611.195 181.655)" fill="#fff"/>
      <path id="Trazado_120209" data-name="Trazado 120209" d="M630.857,208.919a2.612,2.612,0,1,1,2.612-2.612A2.611,2.611,0,0,1,630.857,208.919Z" transform="translate(-17.049)" fill="#fff"/>
      <path id="Trazado_120210" data-name="Trazado 120210" d="M630.857,230.959a2.612,2.612,0,1,1,2.612-2.612A2.611,2.611,0,0,1,630.857,230.959Z" transform="translate(-17.049)" fill="#fff"/>
      <circle id="Elipse_4397" data-name="Elipse 4397" cx="2.612" cy="2.612" r="2.612" transform="translate(611.195 247.775)" fill="#fff"/>
      <circle id="Elipse_4398" data-name="Elipse 4398" cx="2.612" cy="2.612" r="2.612" transform="translate(611.195 269.815)" fill="#fff"/>
      <path id="Trazado_120211" data-name="Trazado 120211" d="M620.408,153.82a2.613,2.613,0,1,1,2.612-2.613A2.612,2.612,0,0,1,620.408,153.82Z" transform="translate(-14.215)" fill="#fff"/>
      <circle id="Elipse_4399" data-name="Elipse 4399" cx="2.612" cy="2.612" r="2.612" transform="translate(603.581 170.635)" fill="#fff"/>
      <circle id="Elipse_4400" data-name="Elipse 4400" cx="2.612" cy="2.612" r="2.612" transform="translate(603.581 192.675)" fill="#fff"/>
      <path id="Trazado_120212" data-name="Trazado 120212" d="M620.408,219.939a2.612,2.612,0,1,1,2.612-2.612A2.611,2.611,0,0,1,620.408,219.939Z" transform="translate(-14.215)" fill="#fff"/>
      <circle id="Elipse_4401" data-name="Elipse 4401" cx="2.612" cy="2.612" r="2.612" transform="translate(603.581 236.755)" fill="#fff"/>
      <path id="Trazado_120213" data-name="Trazado 120213" d="M620.408,264.019a2.612,2.612,0,1,1,2.612-2.612A2.611,2.611,0,0,1,620.408,264.019Z" transform="translate(-14.215)" fill="#fff"/>
      <path id="Trazado_120214" data-name="Trazado 120214" d="M609.306,142.8a2.612,2.612,0,1,1,2.612-2.613A2.613,2.613,0,0,1,609.306,142.8Z" transform="translate(-11.203)" fill="#fff"/>
      <circle id="Elipse_4402" data-name="Elipse 4402" cx="2.612" cy="2.612" r="2.612" transform="translate(595.49 159.615)" fill="#fff"/>
      <circle id="Elipse_4403" data-name="Elipse 4403" cx="2.612" cy="2.612" r="2.612" transform="translate(595.49 181.655)" fill="#fff"/>
      <path id="Trazado_120215" data-name="Trazado 120215" d="M609.306,208.919a2.612,2.612,0,1,1,2.612-2.612A2.612,2.612,0,0,1,609.306,208.919Z" transform="translate(-11.203)" fill="#fff"/>
      <path id="Trazado_120216" data-name="Trazado 120216" d="M609.306,230.959a2.612,2.612,0,1,1,2.612-2.612A2.612,2.612,0,0,1,609.306,230.959Z" transform="translate(-11.203)" fill="#fff"/>
      <circle id="Elipse_4404" data-name="Elipse 4404" cx="2.612" cy="2.612" r="2.612" transform="translate(595.49 247.775)" fill="#fff"/>
      <circle id="Elipse_4405" data-name="Elipse 4405" cx="2.612" cy="2.612" r="2.612" transform="translate(595.49 269.815)" fill="#fff"/>
      <path id="Trazado_120217" data-name="Trazado 120217" d="M598.857,153.82a2.613,2.613,0,1,1,2.612-2.613A2.612,2.612,0,0,1,598.857,153.82Z" transform="translate(-8.369)" fill="#fff"/>
      <path id="Trazado_120218" data-name="Trazado 120218" d="M598.857,175.86a2.613,2.613,0,1,1,2.612-2.613A2.612,2.612,0,0,1,598.857,175.86Z" transform="translate(-8.369)" fill="#fff"/>
      <path id="Trazado_120219" data-name="Trazado 120219" d="M598.857,197.9a2.612,2.612,0,1,1,2.612-2.613A2.612,2.612,0,0,1,598.857,197.9Z" transform="translate(-8.369)" fill="#fff"/>
      <path id="Trazado_120220" data-name="Trazado 120220" d="M598.857,219.939a2.612,2.612,0,1,1,2.612-2.612A2.611,2.611,0,0,1,598.857,219.939Z" transform="translate(-8.369)" fill="#fff"/>
      <path id="Trazado_120221" data-name="Trazado 120221" d="M598.857,241.979a2.612,2.612,0,1,1,2.612-2.612A2.611,2.611,0,0,1,598.857,241.979Z" transform="translate(-8.369)" fill="#fff"/>
      <path id="Trazado_120222" data-name="Trazado 120222" d="M598.857,264.019a2.612,2.612,0,1,1,2.612-2.612A2.611,2.611,0,0,1,598.857,264.019Z" transform="translate(-8.369)" fill="#fff"/>
      <line id="Línea_181" data-name="Línea 181" x2="113.888" transform="translate(565.39 168.093)" fill="none"/>
    </g>
  </g>
</svg>
