<svg xmlns="http://www.w3.org/2000/svg" xmlns:xlink="http://www.w3.org/1999/xlink" width="422.436" height="289.752" viewBox="0 0 422.436 289.752">
  <defs>
    <clipPath id="clip-path">
      <rect id="Rectángulo_33849" data-name="Rectángulo 33849" width="52.987" height="181.284" fill="none"/>
    </clipPath>
  </defs>
  <g id="Grupo_557412" data-name="Grupo 557412" transform="translate(-931.377 -1551.201)">
    <g id="Grupo_60293" data-name="Grupo 60293" transform="translate(555.264 -1190.921)">
      <path id="Rectángulo_33943" data-name="Rectángulo 33943" d="M49.1,0H288.438a0,0,0,0,1,0,0V213.356a0,0,0,0,1,0,0H48.14A48.14,48.14,0,0,1,0,165.216V49.1A49.1,49.1,0,0,1,49.1,0Z" transform="translate(798.549 3012.784) rotate(180)" fill="#a6e65a"/>
      <path id="Trazado_119861" data-name="Trazado 119861" d="M778.754,2756.7" transform="translate(0 0)" fill="#37649d"/>
    </g>
    <g id="Grupo_60323" data-name="Grupo 60323" transform="translate(3070.85 1551.201)">
      <path id="Trazado_120093" data-name="Trazado 120093" d="M-1781.882,289.135l-201.094-.079-101.051-.039-5.626,0-20.3-.005s-29-26.8-29.5-64.7c-.99-74.665,41.994-41.034,36.155-131.021-5.329-82.113,133.9-126.391,209.493-63.658,27.484,22.808,29.641,38.8,69.137,33.747,44.583-5.709,49.663,55.9,34.059,90.046C-1812.753,201.88-1729.217,193.92-1781.882,289.135Z" transform="translate(0 0)" fill="#ebf3fa"/>
      <g id="Grupo_60294" data-name="Grupo 60294" transform="translate(-2090.337 150.848)">
        <path id="Trazado_120094" data-name="Trazado 120094" d="M-1679.343,906.209l-54.543.08-106.292.157-5.927.008,0-.011-14.026,0-29.1.015c5.316-16.542,22.874-65.414,35.389-84.709a150.375,150.375,0,0,1,11.377-15.4c7.466-8.807,12.4-1.177,17.325,4.507.009.011.018.023.027.033a16.668,16.668,0,0,0,4.882,4.273c3.213,1.515,9.406-8.495,16.049-19.648q.774-1.294,1.55-2.6h0c7.128-11.99,14.548-24.364,19.211-24.619,8.343-.459,15.276,8.283,21.078,20.595h0c12.837,27.236,21.344,43.811,24.505,48.476,5.156,7.609,10.537,17.082,15.834,10.734,2.92-3.5,5.744-6.294,8.23-6.359,4.424-.117,9.061,4.86,13.449,12.1l0,0C-1688.993,872.51-1679.343,906.209-1679.343,906.209Z" transform="translate(1889.224 -768.276)" fill="#d4e1ff"/>
        <path id="Trazado_120095" data-name="Trazado 120095" d="M-1687.961,951.477c-2-3.094-6.555,9.873-9.468,10.757s-.182-4.568-1.457-6.631-10.1,5.563-10.1,5.563a150.332,150.332,0,0,1,11.376-15.4c7.467-8.807,12.4-1.177,17.325,4.506l.027.034C-1679.11,951.659-1685.958,954.572-1687.961,951.477Z" transform="translate(1744.377 -907.697)" fill="#fff"/>
        <path id="Trazado_120096" data-name="Trazado 120096" d="M-1407.884,788.886h0a31.474,31.474,0,0,1-5.135-2.915c-1.638-1.326,0,5.3-2.913,6.926s-4.006-4.715-7.283-5.769-8.558,13.578-12.746,13.726-1.093-11.493-2-13.409-10.209,5.465-10.209,5.465h0c7.129-11.988,14.548-24.363,19.211-24.619C-1420.619,767.832-1413.687,776.575-1407.884,788.886Z" transform="translate(1534.772 -768.273)" fill="#fff"/>
        <path id="Trazado_120097" data-name="Trazado 120097" d="M-1022.467,1151.637c-.819,1.474,1.639,5.231-.455,5.378s-7.648-7.515-8.74-7.883-2,3.61-3.915,3.316c-.872-.134-1.517-1.846-1.959-3.668,2.921-3.5,5.745-6.295,8.23-6.36,4.425-.116,9.062,4.861,13.449,12.1C-1016.008,1154.4-1021.659,1150.182-1022.467,1151.637Z" transform="translate(1204.763 -1068.956)" fill="#fff"/>
      </g>
      <g id="Grupo_60295" data-name="Grupo 60295" transform="translate(-1958.276 110.648)">
        <path id="Trazado_120098" data-name="Trazado 120098" d="M-1153.821,641.61V762.428c0,6.731-4.636,12.188-10.353,12.188h-42.108c-5.718,0-10.352-5.457-10.352-12.188v-123c0-10.94,5.525-20.356,13.468-24.6a7.353,7.353,0,0,0,3.544-6.548v-4.867h28.787v5.426a7.924,7.924,0,0,0,3.568,6.816C-1159.282,620.5-1153.821,630.3-1153.821,641.61Z" transform="translate(1216.633 -595.585)" fill="#aec3ff"/>
        <path id="Trazado_120099" data-name="Trazado 120099" d="M-1139.869,822.42V928.733c0,5.921-3.963,10.723-8.85,10.723h-36c-4.889,0-8.852-4.8-8.852-10.723V820.5c0-.808.033-1.608.1-2.4a27.62,27.62,0,0,1,15.556-.443c8.317,2.316,15.166-2.223,24.951-2.223,6.815,0,9.834,1.2,12.507.924A30.9,30.9,0,0,1-1139.869,822.42Z" transform="translate(1198.103 -765.979)" fill="#83a9ff"/>
        <path id="Rectángulo_33948" data-name="Rectángulo 33948" d="M9.361,0H22.519a8.9,8.9,0,0,1,8.9,8.9v.46a0,0,0,0,1,0,0H0a0,0,0,0,1,0,0v0A9.361,9.361,0,0,1,9.361,0Z" transform="translate(15.671)" fill="#f99746"/>
        <path id="Trazado_120100" data-name="Trazado 120100" d="M-978.365,688.807s-4.7-8.589-8.8-7.409-1.411,4.187,1.085,7.409,4.153,3.929,6.114,2.716S-977.7,689.92-978.365,688.807Z" transform="translate(1033.926 -658.166)" fill="#e3eeff"/>
      </g>
      <path id="Trazado_120101" data-name="Trazado 120101" d="M-1255.267,453.323s2.96-7.487,10.037-6.655c0,0,10.276-12.48,21.233-1.664,0,0,11.648-2.68,20.274,2.32,5.751,3.334,7.651,6.831,7.651,6.831Z" transform="translate(-710.594 -354.084)" fill="#f8fcff"/>
      <path id="Trazado_120102" data-name="Trazado 120102" d="M-1802.78,255.045s6.31-16.758,21.4-14.9c0,0,21.908-27.932,45.27-3.724,0,0,24.833-6,43.225,5.193,12.262,7.462,16.312,15.289,16.312,15.289Z" transform="translate(-270.584 -182.07)" fill="#f8fcff"/>
      <path id="Trazado_120103" data-name="Trazado 120103" d="M-730.869,399.792s2.229-7.128,7.558-6.336c0,0,7.738-11.88,15.989-1.584,0,0,8.771-2.551,15.267,2.209a17.908,17.908,0,0,1,5.761,6.5Z" transform="translate(-1132.028 -311.555)" fill="#f8fcff"/>
      <path id="Trazado_120104" data-name="Trazado 120104" d="M-1476.229,118.584s2.2-6.448,7.477-5.732c0,0,7.654-10.748,15.816-1.433,0,0,8.676-2.308,15.1,2a16.612,16.612,0,0,1,5.7,5.883Z" transform="translate(-533.018 -86.49)" fill="#f8fcff"/>
      <g id="Grupo_60296" data-name="Grupo 60296" transform="translate(-1872.032 102.503)">
        <path id="Trazado_120105" data-name="Trazado 120105" d="M-652.349,527.505c.014-.442.316-5.208,6.705-5.457,0,0-3.142.426-3.685,1.995,0,0,2.14-1.939,3.882-1.315s2.766,4.091,2.776,5.232-.958,4.818-2.064,5.13a2.978,2.978,0,0,1-1.339,0,17.876,17.876,0,0,1,.858,1.74c2.55,5.946-.08,11.757-2.238,11.115-1.384-.412-1.776,2.272-1.776,2.272l-13.449-12.37S-657.739,524.237-652.349,527.505Z" transform="translate(685.203 -522.048)" fill="#2c3a64"/>
        <path id="Trazado_120106" data-name="Trazado 120106" d="M-756.84,761.672c3.935-.442,8.6-1.228,10.464-2.53,2.832-1.965,7.736-10.216,10.762-16.233.087-.147.282-3.195.347-3.342,1.578-3.193,2.294-1.227,2.381-3.757a14.344,14.344,0,0,0-.368-4.028,10.861,10.861,0,0,0-1.6-3.635,1.81,1.81,0,0,0-.3-.418,7.734,7.734,0,0,0-2.054-1.989c-.519-.246-1.081.049-1.664.761v.025a11.43,11.43,0,0,0-1.492,2.505.133.133,0,0,0-.043.074c-.108.221-.216.467-.346.737a.647.647,0,0,0-.087.172q-.356.847-.713,1.768c-2.659,6.582-4.661,17.466-7.017,20.438-1.016,1.277-6.495,2.87-10.191,4.737C-761.423,758.283-759.455,761.991-756.84,761.672Z" transform="translate(763.438 -685.677)" fill="#ffb27d"/>
        <path id="Trazado_120107" data-name="Trazado 120107" d="M-633.916,1029.208l2.857,1.208s12.409-19.551,13.936-36.752a29.6,29.6,0,0,0-.408-8.794s.121-.787.333-2.178c.1-.649.219-1.431.357-2.326.4-2.626.958-6.219,1.593-10.31,1.46-9.414,3.351-21.449,4.821-30.3l-.77-.281-8.329-3.052-1.721-6.211-6.2-1.855s-1.385,3.079-2.624,17.623c-.229,1.908-.436,4.011-.592,6.293a141.375,141.375,0,0,0,.59,25.476q.427,3.792,1.089,7.819a39.572,39.572,0,0,1,.238,7.721C-629.373,1007.355-633.916,1029.208-633.916,1029.208Z" transform="translate(662.087 -848.582)" fill="#aec3ff"/>
        <path id="Trazado_120108" data-name="Trazado 120108" d="M-617.357,949.484-603.89,979.9c.1-.649.219-1.431.357-2.326.4-2.626.959-6.219,1.593-10.31,1.46-9.414,3.351-21.449,4.821-30.3l-.77-.281-8.329-3.052-1.721-6.211-8.483-2.537S-617.357,943.683-617.357,949.484Z" transform="translate(648.78 -845.79)" fill="#94b0ed"/>
        <path id="Trazado_120109" data-name="Trazado 120109" d="M-587.184,917.784l.312-3.037c5.223,1.576,19.178-4.4,19.178-4.4s5.06,5.053,4.4,17.165c-.324,5.912-.917,31.033-1.535,38.466-.224,2.694-.42,4.612-.5,5.377a.016.016,0,0,0,0,.007,1.174,1.174,0,0,0,.152.658,37.216,37.216,0,0,1,2.284,5.455c6.072,18.381-.935,41.017-.935,41.017l-1.818-.833s-3.987-25.191-7.227-36.32a23.767,23.767,0,0,0-1.56-4.257c-1.409-2.583-2.716-6.8-3.9-11.823-2.243-9.49-4.048-21.835-5.249-31.364C-583.758,933.9-587.184,917.784-587.184,917.784Z" transform="translate(624.531 -834.102)" fill="#aec3ff"/>
        <path id="Trazado_120110" data-name="Trazado 120110" d="M-638,670.229a14.69,14.69,0,0,0,6.015,1.6c8.979.559,11.018-8.383,11.389-14.319a6.689,6.689,0,0,0-3.081-.443c-.243.015-.49.035-.733.059a2.52,2.52,0,0,1-2.311-1.147,22.88,22.88,0,0,1-3.017-7.836l-.387.2-6.479,3.461s.688,2.4,1.2,4.687a26.976,26.976,0,0,1,.486,2.717,1.659,1.659,0,0,1-.858,1.679h0a.023.023,0,0,1,0,.008A55.952,55.952,0,0,0-638,670.229Z" transform="translate(665.372 -623.385)" fill="#ffb27d"/>
        <path id="Trazado_120111" data-name="Trazado 120111" d="M-652.526,712.65c.068.2.142.4.224.607,2.274,5.564,6.484,28.614,6.484,28.614,1.293,4.456,27.414-.813,27.487-4.587.986-4-3.5-10.429-6.031-13.654a9.174,9.174,0,0,1-.849-1.3,9.894,9.894,0,0,1-1.148-3.8c-.5-5.349-.308-10.362-.349-13.41h0c-.494-.416-.973-.8-1.418-1.166a13.168,13.168,0,0,1-1.726-1.627,3.13,3.13,0,0,1-.828-1.852,11.149,11.149,0,0,1,.035-1.553c.021-.246.049-.493.081-.74a23.167,23.167,0,0,1,1.3-4.936c-2.409-1.108-6.694-.448-6.694-.448s0,.27.007.713c.014,1.778,0,6.343-.5,7.207-.628,1.076-12.1,5.789-12.711,4.329-.6-1.436,1.038-8.164,1.1-8.418a.022.022,0,0,0,0-.008,17.671,17.671,0,0,0-5.218,3.153C-650.963,701.479-654.317,707.252-652.526,712.65Z" transform="translate(677.648 -659.113)" fill="#f99746"/>
        <path id="Trazado_120112" data-name="Trazado 120112" d="M-630.9,652.652s.689,2.393,1.2,4.687c3.787-1.2,4.937-5.723,5.283-8.147Z" transform="translate(659.664 -624.228)" fill="#ed985f"/>
        <path id="Trazado_120113" data-name="Trazado 120113" d="M-658.542,603.094s9.061-2.382,7.668-8.77-1.161-11-7.005-9.746-6.432,4-6.424,6.264S-660.934,603.549-658.542,603.094Z" transform="translate(686.507 -572.136)" fill="#ffb27d"/>
        <path id="Trazado_120114" data-name="Trazado 120114" d="M-668.549,582.451c.974-2.315,2.121-2.192,2.838-1.781,4.258-4.475,8.434-.819,8.434-.819a11.892,11.892,0,0,0,5.091,6.214s-1.392,1.619-5.426,1.584a6.184,6.184,0,0,1-3.6-1.539,22,22,0,0,0,4.724,4c-5.05-1.1-8.437-7.74-8.784-8.445a8.9,8.9,0,0,0-1.315,3.536c-.094,1.753.438,5.158-.446,5.287C-667.032,590.489-670.009,585.923-668.549,582.451Z" transform="translate(690.244 -567.371)" fill="#2c3a64"/>
        <path id="Trazado_120115" data-name="Trazado 120115" d="M-663.549,728.486c-1.02,1.006-2.182,4.323-2.508,5.436a4.351,4.351,0,0,1,3.972,2.349S-662.076,727.035-663.549,728.486Z" transform="translate(687.918 -687.828)" fill="#f99746"/>
        <path id="Trazado_120116" data-name="Trazado 120116" d="M-587.046,773.922c5.525-.066,10.2-6.584,13.064-11.793a9.9,9.9,0,0,1-1.148-3.805c-.5-5.349-.308-10.361-.349-13.41h0c-.494-.416-.973-.8-1.418-1.166a13.163,13.163,0,0,1-1.726-1.627C-583.148,750.809-594.537,774.012-587.046,773.922Z" transform="translate(626.419 -698.91)" fill="#ed7d2b"/>
        <path id="Trazado_120117" data-name="Trazado 120117" d="M-522.107,1432.016h14.389a10.142,10.142,0,0,0-.407-4.381c-.72-1.813-1.848-2.638-1.578-4.832a4.89,4.89,0,0,1-4.485,1.949,17.876,17.876,0,0,1-2.5,3.676C-517.625,1429.2-521.817,1428.922-522.107,1432.016Z" transform="translate(572.232 -1245.942)" fill="#2b478b"/>
        <path id="Trazado_120118" data-name="Trazado 120118" d="M-679.449,1435.016h14.388a7.657,7.657,0,0,0-.407-4.381,3.5,3.5,0,0,1,.1-3.762,5.015,5.015,0,0,1-2.423.519,4.688,4.688,0,0,1-2.14-.855,56.3,56.3,0,0,1-4.1,4.893C-674.967,1432.2-679.16,1431.923-679.449,1435.016Z" transform="translate(698.68 -1248.942)" fill="#2b478b"/>
        <path id="Trazado_120119" data-name="Trazado 120119" d="M-689.191,740.759l.579,2.536s7.185-1.712,8.764-2.1h.022c2.7-.737,5.729-1.621,8.28-2.6a21.519,21.519,0,0,0,4.41-2.235,2.693,2.693,0,0,0,.3-.246c2.529-2.087,5.534-8.227,7.869-14.81.324-.909.627-1.817.93-2.7a74.179,74.179,0,0,0,2.465-9.333,29.727,29.727,0,0,0,.584-4.446,12.364,12.364,0,0,0,.022-1.253c-.043-7.122-3.156-8.1-3.156-8.1-.065-.025-.13-.049-.216-.074-.541-.1-1.1.319-1.686,1.13a23.26,23.26,0,0,0-2.313,4.642c-1.232,3.168-2.53,7.27-3.74,11.347-.67,2.235-1.319,4.47-1.967,6.533-.368,1.253-.735,2.432-1.081,3.512a36.353,36.353,0,0,1-1.816,4.789,11.117,11.117,0,0,1-2.659,2.726C-675.892,731.956-689.191,740.759-689.191,740.759Z" transform="translate(706.509 -661.339)" fill="#ffb27d"/>
        <path id="Trazado_120120" data-name="Trazado 120120" d="M-555.682,701.515c4.162-1.3,8.02,2.121,8.02,2.121-.052-7.111-3.168-8.084-3.168-8.084C-552.083,694.962-554.183,697.695-555.682,701.515Z" transform="translate(599.214 -661.42)" fill="#f99746"/>
        <path id="Trazado_120121" data-name="Trazado 120121" d="M-709.466,921.836a33.483,33.483,0,0,0-4.367,2.251,10.423,10.423,0,0,0-2.313,3.777s.013.445.377.445,1.184-1.592,1.784-1.338a14.729,14.729,0,0,1-1.211,2.641c-.449.534-.7,3.218-.613,3.8s3.173-2.2,4.463-3.458c.687-.673.667-2.3.88-4.148.187-1.617,4.116-2.552,4.116-2.552Z" transform="translate(728.172 -843.339)" fill="#ffb27d"/>
        <path id="Trazado_120122" data-name="Trazado 120122" d="M-775.95,903.953S-777.816,905.9-777.3,908s2.5,2.352,2.818,1.244S-774.979,903.564-775.95,903.953Z" transform="translate(777.393 -828.948)" fill="#ffb27d"/>
      </g>
      <g id="Grupo_60297" data-name="Grupo 60297" transform="translate(-1892.207 126.254)">
        <path id="Trazado_120123" data-name="Trazado 120123" d="M-880.147,657.04c0-4.769,6.96-14.028,6.96-14.028s6.96,9.259,6.96,14.028-3.116,8.635-6.96,8.635S-880.147,661.809-880.147,657.04Z" transform="translate(880.147 -643.012)" fill="#83a9ff"/>
        <path id="Trazado_120124" data-name="Trazado 120124" d="M-869.176,713.389a3.69,3.69,0,0,1-.136-1.327c.081-2.089,1.779-3.216,3.131-1.8a5.811,5.811,0,0,1,.932,1.459c.524,1.447.3,2.752-.866,3.3A2.325,2.325,0,0,1-869.176,713.389Z" transform="translate(871.444 -696.551)" fill="#ccdcff"/>
      </g>
      <g id="Grupo_60298" data-name="Grupo 60298" transform="translate(-2038.953 92.761)">
        <path id="Trazado_120125" data-name="Trazado 120125" d="M-1627.525,505.179c0-11.133,16.248-32.747,16.248-32.747s16.248,21.614,16.248,32.747-7.275,20.158-16.248,20.158S-1627.525,516.312-1627.525,505.179Z" transform="translate(1627.525 -472.432)" fill="#83a9ff"/>
        <path id="Trazado_120126" data-name="Trazado 120126" d="M-1601.913,636.724a8.612,8.612,0,0,1-.319-3.1c.19-4.877,4.153-7.508,7.308-4.194a13.578,13.578,0,0,1,2.177,3.406c1.223,3.378.7,6.425-2.021,7.7S-1600.69,640.1-1601.913,636.724Z" transform="translate(1607.209 -597.418)" fill="#ccdcff"/>
      </g>
      <g id="Grupo_60300" data-name="Grupo 60300" transform="translate(-2013.963 35.49)">
        <rect id="Rectángulo_33949" data-name="Rectángulo 33949" width="31.221" height="5.805" transform="translate(48.102 196.641)" fill="#2b478b"/>
        <g id="Grupo_60299" data-name="Grupo 60299" transform="translate(20.212)">
          <path id="Trazado_120127" data-name="Trazado 120127" d="M-1384.208,431.843h-13.1V245.574a72.062,72.062,0,0,1,4.487-25.234,65.7,65.7,0,0,1,12.226-20.6,57.057,57.057,0,0,1,18.135-13.889,50.9,50.9,0,0,1,22.212-5.1,50.905,50.905,0,0,1,22.212,5.1,57.058,57.058,0,0,1,18.135,13.889,65.709,65.709,0,0,1,12.226,20.6,72.067,72.067,0,0,1,4.487,25.234V260.92h-13.1V245.574a53.226,53.226,0,0,0-12.875-35.31c-8.3-9.432-19.34-14.626-31.082-14.626s-22.779,5.194-31.082,14.626a53.226,53.226,0,0,0-12.874,35.31Z" transform="translate(1397.311 -180.752)" fill="#233862"/>
        </g>
        <path id="Rectángulo_33950" data-name="Rectángulo 33950" d="M0,0H6.138a9.339,9.339,0,0,1,9.339,9.339v0a9.339,9.339,0,0,1-9.339,9.339H0a0,0,0,0,1,0,0V0A0,0,0,0,1,0,0Z" transform="translate(34.297 190.204)" fill="#233862"/>
        <path id="Trazado_120128" data-name="Trazado 120128" d="M-1159.7,1176.424l-28.141-1.342a3.894,3.894,0,0,1-3.448-4.086v-2.856a3.886,3.886,0,0,1,3.493-4.087l28.141-.945a3.85,3.85,0,0,1,3.706,4.087v5.143A3.843,3.843,0,0,1-1159.7,1176.424Z" transform="translate(1251.951 -970.224)" fill="#f99746"/>
        <path id="Rectángulo_33951" data-name="Rectángulo 33951" d="M11.917,0h0A10.955,10.955,0,0,1,22.871,10.955v60.6a0,0,0,0,1,0,0H0a0,0,0,0,1,0,0V11.917A11.917,11.917,0,0,1,11.917,0Z" transform="translate(15.328 179.539)" fill="#2b478b"/>
        <path id="Rectángulo_33952" data-name="Rectángulo 33952" d="M5.34,0H48.188a5.34,5.34,0,0,1,5.34,5.34v0a0,0,0,0,1,0,0H0a0,0,0,0,1,0,0v0A5.34,5.34,0,0,1,5.34,0Z" transform="translate(0 247.655)" fill="#163560"/>
        <rect id="Rectángulo_33953" data-name="Rectángulo 33953" width="17.695" height="6.537" rx="3.269" transform="translate(118.931 75.158)" fill="#060633"/>
      </g>
      <g id="Grupo_60301" data-name="Grupo 60301" transform="translate(-1913.692 154.098)">
        <path id="Trazado_120129" data-name="Trazado 120129" d="M-973.974,784.825h53.9L-924.591,910.7l-46.615-.733Z" transform="translate(977.036 -784.825)" fill="#ccdbfd"/>
        <path id="Trazado_120130" data-name="Trazado 120130" d="M-919.074,947.662l-2.078,75.448c-.1,3.622-2.314,6.491-5.01,6.491h-34.777c-2.845,0-5.187-3.013-5.312-6.839l-2.705-82.538c4.239-1.176,12.6-2.039,22.575,4.541C-937.922,950.344-926.835,949.406-919.074,947.662Z" transform="translate(973.003 -909.056)" fill="#a6c6ff"/>
        <rect id="Rectángulo_33954" data-name="Rectángulo 33954" width="55.962" height="0.802" transform="translate(1.004)" fill="#83a9ff"/>
        <path id="Trazado_120131" data-name="Trazado 120131" d="M-931.547,785.353l-3.6,130.805a3.45,3.45,0,0,1-3.224,3.55h-46.791l-4.4-134.355h3.062l.778,23.989.207,6.373L-982.815,899c.125,3.861,2.467,6.9,5.312,6.9h34.776c2.7,0,4.91-2.893,5.01-6.549l2.078-76.129.482-17.647.552-20.22Z" transform="translate(989.567 -785.249)" fill="#2b478b"/>
        <path id="Trazado_120132" data-name="Trazado 120132" d="M-762.24,810.158a2.963,2.963,0,0,0-3.278-2.743c-5.134,0-4.917,20.043-3.182,22.344s5.174,1.044,5.785-.219C-760.554,824.666-762.24,810.158-762.24,810.158Z" transform="translate(812.958 -802.979)" fill="#e3eeff"/>
        <path id="Trazado_120133" data-name="Trazado 120133" d="M-787.733,1294.279c-.141-1.081-.408-3.184-2.122-3.647s-3.6,1.855-4.576,5.657-5.954,6.4-4.4,9.737,6.48,2.278,7.826,1.013C-788.549,1304.727-787.326,1297.408-787.733,1294.279Z" transform="translate(836.523 -1191.271)" fill="#e3eeff"/>
        <path id="Trazado_120134" data-name="Trazado 120134" d="M-834.045,936.774s-6.267-1.779-7.424-5.161.94-5.3,3.109-4.547,1.181,3.958,2.748,6.833Z" transform="translate(870.812 -899.006)" fill="#a6c6ff"/>
      </g>
      <g id="Grupo_60315" data-name="Grupo 60315" transform="translate(-1955.992 235.033)">
        <g id="Grupo_60303" data-name="Grupo 60303" transform="translate(15.255 24.051)">
          <path id="Trazado_120135" data-name="Trazado 120135" d="M-1125.409,1326.178c1.557.717,7.119.137,7.3-.368s-3.458-5.32-5.014-6.036a2.93,2.93,0,0,0-3.961,1.9A3.63,3.63,0,0,0-1125.409,1326.178Z" transform="translate(1127.309 -1319.52)" fill="#a8d29f"/>
          <path id="Trazado_120136" data-name="Trazado 120136" d="M-1050.354,1362.006c-.874,1.63-1.269,7.959-.859,8.242s5.18-3.017,6.054-4.647a3.734,3.734,0,0,0-1.015-4.748A2.841,2.841,0,0,0-1050.354,1362.006Z" transform="translate(1066.285 -1352.332)" fill="#a8d29f"/>
          <path id="Trazado_120137" data-name="Trazado 120137" d="M-1093.019,1404.258c1.6.58,7.107-.479,7.253-1s-3.8-5.006-5.4-5.585a2.985,2.985,0,0,0-3.822,2.241A3.568,3.568,0,0,0-1093.019,1404.258Z" transform="translate(1101.454 -1382.197)" fill="#a8d29f"/>
          <g id="Grupo_60302" data-name="Grupo 60302" transform="translate(9.01 6.144)">
            <path id="Trazado_120138" data-name="Trazado 120138" d="M-1073.9,1372.855c-.005-.144-.621-14.469-7.525-21.865l.147-.177c6.968,7.465,7.586,21.887,7.592,22.031Z" transform="translate(1081.42 -1350.813)" fill="#a8d29f"/>
          </g>
        </g>
        <g id="Grupo_60305" data-name="Grupo 60305" transform="translate(42.026 26.629)">
          <path id="Trazado_120139" data-name="Trazado 120139" d="M-946.238,1337.04c-.97.731-4.817,1.212-5,.9s1.7-4.155,2.669-4.886a1.959,1.959,0,0,1,2.921.67A2.6,2.6,0,0,1-946.238,1337.04Z" transform="translate(959.048 -1332.651)" fill="#a8d29f"/>
          <path id="Trazado_120140" data-name="Trazado 120140" d="M-987.313,1373.535c.792.969,1.831,5.2,1.587,5.461s-3.884-1.234-4.676-2.2a2.629,2.629,0,0,1,.111-3.383A1.935,1.935,0,0,1-987.313,1373.535Z" transform="translate(990.964 -1364.893)" fill="#a8d29f"/>
          <path id="Trazado_120141" data-name="Trazado 120141" d="M-959.45,1395.143c-1.016.645-4.884.792-5.046.463s1.973-4,2.989-4.642a1.981,1.981,0,0,1,2.868.921A2.574,2.574,0,0,1-959.45,1395.143Z" transform="translate(969.7 -1379.27)" fill="#a8d29f"/>
          <g id="Grupo_60304" data-name="Grupo 60304" transform="translate(5.112 5.181)">
            <path id="Trazado_120142" data-name="Trazado 120142" d="M-964.543,1375.162c-.014-.1-1.341-9.921,2.446-16.028l-.121-.1c-3.822,6.164-2.485,16.053-2.471,16.152Z" transform="translate(964.927 -1359.037)" fill="#a8d29f"/>
          </g>
        </g>
        <g id="Grupo_60308" data-name="Grupo 60308" transform="translate(25.077)">
          <g id="Grupo_60306" data-name="Grupo 60306" transform="translate(6.508 7.2)">
            <path id="Trazado_120143" data-name="Trazado 120143" d="M-1035.036,1277.9l-.439-.079c-1.73-25.43-8.566-43.679-8.661-43.927l.4-.2C-1043.641,1233.948-1036.756,1252.317-1035.036,1277.9Z" transform="translate(1044.137 -1233.697)" fill="#a8d29f"/>
          </g>
          <g id="Grupo_60307" data-name="Grupo 60307">
            <path id="Trazado_120144" data-name="Trazado 120144" d="M-1070.118,1203.839c.843,1.085,4.79,2.83,5.063,2.557s-.762-4.939-1.6-6.024a2.119,2.119,0,0,0-3.255-.231A2.876,2.876,0,0,0-1070.118,1203.839Z" transform="translate(1071.989 -1199.003)" fill="#fff"/>
            <path id="Trazado_120145" data-name="Trazado 120145" d="M-1041.979,1198.083c-.761,1.16-1.453,5.908-1.161,6.154s4.1-1.863,4.859-3.023a2.861,2.861,0,0,0-.471-3.667A2.131,2.131,0,0,0-1041.979,1198.083Z" transform="translate(1049.899 -1197.028)" fill="#fff"/>
            <path id="Trazado_120146" data-name="Trazado 120146" d="M-1036.208,1227.761c-1.229-.38-5.371.625-5.467,1.023s3.025,3.652,4.254,4.033a2.29,2.29,0,0,0,2.832-1.839A2.677,2.677,0,0,0-1036.208,1227.761Z" transform="translate(1048.668 -1221.659)" fill="#fff"/>
            <path id="Trazado_120147" data-name="Trazado 120147" d="M-1046.9,1237.876c-.123-1.44-2.418-5.484-2.78-5.444s-1.934,4.508-1.811,5.948a2.406,2.406,0,0,0,2.518,2.356A2.552,2.552,0,0,0-1046.9,1237.876Z" transform="translate(1056.558 -1225.48)" fill="#fff"/>
            <path id="Trazado_120148" data-name="Trazado 120148" d="M-1073.905,1237.25c1.128-.672,3.557-4.614,3.388-4.98s-4.4-.332-5.532.341a2.8,2.8,0,0,0-.97,3.538A2.177,2.177,0,0,0-1073.905,1237.25Z" transform="translate(1077.284 -1225.164)" fill="#fff"/>
            <path id="Trazado_120149" data-name="Trazado 120149" d="M-1046.679,1229.552a.778.778,0,0,1,.87-.716.856.856,0,0,1,.631.988.778.778,0,0,1-.87.716A.856.856,0,0,1-1046.679,1229.552Z" transform="translate(1052.696 -1222.582)" fill="#163560"/>
          </g>
          <path id="Trazado_120150" data-name="Trazado 120150" d="M-1007.639,1320.228c-1.253,1.751-2.606,9.1-2.166,9.5s6.494-2.6,7.747-4.347a4.475,4.475,0,0,0-.521-5.748A3.312,3.312,0,0,0-1007.639,1320.228Z" transform="translate(1023.123 -1294.826)" fill="#a8d29f"/>
        </g>
        <g id="Grupo_60311" data-name="Grupo 60311" transform="translate(2.167 20.462)">
          <g id="Grupo_60309" data-name="Grupo 60309" transform="translate(4.149 5.078)">
            <path id="Trazado_120151" data-name="Trazado 120151" d="M-1163.4,1355.568l-.3-.009a110.5,110.5,0,0,0-9.141-28.284l.25-.17A110.85,110.85,0,0,1-1163.4,1355.568Z" transform="translate(1172.838 -1327.105)" fill="#a8d29f"/>
          </g>
          <g id="Grupo_60310" data-name="Grupo 60310">
            <path id="Trazado_120152" data-name="Trazado 120152" d="M-1191.687,1309.083a7.219,7.219,0,0,0,3.557,1.192,9.647,9.647,0,0,0-1.53-3.838,1.419,1.419,0,0,0-2.178.172A1.924,1.924,0,0,0-1191.687,1309.083Z" transform="translate(1192.561 -1305.071)" fill="#fff"/>
            <path id="Trazado_120153" data-name="Trazado 120153" d="M-1172.222,1302.142a10.169,10.169,0,0,0-.295,4.2,8.036,8.036,0,0,0,2.991-2.49,1.885,1.885,0,0,0-.6-2.386A1.451,1.451,0,0,0-1172.222,1302.142Z" transform="translate(1176.818 -1301.243)" fill="#fff"/>
            <path id="Trazado_120154" data-name="Trazado 120154" d="M-1167.758,1320.532a7.273,7.273,0,0,0-3.548,1.224,7.9,7.9,0,0,0,3.134,2.252,1.592,1.592,0,0,0,1.737-1.5A1.728,1.728,0,0,0-1167.758,1320.532Z" transform="translate(1175.756 -1316.736)" fill="#fff"/>
            <path id="Trazado_120155" data-name="Trazado 120155" d="M-1172.659,1329.611a8.918,8.918,0,0,0-2.266-3.335,10.039,10.039,0,0,0-.742,4.128,1.549,1.549,0,0,0,1.852,1.312A1.773,1.773,0,0,0-1172.659,1329.611Z" transform="translate(1179.287 -1321.359)" fill="#fff"/>
            <path id="Trazado_120156" data-name="Trazado 120156" d="M-1191.532,1330.257a9.377,9.377,0,0,0,1.863-3.642,7.093,7.093,0,0,0-3.645.778,1.91,1.91,0,0,0-.37,2.444A1.43,1.43,0,0,0-1191.532,1330.257Z" transform="translate(1193.967 -1321.584)" fill="#fff"/>
            <path id="Trazado_120157" data-name="Trazado 120157" d="M-1174.667,1324.481a.542.542,0,0,1,.522-.562.551.551,0,0,1,.495.593.542.542,0,0,1-.522.562A.55.55,0,0,1-1174.667,1324.481Z" transform="translate(1178.457 -1319.467)" fill="#163560"/>
          </g>
          <path id="Trazado_120158" data-name="Trazado 120158" d="M-1138.81,1378.932c-.7,1.287-1.026,6.3-.7,6.521s4.109-2.37,4.805-3.657a2.957,2.957,0,0,0-.79-3.762A2.248,2.248,0,0,0-1138.81,1378.932Z" transform="translate(1150.305 -1362.631)" fill="#a8d29f"/>
        </g>
        <g id="Grupo_60314" data-name="Grupo 60314" transform="translate(56.646 6.017)">
          <g id="Grupo_60312" data-name="Grupo 60312" transform="translate(6.597 6.412)">
            <path id="Trazado_120159" data-name="Trazado 120159" d="M-882.906,1299.7l.391-.071A150.881,150.881,0,0,1-874.8,1260.5l-.356-.175A151.389,151.389,0,0,0-882.906,1299.7Z" transform="translate(882.906 -1260.33)" fill="#a8d29f"/>
          </g>
          <g id="Grupo_60313" data-name="Grupo 60313" transform="translate(7.887)">
            <path id="Trazado_120160" data-name="Trazado 120160" d="M-839.209,1233.74c-.751.966-4.266,2.52-4.509,2.277s.678-4.4,1.429-5.365a1.887,1.887,0,0,1,2.9-.205A2.561,2.561,0,0,1-839.209,1233.74Z" transform="translate(850.155 -1229.432)" fill="#fff"/>
            <path id="Trazado_120161" data-name="Trazado 120161" d="M-863.177,1228.613c.678,1.033,1.294,5.261,1.034,5.481s-3.65-1.659-4.328-2.692a2.548,2.548,0,0,1,.42-3.266A1.9,1.9,0,0,1-863.177,1228.613Z" transform="translate(868.736 -1227.674)" fill="#fff"/>
            <path id="Trazado_120162" data-name="Trazado 120162" d="M-874.822,1255.044c1.095-.339,4.784.557,4.869.911s-2.694,3.253-3.788,3.591a2.039,2.039,0,0,1-2.522-1.638A2.384,2.384,0,0,1-874.822,1255.044Z" transform="translate(876.337 -1249.61)" fill="#fff"/>
            <path id="Trazado_120163" data-name="Trazado 120163" d="M-855.97,1264.052c.109-1.283,2.154-4.884,2.476-4.849s1.722,4.015,1.613,5.3a2.143,2.143,0,0,1-2.242,2.1A2.273,2.273,0,0,1-855.97,1264.052Z" transform="translate(859.976 -1253.013)" fill="#fff"/>
            <path id="Trazado_120164" data-name="Trazado 120164" d="M-839.813,1263.5c-1-.6-3.168-4.11-3.017-4.435s3.923-.3,4.927.3a2.5,2.5,0,0,1,.864,3.151A1.939,1.939,0,0,1-839.813,1263.5Z" transform="translate(849.415 -1252.732)" fill="#fff"/>
            <path id="Trazado_120165" data-name="Trazado 120165" d="M-844.9,1256.639a.693.693,0,0,0-.774-.638.762.762,0,0,0-.562.88.693.693,0,0,0,.774.638A.762.762,0,0,0-844.9,1256.639Z" transform="translate(852.154 -1250.432)" fill="#163560"/>
          </g>
          <path id="Trazado_120166" data-name="Trazado 120166" d="M-910.816,1368.28c1.116,1.559,2.321,8.1,1.929,8.463s-5.783-2.312-6.9-3.871a3.986,3.986,0,0,1,.464-5.12A2.95,2.95,0,0,1-910.816,1368.28Z" transform="translate(916.505 -1339.593)" fill="#a8d29f"/>
        </g>
        <path id="Trazado_120167" data-name="Trazado 120167" d="M-1205,1427.751a11.225,11.225,0,0,1,10.24-7.019c8.029-.415,13.558,4.975,20.192,2.488s17.613-8.105,28-4.364,12.138,8.9,12.138,8.9Z" transform="translate(1205.003 -1374.297)" fill="#a8d29f"/>
      </g>
      <g id="Grupo_60316" data-name="Grupo 60316" transform="translate(-2099.304 104.513)">
        <path id="Trazado_120168" data-name="Trazado 120168" d="M-1746.36,1425.379h-17.355c-1.243-.958.335-10.324.335-10.324s4.736-2.042,5.555,2.11,6.033,5.468,8.792,5.974A3.086,3.086,0,0,1-1746.36,1425.379Z" transform="translate(1797.709 -1241.323)" fill="#2b478b"/>
        <path id="Trazado_120169" data-name="Trazado 120169" d="M-1784.568,940.084l-8.1,95.6s-1.7,2.971-7.083.968a196.392,196.392,0,0,1-5.4-33.068c-.019-.289-.039-.58-.058-.871-.411-6.366-.9-15.232-1.364-24.021-.842-15.978-1.589-31.7-1.589-31.7Z" transform="translate(1833.044 -860.015)" fill="#f99746"/>
        <path id="Trazado_120170" data-name="Trazado 120170" d="M-1788.505,1033.231s-2.778,21.294-3.738,27.767c-2.042,13.779-6.4,17.446-6.4,17.446-.019-.289-.039-.58-.058-.871-.411-6.366-.9-15.232-1.364-24.021Z" transform="translate(1826.539 -934.872)" fill="#ed7d2b"/>
        <path id="Trazado_120171" data-name="Trazado 120171" d="M-1544.9,794.628s1.608-2.217,2.473-2.529,2.539-1.783,2.757-1.176-1.125,1.542-1.054,2.235c.031.306,1.07.321,2.22.306,1.461-.019,3.237-.911,3.3-.507.241,1.479-1.675,4.169-3.664,4.409-1.6.193-3.832-.184-6.508.137C-1546.3,797.614-1544.9,794.628-1544.9,794.628Z" transform="translate(1622.108 -740.025)" fill="#ffb27d"/>
        <path id="Trazado_120172" data-name="Trazado 120172" d="M-1728.744,710.825c-.055.179-5.824,1.275-10.817,2.07a66.189,66.189,0,0,1-6.693.849c-2.349.031-6.845-.869-12.162-3.414a50.187,50.187,0,0,1-9.429-5.913c-2.852-2.252-2.94-4.017-5.312-7.637-7.361-11.234,2.314-15.984,7.634-13.828,3.679,1.49,5.911,4.03,7.905,7.469,2.36,4.071,4.286,8.6,10.164,12.518,4.428,2.951,17.626,3.759,17.626,3.759a3.126,3.126,0,0,1,.97,1.725A10.485,10.485,0,0,1-1728.744,710.825Z" transform="translate(1807.054 -652.964)" fill="#aec3ff"/>
        <path id="Trazado_120173" data-name="Trazado 120173" d="M-1877.449,1425.379H-1894.8c-1.244-.958.335-10.324.335-10.324s4.737-2.042,5.555,2.11,6.033,5.468,8.792,5.974A3.086,3.086,0,0,1-1877.449,1425.379Z" transform="translate(1903.059 -1241.323)" fill="#2b478b"/>
        <path id="Trazado_120174" data-name="Trazado 120174" d="M-1863.344,918.655l-26.282,91.383s-5.592,1.7-8.456-1.766c0,0,.664-32.221,4.252-43.222,2.9-8.9,1.494-56.959,14.361-57.367A15.962,15.962,0,0,1-1863.344,918.655Z" transform="translate(1905.31 -833.967)" fill="#f99746"/>
        <path id="Trazado_120175" data-name="Trazado 120175" d="M-1823.52,731.67c-4.055,2.372-9.315,4.04-18,3.4-8.344-.618-13.444-3.217-13.185-5.484.129-1.129.253-2.289.362-3.5a99.554,99.554,0,0,0-.293-20.343c-.246-2.313-.56-4.771-.826-6.909v-.006h0c-.323-2.6-.575-4.732-.546-5.535,0,0,2.64-13.479,4.62-15.644a8.336,8.336,0,0,1,3-1.942l.012,0c5.966-2.443,16.929-1.889,21.777,2.88.661.651,3,5.144,3.066,10C-1823.439,695.351-1820.886,730.131-1823.52,731.67Z" transform="translate(1871.499 -646.399)" fill="#aec3ff"/>
        <path id="Trazado_120176" data-name="Trazado 120176" d="M-1796.139,643.157c-.6-.858,1.09-2.46.336-8.734-.01-.082.537.034,1.363.256,2.459.662,7.4,2.255,7.622,2.325h.009s.061,1.32.264,3.685c.017.208.035.426.055.652.025.277.043.573.081.874C-1785.823,646.936-1793.339,647.175-1796.139,643.157Z" transform="translate(1823.488 -614.348)" fill="#ffb27d"/>
        <path id="Trazado_120177" data-name="Trazado 120177" d="M-1784.194,641.846c-3.671.956-9.15-5.2-9.15-5.2a5.634,5.634,0,0,1,1.256-.809c2.459.662,7.4,2.254,7.622,2.325h.009S-1784.4,639.481-1784.194,641.846Z" transform="translate(1821.137 -615.505)" fill="#ed975d"/>
        <path id="Trazado_120178" data-name="Trazado 120178" d="M-1795.125,575.892a16.861,16.861,0,0,1-3.434.909c-2.814.432-6.515.177-7.678-3.691-1.958-6.511-4.46-10.415,1.3-13.074,3.085-1.423,5.058-1.5,6.4-.956a4.877,4.877,0,0,1,2.371,2.332C-1795.046,563.405-1792.794,574.753-1795.125,575.892Z" transform="translate(1833.315 -553.569)" fill="#ffb27d"/>
        <path id="Trazado_120179" data-name="Trazado 120179" d="M-1815.656,534.705c2.1,2.154.912,6.117-1.913,6.346a8.3,8.3,0,0,0-2.708.367c-1.433.723-1.691,3.454-1.717,4.321s-.126,1.6-2.073,1.081a.843.843,0,0,0-.707.048c-.807.544.224,3.182.535,3.753,0,0,.448,1.889-.546,2.809-.12.11-2.073,1.079-6.777-7.1a8.507,8.507,0,0,1-.3-6.961c1.141-2.785,5.824-5.836,9.952-6.9C-1819.363,531.807-1817.229,533.094-1815.656,534.705Z" transform="translate(1852.575 -532.289)" fill="#2b478b"/>
        <path id="Trazado_120180" data-name="Trazado 120180" d="M-1753.746,624.569s.121.843-1.6,1.516c0,0-1.448.565-1.713-.3A4.6,4.6,0,0,1-1753.746,624.569Z" transform="translate(1791.979 -606.45)" fill="#fff"/>
        <path id="Trazado_120181" data-name="Trazado 120181" d="M-1669.332,799.428a66.189,66.189,0,0,1-6.693.849c-2.349.031-6.845-.869-12.162-3.414-.217-.861-.435-6.25.029-6.613,1.407-1.1,4.208,5.115,8.909,6.728A71.626,71.626,0,0,0-1669.332,799.428Z" transform="translate(1736.825 -739.496)" fill="#8baaef"/>
        <path id="Trazado_120182" data-name="Trazado 120182" d="M-1850.557,819.11a1.341,1.341,0,0,1-1.532-.447,99.546,99.546,0,0,0-.294-20.343c-.246-2.313-.56-4.771-.826-6.909v-.006s3.935-3.846,5.285-.67-2.506,11.611-.385,16.65S-1848.177,818.351-1850.557,819.11Z" transform="translate(1869.247 -738.98)" fill="#8baaef"/>
        <path id="Trazado_120183" data-name="Trazado 120183" d="M-1875.693,925.261s2.127,1.753,2.673,1.649c1.6-.3,2.425-1.782,3.909-1.641s4.621,2.026,4.258,2.457c-1.319,1.566-3.352.718-4.308,1.676-.664.665-1.063,2.046-3.473,1.765a8.9,8.9,0,0,1-4.541-2.531Z" transform="translate(1888.508 -848.101)" fill="#ffb27d"/>
        <path id="Trazado_120184" data-name="Trazado 120184" d="M-1911.759,681.5s-9.292,2.951-15.906,13.3-8.754,17.344-6.151,22.521,7.665,14.327,12.582,18.182c0,0,2.459-.6,2.266-4.869,0,0-6.036-14.621-5.819-16.6.406-3.682,9-13.017,10.881-14.942S-1911.759,681.5-1911.759,681.5Z" transform="translate(1934.893 -652.203)" fill="#aec3ff"/>
        <path id="Trazado_120185" data-name="Trazado 120185" d="M-1850.9,921.973a20.721,20.721,0,0,0,1.216-2.428c.145-.548.391.284.289.849a2.5,2.5,0,0,0,.024,1.013Z" transform="translate(1867.39 -843.365)" fill="#ffb27d"/>
      </g>
      <path id="Trazado_120186" data-name="Trazado 120186" d="M-405.647,1408.734h-11.818c-.633-.61.438-2,1.558-2.089a6.112,6.112,0,0,1,1.8.243c.163-2.454,1.091-13.485,4.591-13.042,3.935.5,0,4.858-1.112,7.44-.824,1.913-1.694,4.655-2.091,5.95.32.079.651.156.988.227.522-1.819,2.462-7.94,4.931-7.583,2.9.417,1.733,2.871-.321,4.328-1.507,1.071-3.357,2.594-4.237,3.329a11.1,11.1,0,0,0,2.311.21A4.574,4.574,0,0,1-405.647,1408.734Z" transform="translate(-1383.745 -1120.157)" fill="#a8d29f"/>
      <g id="Grupo_60319" data-name="Grupo 60319" transform="translate(-2042.343 247.196)">
        <g id="Grupo_60317" data-name="Grupo 60317" transform="translate(5.219 5.773)">
          <path id="Trazado_120187" data-name="Trazado 120187" d="M-1610.914,1323.822l-.352-.063a135.83,135.83,0,0,0-6.945-35.223l.321-.157A136.292,136.292,0,0,1-1610.914,1323.822Z" transform="translate(1618.212 -1288.378)" fill="#a8d29f"/>
        </g>
        <g id="Grupo_60318" data-name="Grupo 60318" transform="translate(0)">
          <path id="Trazado_120188" data-name="Trazado 120188" d="M-1639.045,1264.437c.676.87,3.841,2.269,4.06,2.05a11.889,11.889,0,0,0-1.287-4.831,1.7,1.7,0,0,0-2.61-.185A2.306,2.306,0,0,0-1639.045,1264.437Z" transform="translate(1640.545 -1260.559)" fill="#fff"/>
          <path id="Trazado_120189" data-name="Trazado 120189" d="M-1616.481,1259.821c-.611.93-1.165,4.737-.931,4.935s3.286-1.493,3.9-2.424a2.294,2.294,0,0,0-.378-2.94A1.708,1.708,0,0,0-1616.481,1259.821Z" transform="translate(1622.832 -1258.975)" fill="#fff"/>
          <path id="Trazado_120190" data-name="Trazado 120190" d="M-1611.854,1283.619c-.985-.305-4.307.5-4.383.82s2.426,2.929,3.411,3.234a1.836,1.836,0,0,0,2.271-1.475A2.146,2.146,0,0,0-1611.854,1283.619Z" transform="translate(1621.845 -1278.726)" fill="#fff"/>
          <path id="Trazado_120191" data-name="Trazado 120191" d="M-1620.425,1291.729c-.1-1.155-1.939-4.4-2.229-4.365s-1.55,3.615-1.452,4.77a1.929,1.929,0,0,0,2.019,1.889A2.046,2.046,0,0,0-1620.425,1291.729Z" transform="translate(1628.172 -1281.789)" fill="#fff"/>
          <path id="Trazado_120192" data-name="Trazado 120192" d="M-1642.082,1291.228c.9-.54,2.852-3.7,2.717-3.994s-3.532-.266-4.436.273a2.249,2.249,0,0,0-.778,2.837A1.746,1.746,0,0,0-1642.082,1291.228Z" transform="translate(1644.791 -1281.536)" fill="#fff"/>
          <path id="Trazado_120193" data-name="Trazado 120193" d="M-1620.25,1285.054a.624.624,0,0,1,.7-.574.686.686,0,0,1,.506.792.624.624,0,0,1-.7.574A.687.687,0,0,1-1620.25,1285.054Z" transform="translate(1625.075 -1279.465)" fill="#f78248"/>
        </g>
        <path id="Trazado_120194" data-name="Trazado 120194" d="M-1596.88,1313.03c-1,1.4-2.09,7.294-1.737,7.62s5.207-2.081,6.212-3.485a3.589,3.589,0,0,0-.418-4.609A2.656,2.656,0,0,0-1596.88,1313.03Z" transform="translate(1607.738 -1301.445)" fill="#a8d29f"/>
        <path id="Trazado_120195" data-name="Trazado 120195" d="M-1614.457,1403.145c1.043.578,3.351,4.094,3.206,4.433s-4.005.439-5.049-.139a2.543,2.543,0,0,1-.968-3.193A2,2,0,0,1-1614.457,1403.145Z" transform="translate(1622.843 -1374.643)" fill="#a8d29f"/>
      </g>
      <g id="Grupo_60322" data-name="Grupo 60322" transform="translate(-2026.088 241.091)">
        <g id="Grupo_60320" data-name="Grupo 60320" transform="translate(5.765 6.628)">
          <path id="Trazado_120196" data-name="Trazado 120196" d="M-1532.64,1302.334l.4-.073a155.977,155.977,0,0,1,7.974-40.44l-.368-.18A156.483,156.483,0,0,0-1532.64,1302.334Z" transform="translate(1532.64 -1261.64)" fill="#a8d29f"/>
        </g>
        <g id="Grupo_60321" data-name="Grupo 60321" transform="translate(7.098)">
          <path id="Trazado_120197" data-name="Trazado 120197" d="M-1487.47,1234.153c-.776,1-4.41,2.605-4.661,2.354s.7-4.547,1.477-5.546a1.951,1.951,0,0,1,3-.212A2.647,2.647,0,0,1-1487.47,1234.153Z" transform="translate(1498.784 -1229.7)" fill="#fff"/>
          <path id="Trazado_120198" data-name="Trazado 120198" d="M-1512.246,1228.853c.7,1.068,1.337,5.439,1.069,5.666s-3.773-1.715-4.474-2.783a2.634,2.634,0,0,1,.434-3.376A1.962,1.962,0,0,1-1512.246,1228.853Z" transform="translate(1517.992 -1227.882)" fill="#fff"/>
          <path id="Trazado_120199" data-name="Trazado 120199" d="M-1524.283,1256.175c1.131-.35,4.945.575,5.033.942s-2.785,3.362-3.916,3.713a2.108,2.108,0,0,1-2.607-1.693A2.464,2.464,0,0,1-1524.283,1256.175Z" transform="translate(1525.849 -1250.557)" fill="#fff"/>
          <path id="Trazado_120200" data-name="Trazado 120200" d="M-1504.8,1265.487c.113-1.326,2.227-5.049,2.56-5.012s1.78,4.15,1.667,5.476a2.215,2.215,0,0,1-2.318,2.169A2.35,2.35,0,0,1-1504.8,1265.487Z" transform="translate(1508.938 -1254.075)" fill="#fff"/>
          <path id="Trazado_120201" data-name="Trazado 120201" d="M-1488.094,1264.912c-1.038-.62-3.275-4.248-3.119-4.585s4.055-.306,5.093.313a2.582,2.582,0,0,1,.893,3.257A2.005,2.005,0,0,1-1488.094,1264.912Z" transform="translate(1498.02 -1253.785)" fill="#fff"/>
          <path id="Trazado_120202" data-name="Trazado 120202" d="M-1493.353,1257.823a.716.716,0,0,0-.8-.659.787.787,0,0,0-.58.909.715.715,0,0,0,.8.659A.788.788,0,0,0-1493.353,1257.823Z" transform="translate(1500.851 -1251.406)" fill="#f78248"/>
        </g>
        <path id="Trazado_120203" data-name="Trazado 120203" d="M-1556.121,1341.3c1.154,1.612,2.4,8.375,1.994,8.749s-5.979-2.39-7.133-4a4.12,4.12,0,0,1,.48-5.292A3.049,3.049,0,0,1-1556.121,1341.3Z" transform="translate(1562.001 -1317.917)" fill="#a8d29f"/>
        <path id="Trazado_120204" data-name="Trazado 120204" d="M-1523.586,1393.407c-1.2.664-3.847,4.7-3.681,5.089s4.6.5,5.8-.16a2.92,2.92,0,0,0,1.112-3.666A2.292,2.292,0,0,0-1523.586,1393.407Z" transform="translate(1534.093 -1360.683)" fill="#a8d29f"/>
      </g>
      <path id="Trazado_120205" data-name="Trazado 120205" d="M-1591.8,1456.524a6.078,6.078,0,0,0-4.892-2.67c-3.507-.219-5.242,2.08-8.785.766s-12.78-2.5-14.778,1.833Z" transform="translate(-417.268 -1168.04)" fill="#a8d29f"/>
      <path id="Trazado_120206" data-name="Trazado 120206" d="M-1715.047,1470.132l-358.711-.14a.467.467,0,0,1-.433-.492v-.239a.467.467,0,0,1,.433-.492l358.712.141a.466.466,0,0,1,.432.492v.239A.466.466,0,0,1-1715.047,1470.132Z" transform="translate(-52.464 -1180.38)" fill="#2e3552"/>
    </g>
    <g id="Grupo_78516" data-name="Grupo 78516" transform="translate(1279.012 1627.579)">
      <g id="Grupo_78452" data-name="Grupo 78452" clip-path="url(#clip-path)">
        <path id="Trazado_113873" data-name="Trazado 113873" d="M2.781,181.284c-1.535,0-2.781-1.52-2.781-3.395s1.245-3.395,2.781-3.395c24.617,0,44.645-24.451,44.645-54.506V61.3C47.426,31.241,27.4,6.79,2.781,6.79,1.245,6.79,0,5.269,0,3.395S1.245,0,2.781,0C30.465,0,52.987,27.5,52.987,61.3v58.693c0,33.8-22.523,61.3-50.207,61.3" fill="#fff"/>
      </g>
    </g>
  </g>
</svg>
