<svg xmlns="http://www.w3.org/2000/svg" width="80.638" height="120.95" viewBox="0 0 80.638 120.95">
  <g id="Grupo_61525" data-name="Grupo 61525" transform="translate(-373.735 -49.151)">
    <path id="Trazado_121555" data-name="Trazado 121555" d="M411.845,49.151,386.085,93.1a50.8,50.8,0,0,0,51.52,0l-25.76-43.951" transform="translate(2.21 0)" fill="#203a8a"/>
    <path id="Trazado_121556" data-name="Trazado 121556" d="M414.055,130.752a93.994,93.994,0,0,1-40.32-9.047,40.6,40.6,0,0,0,40.32,35.413h0a40.6,40.6,0,0,0,40.319-35.413A93.985,93.985,0,0,1,414.055,130.752Z" transform="translate(0 12.983)" fill="#203a8a"/>
    <path id="Trazado_121557" data-name="Trazado 121557" d="M454.024,114.073a40.845,40.845,0,0,0-4.972-13.275l-3.595-6.134a62.018,62.018,0,0,1-62.9,0l-3.595,6.133a40.819,40.819,0,0,0-4.972,13.275,83.153,83.153,0,0,0,80.031,0Z" transform="translate(0.046 8.144)" fill="#73d3ff"/>
  </g>
</svg>
