<svg xmlns="http://www.w3.org/2000/svg" width="539.811" height="69.486" viewBox="0 0 539.811 69.486">
  <g id="Grupo_557413" data-name="Grupo 557413" transform="translate(-213.607 -1807.25)">
    <g id="Grupo_60324" data-name="Grupo 60324" transform="translate(-221.182 1830.872)">
      <path id="Trazado_120207" data-name="Trazado 120207" d="M940.39,45.864a34.1,34.1,0,0,1-34.209-33.9,34.21,34.21,0,0,1,68.418,0A34.1,34.1,0,0,1,940.39,45.864Zm0-58.118a24.353,24.353,0,0,0-24.435,24.216,24.436,24.436,0,0,0,48.87,0A24.354,24.354,0,0,0,940.39-12.254Z" fill="#a6e65a"/>
    </g>
    <path id="Trazado_120223" data-name="Trazado 120223" d="M704.839,499.76a10,10,0,1,1-10-10A10,10,0,0,1,704.839,499.76Z" transform="translate(-471.232 1317.49)" fill="#143e9f"/>
    <path id="Trazado_133410" data-name="Trazado 133410" d="M714.839,504.76a15,15,0,1,1-15-15A15,15,0,0,1,714.839,504.76Z" transform="translate(20.16 1338.074)" fill="#bada95"/>
  </g>
</svg>
