<svg xmlns="http://www.w3.org/2000/svg" width="190" height="74.489" viewBox="0 0 190 74.489">
  <g id="Grupo_67944" data-name="Grupo 67944" transform="translate(-1230 -5812.618)">
    <g id="Grupo_60758" data-name="Grupo 60758" transform="translate(1557.576 5247.229) rotate(90)">
      <path id="Trazado_120208" data-name="Trazado 120208" d="M630.857,142.8a2.612,2.612,0,1,1,2.612-2.613A2.612,2.612,0,0,1,630.857,142.8Z" transform="translate(-33.657)" fill="#023e8a"/>
      <circle id="Elipse_4395" data-name="Elipse 4395" cx="2.612" cy="2.612" r="2.612" transform="translate(594.587 159.615)" fill="#023e8a"/>
      <circle id="Elipse_4396" data-name="Elipse 4396" cx="2.612" cy="2.612" r="2.612" transform="translate(594.587 199.167)" fill="#023e8a"/>
      <path id="Trazado_120209" data-name="Trazado 120209" d="M630.857,208.919a2.612,2.612,0,1,1,2.612-2.612A2.611,2.611,0,0,1,630.857,208.919Z" transform="translate(-33.657 26.268)" fill="#023e8a"/>
      <path id="Trazado_120210" data-name="Trazado 120210" d="M630.857,230.959a2.612,2.612,0,1,1,2.612-2.612A2.611,2.611,0,0,1,630.857,230.959Z" transform="translate(-33.657 35.024)" fill="#023e8a"/>
      <circle id="Elipse_4397" data-name="Elipse 4397" cx="2.612" cy="2.612" r="2.612" transform="translate(594.587 300.311)" fill="#023e8a"/>
      <circle id="Elipse_4398" data-name="Elipse 4398" cx="2.612" cy="2.612" r="2.612" transform="translate(594.587 322.352)" fill="#023e8a"/>
      <path id="Trazado_120211" data-name="Trazado 120211" d="M620.408,153.82a2.613,2.613,0,1,1,2.612-2.613A2.612,2.612,0,0,1,620.408,153.82Z" transform="translate(-28.062)" fill="#023e8a"/>
      <circle id="Elipse_4399" data-name="Elipse 4399" cx="2.612" cy="2.612" r="2.612" transform="translate(589.734 183.769)" fill="#023e8a"/>
      <circle id="Elipse_4400" data-name="Elipse 4400" cx="2.612" cy="2.612" r="2.612" transform="translate(589.734 214.565)" fill="#023e8a"/>
      <path id="Trazado_120212" data-name="Trazado 120212" d="M620.408,219.939a2.612,2.612,0,1,1,2.612-2.612A2.611,2.611,0,0,1,620.408,219.939Z" transform="translate(-28.062 30.646)" fill="#023e8a"/>
      <circle id="Elipse_4401" data-name="Elipse 4401" cx="2.612" cy="2.612" r="2.612" transform="translate(589.734 276.157)" fill="#023e8a"/>
      <path id="Trazado_120213" data-name="Trazado 120213" d="M620.408,264.019a2.612,2.612,0,1,1,2.612-2.612A2.611,2.611,0,0,1,620.408,264.019Z" transform="translate(-28.062 52.537)" fill="#023e8a"/>
      <path id="Trazado_120214" data-name="Trazado 120214" d="M609.306,142.8a2.612,2.612,0,1,1,2.612-2.613A2.613,2.613,0,0,1,609.306,142.8Z" transform="translate(-22.117)" fill="#023e8a"/>
      <circle id="Elipse_4402" data-name="Elipse 4402" cx="2.612" cy="2.612" r="2.612" transform="translate(584.576 159.615)" fill="#023e8a"/>
      <circle id="Elipse_4403" data-name="Elipse 4403" cx="2.612" cy="2.612" r="2.612" transform="translate(584.576 199.167)" fill="#023e8a"/>
      <path id="Trazado_120215" data-name="Trazado 120215" d="M609.306,208.919a2.612,2.612,0,1,1,2.612-2.612A2.612,2.612,0,0,1,609.306,208.919Z" transform="translate(-22.117 26.268)" fill="#023e8a"/>
      <path id="Trazado_120216" data-name="Trazado 120216" d="M609.306,230.959a2.612,2.612,0,1,1,2.612-2.612A2.612,2.612,0,0,1,609.306,230.959Z" transform="translate(-22.117 35.024)" fill="#023e8a"/>
      <circle id="Elipse_4404" data-name="Elipse 4404" cx="2.612" cy="2.612" r="2.612" transform="translate(584.576 300.311)" fill="#023e8a"/>
      <circle id="Elipse_4405" data-name="Elipse 4405" cx="2.612" cy="2.612" r="2.612" transform="translate(584.576 322.352)" fill="#023e8a"/>
      <path id="Trazado_120217" data-name="Trazado 120217" d="M598.857,153.82a2.613,2.613,0,1,1,2.612-2.613A2.612,2.612,0,0,1,598.857,153.82Z" transform="translate(-16.522)" fill="#023e8a"/>
      <path id="Trazado_120218" data-name="Trazado 120218" d="M598.857,175.86a2.613,2.613,0,1,1,2.612-2.613A2.612,2.612,0,0,1,598.857,175.86Z" transform="translate(-16.522 13.134)" fill="#023e8a"/>
      <path id="Trazado_120219" data-name="Trazado 120219" d="M598.857,197.9a2.612,2.612,0,1,1,2.612-2.613A2.612,2.612,0,0,1,598.857,197.9Z" transform="translate(-16.522 21.89)" fill="#023e8a"/>
      <path id="Trazado_120220" data-name="Trazado 120220" d="M598.857,219.939a2.612,2.612,0,1,1,2.612-2.612A2.611,2.611,0,0,1,598.857,219.939Z" transform="translate(-16.522 30.646)" fill="#023e8a"/>
      <path id="Trazado_120221" data-name="Trazado 120221" d="M598.857,241.979a2.612,2.612,0,1,1,2.612-2.612A2.611,2.611,0,0,1,598.857,241.979Z" transform="translate(-16.522 39.402)" fill="#023e8a"/>
      <path id="Trazado_120222" data-name="Trazado 120222" d="M598.857,264.019a2.612,2.612,0,1,1,2.612-2.612A2.611,2.611,0,0,1,598.857,264.019Z" transform="translate(-16.522 52.537)" fill="#023e8a"/>
      <line id="Línea_181" data-name="Línea 181" x2="74.489" transform="translate(565.39 179.756)" fill="none"/>
    </g>
  </g>
</svg>
