<svg xmlns="http://www.w3.org/2000/svg" width="185" height="185" viewBox="0 0 185 185">
  <g id="Grupo_840764" data-name="Grupo 840764" transform="translate(-262.081 -7979)">
    <rect id="Rectángulo_205303" data-name="Rectángulo 205303" width="185" height="185" transform="translate(262.081 7979)" fill="none"/>
    <g id="Grupo_840765" data-name="Grupo 840765" transform="translate(193.43 7977.777)">
      <g id="Grupo_62210" data-name="Grupo 62210" transform="translate(100.091 103.81)">
        <path id="Trazado_122390" data-name="Trazado 122390" d="M243.569,445.946c10.845,6.263,10.9,16.417.128,22.681s-28.3,6.259-39.142,0-10.9-16.415-.128-22.674S232.729,439.685,243.569,445.946Z" transform="translate(-196.387 -441.251)" fill="#b5dbdc"/>
      </g>
      <g id="Grupo_62211" data-name="Grupo 62211" transform="translate(100.091 101.912)">
        <path id="Trazado_122391" data-name="Trazado 122391" d="M243.569,444.924c10.845,6.263,10.9,16.418.128,22.681s-28.3,6.261-39.142,0-10.9-16.416-.128-22.675S232.729,438.663,243.569,444.924Z" transform="translate(-196.387 -440.229)" fill="#5abce5"/>
      </g>
      <g id="Grupo_62212" data-name="Grupo 62212" transform="translate(100.091 50.077)">
        <path id="Trazado_122392" data-name="Trazado 122392" d="M243.569,417.014c10.845,6.263,10.9,16.417.128,22.683s-28.3,6.259-39.142,0-10.9-16.417-.128-22.676S232.729,410.755,243.569,417.014Z" transform="translate(-196.387 -412.32)" fill="#5abce5"/>
      </g>
      <rect id="Rectángulo_34010" data-name="Rectángulo 34010" width="55.163" height="76.099" transform="translate(100.09 43.748)" fill="#5abce5"/>
      <g id="Grupo_62213" data-name="Grupo 62213" transform="translate(100.091 77.232)">
        <path id="Trazado_122393" data-name="Trazado 122393" d="M243.569,431.635c10.845,6.263,10.9,16.418.128,22.681s-28.3,6.261-39.142,0-10.9-16.417-.128-22.676S232.729,425.376,243.569,431.635Z" transform="translate(-196.387 -426.941)" fill="#b5dbdc"/>
      </g>
      <g id="Grupo_62214" data-name="Grupo 62214" transform="translate(100.091 75.332)">
        <path id="Trazado_122394" data-name="Trazado 122394" d="M243.569,430.612c10.845,6.263,10.9,16.418.128,22.683s-28.3,6.259-39.142,0-10.9-16.417-.128-22.676S232.729,424.353,243.569,430.612Z" transform="translate(-196.387 -425.918)" fill="#5abce5"/>
      </g>
      <g id="Grupo_62215" data-name="Grupo 62215" transform="translate(100.091 51.025)">
        <path id="Trazado_122395" data-name="Trazado 122395" d="M243.569,417.525c10.845,6.263,10.9,16.416.128,22.681s-28.3,6.259-39.142,0-10.9-16.415-.128-22.674S232.729,411.264,243.569,417.525Z" transform="translate(-196.387 -412.83)" fill="#b5dbdc"/>
      </g>
      <g id="Grupo_62216" data-name="Grupo 62216" transform="translate(100.091 49.126)">
        <path id="Trazado_122396" data-name="Trazado 122396" d="M243.569,416.5c10.845,6.263,10.9,16.418.128,22.681s-28.3,6.261-39.142,0-10.9-16.416-.128-22.675S232.729,410.242,243.569,416.5Z" transform="translate(-196.387 -411.808)" fill="#5abce5"/>
      </g>
      <g id="Grupo_62217" data-name="Grupo 62217" transform="translate(100.091 31.295)">
        <path id="Trazado_122397" data-name="Trazado 122397" d="M243.569,406.9c10.845,6.263,10.9,16.417.128,22.681s-28.3,6.259-39.142,0-10.9-16.415-.128-22.674S232.729,400.641,243.569,406.9Z" transform="translate(-196.387 -402.207)" fill="#b5dbdc"/>
      </g>
      <g id="Grupo_62218" data-name="Grupo 62218" transform="translate(100.091 29.397)">
        <path id="Trazado_122398" data-name="Trazado 122398" d="M243.569,405.88c10.845,6.263,10.9,16.418.128,22.681s-28.3,6.261-39.142,0-10.9-16.417-.128-22.676S232.729,399.619,243.569,405.88Z" transform="translate(-196.387 -401.185)" fill="#5abce5"/>
      </g>
      <g id="Grupo_62219" data-name="Grupo 62219" transform="translate(102.363 30.767)">
        <path id="Trazado_122399" data-name="Trazado 122399" d="M240.757,406.217c9.917,5.728,9.971,15.012.115,20.742s-25.874,5.724-35.793,0-9.963-15.011-.117-20.735S230.845,400.491,240.757,406.217Z" transform="translate(-197.611 -401.923)" fill="#298bed"/>
      </g>
      <g id="Grupo_62222" data-name="Grupo 62222" transform="translate(136.243 38.864)">
        <g id="Grupo_62220" data-name="Grupo 62220" transform="translate(0 5.999)">
          <path id="Trazado_122400" data-name="Trazado 122400" d="M223.549,410.28c1.768,1.023,1.777,2.682.022,3.705a7.016,7.016,0,0,1-6.382,0c-1.768-1.023-1.777-2.682-.02-3.705A7.013,7.013,0,0,1,223.549,410.28Z" transform="translate(-215.858 -409.513)" fill="#5abce5"/>
        </g>
        <rect id="Rectángulo_34011" data-name="Rectángulo 34011" width="9.023" height="6.169" transform="translate(0.001 2.619)" fill="#5abce5"/>
        <g id="Grupo_62221" data-name="Grupo 62221">
          <path id="Trazado_122401" data-name="Trazado 122401" d="M223.549,407.049c1.768,1.023,1.777,2.682.022,3.705a7.022,7.022,0,0,1-6.382,0c-1.768-1.021-1.777-2.682-.02-3.705A7.024,7.024,0,0,1,223.549,407.049Z" transform="translate(-215.858 -406.282)" fill="#b5dbdc"/>
        </g>
      </g>
      <g id="Grupo_62236" data-name="Grupo 62236" transform="translate(97.626 66.603)">
        <g id="Grupo_62223" data-name="Grupo 62223" transform="translate(0.001 74.414)">
          <path id="Trazado_122402" data-name="Trazado 122402" d="M242.242,465.981c10.845,6.263,10.9,16.415.13,22.679s-28.3,6.261-39.144,0-10.9-16.413-.128-22.672S231.4,459.718,242.242,465.981Z" transform="translate(-195.06 -461.284)" fill="#b5dbdc"/>
        </g>
        <g id="Grupo_62224" data-name="Grupo 62224" transform="translate(0.001 72.516)">
          <path id="Trazado_122403" data-name="Trazado 122403" d="M242.242,464.957c10.845,6.263,10.9,16.418.13,22.681s-28.3,6.261-39.144,0-10.9-16.417-.128-22.676S231.4,458.7,242.242,464.957Z" transform="translate(-195.06 -460.262)" fill="#a6ecff"/>
        </g>
        <g id="Grupo_62225" data-name="Grupo 62225" transform="translate(0.001 20.68)">
          <path id="Trazado_122404" data-name="Trazado 122404" d="M242.242,437.047c10.845,6.263,10.9,16.418.13,22.683s-28.3,6.259-39.144,0-10.9-16.417-.128-22.676S231.4,430.788,242.242,437.047Z" transform="translate(-195.06 -432.353)" fill="#5abce5"/>
        </g>
        <rect id="Rectángulo_34012" data-name="Rectángulo 34012" width="55.164" height="76.099" transform="translate(0 14.352)" fill="#a6ecff"/>
        <g id="Grupo_62226" data-name="Grupo 62226" transform="translate(0.001 47.836)">
          <path id="Trazado_122405" data-name="Trazado 122405" d="M242.242,451.668c10.845,6.263,10.9,16.418.13,22.681s-28.3,6.261-39.144,0-10.9-16.417-.128-22.676S231.4,445.409,242.242,451.668Z" transform="translate(-195.06 -446.974)" fill="#5abce5"/>
        </g>
        <g id="Grupo_62227" data-name="Grupo 62227" transform="translate(0.001 45.936)">
          <path id="Trazado_122406" data-name="Trazado 122406" d="M242.242,450.645c10.845,6.265,10.9,16.418.13,22.683s-28.3,6.259-39.144,0-10.9-16.417-.128-22.677S231.4,444.386,242.242,450.645Z" transform="translate(-195.06 -445.951)" fill="#a6ecff"/>
        </g>
        <g id="Grupo_62228" data-name="Grupo 62228" transform="translate(0.001 21.63)">
          <path id="Trazado_122407" data-name="Trazado 122407" d="M242.242,437.559c10.845,6.263,10.9,16.415.13,22.679s-28.3,6.261-39.144,0-10.9-16.415-.128-22.674S231.4,431.3,242.242,437.559Z" transform="translate(-195.06 -432.864)" fill="#5abce5"/>
        </g>
        <g id="Grupo_62229" data-name="Grupo 62229" transform="translate(0.001 19.73)">
          <path id="Trazado_122408" data-name="Trazado 122408" d="M242.242,436.536c10.845,6.263,10.9,16.418.13,22.681s-28.3,6.261-39.144,0-10.9-16.417-.128-22.676S231.4,430.275,242.242,436.536Z" transform="translate(-195.06 -431.841)" fill="#a6ecff"/>
        </g>
        <g id="Grupo_62230" data-name="Grupo 62230" transform="translate(0.001 1.899)">
          <path id="Trazado_122409" data-name="Trazado 122409" d="M242.242,426.937c10.845,6.263,10.9,16.415.13,22.679s-28.3,6.261-39.144,0-10.9-16.413-.128-22.672S231.4,420.674,242.242,426.937Z" transform="translate(-195.06 -422.24)" fill="#b5dbdc"/>
        </g>
        <g id="Grupo_62231" data-name="Grupo 62231" transform="translate(0.001)">
          <path id="Trazado_122410" data-name="Trazado 122410" d="M242.242,425.913c10.845,6.263,10.9,16.418.13,22.681s-28.3,6.261-39.144,0-10.9-16.417-.128-22.676S231.4,419.652,242.242,425.913Z" transform="translate(-195.06 -421.218)" fill="#5abce5"/>
        </g>
        <g id="Grupo_62232" data-name="Grupo 62232" transform="translate(2.273 1.371)">
          <path id="Trazado_122411" data-name="Trazado 122411" d="M239.428,426.252c9.921,5.728,9.973,15.012.117,20.74s-25.876,5.726-35.793,0-9.965-15.01-.117-20.735S229.518,420.524,239.428,426.252Z" transform="translate(-196.284 -421.956)" fill="#298bed"/>
        </g>
        <g id="Grupo_62235" data-name="Grupo 62235" transform="translate(36.153 9.467)">
          <g id="Grupo_62233" data-name="Grupo 62233" transform="translate(0 5.999)">
            <path id="Trazado_122412" data-name="Trazado 122412" d="M222.222,430.313c1.768,1.023,1.777,2.682.022,3.705a7.016,7.016,0,0,1-6.382,0c-1.768-1.023-1.777-2.682-.02-3.705A7.012,7.012,0,0,1,222.222,430.313Z" transform="translate(-214.531 -429.546)" fill="#5abce5"/>
          </g>
          <rect id="Rectángulo_34013" data-name="Rectángulo 34013" width="9.023" height="6.169" transform="translate(0.001 2.619)" fill="#5abce5"/>
          <g id="Grupo_62234" data-name="Grupo 62234">
            <path id="Trazado_122413" data-name="Trazado 122413" d="M222.222,427.082c1.768,1.023,1.777,2.682.022,3.705a7.022,7.022,0,0,1-6.382,0c-1.768-1.021-1.777-2.682-.02-3.705A7.024,7.024,0,0,1,222.222,427.082Z" transform="translate(-214.531 -426.316)" fill="#b5dbdc"/>
          </g>
        </g>
      </g>
      <g id="Grupo_62261" data-name="Grupo 62261" transform="translate(161.972 14.357)">
        <path id="Trazado_122421" data-name="Trazado 122421" d="M264.987,425.146l-11.118-4.106-11.893-10.349-3.233,2.57s11.432,14.089,13.85,15.583,9.224,3.293,9.224,3.293Z" transform="translate(-221.98 -377.996)" fill="#ccdcf8"/>
        <path id="Trazado_122422" data-name="Trazado 122422" d="M252.5,468.133s1.9,3.048-.741,3.781-1.855-.929-7.6.528-5.076-1.787-4.954-2.453,2.642-1.582,3.892-1.913,6.283-1.49,6.283-1.49l3.066.566Z" transform="translate(-221.656 -330.078)" fill="#111114"/>
        <path id="Trazado_122423" data-name="Trazado 122423" d="M249.008,462.872s-2.2.331-1.66,1.6,3.062,3.2,3.39,4.01,2.367,3.278,3.077,3.4c1.188.2,2.4.137,2.206-3.139S251.946,462.729,249.008,462.872Z" transform="translate(-214.68 -333.266)" fill="#111114"/>
        <path id="Trazado_122424" data-name="Trazado 122424" d="M257.639,432.783s4.276,6.35,1.5,17.059c0,0-4.789,16.166-3.933,19.342s3.773,10.813,1.853,17.349a75.8,75.8,0,0,0-1.933,7.708c-.149,1.718-3,1.881-3.416-.048-.895-4.09-.221-10.182-.845-13.211-2.028-9.91-3.071-15.079-2.429-21.823s-.139-22.011-.139-22.011S255.929,437.939,257.639,432.783Z" transform="translate(-213.839 -359.057)" fill="#efb185"/>
        <path id="Trazado_122425" data-name="Trazado 122425" d="M256.422,434.855s3.669,6.725-.087,17.126c0,0-6.285,15.653-5.719,18.9.55,3.239,2.748,11.121.228,17.445,0,0-2.442,5.821-2.629,7.5-.3,2.66-3,3-3.273,1.04-.583-3.977.6-11.558.256-14.637-1.09-10.057-1.666-15.3-.394-21.949s1.909-21.938,1.909-21.938S254.237,439.838,256.422,434.855Z" transform="translate(-217.407 -357.281)" fill="#efb185"/>
        <path id="Trazado_122426" data-name="Trazado 122426" d="M247.352,453.438h0s.21-8.787-1.712-11.138-4.928-7.713-2.366-10.711,4.077-4.5,4.077-4.5,11.987-11.779,16.05-8.352c0,0,3.645,2.786,2.143,12.418s-4.4,11.133-.854,16.266c2.752,3.98,3.892,5.08,2.067,20.04-1.673,13.772-.854,15.477-.854,15.477s-11.135,6.142-21.41,1.423c0,0-2.132-3.269,0-15.562C246.413,457.725,247.352,453.438,247.352,453.438Z" transform="translate(-218.945 -371.633)" fill="#f9f9f9"/>
        <path id="Trazado_122427" data-name="Trazado 122427" d="M244.383,467.053s1.536,3.3,4.2.734c0,0,.42,3.525-2.1,3.066S242.951,467.783,244.383,467.053Z" transform="translate(-217.708 -329.678)" fill="#111114"/>
        <path id="Trazado_122428" data-name="Trazado 122428" d="M246.4,419.591l.585,5.882s5.037,2.747,8.6-1.6l-.589-5.9A20.464,20.464,0,0,1,246.4,419.591Z" transform="translate(-215.421 -371.755)" fill="#efb185"/>
        <path id="Trazado_122429" data-name="Trazado 122429" d="M251.881,409.722s-4.475-.041-6.166,3.287-3.132,8.254-1.027,11.032c2.249,2.974,1.06,4.764,0,5.728s11.655,5.308,17.117-2.84C261.806,426.93,265.4,406.723,251.881,409.722Z" transform="translate(-217.787 -379.087)" fill="#231202"/>
        <g id="Grupo_62257" data-name="Grupo 62257">
          <path id="Trazado_122430" data-name="Trazado 122430" d="M240.074,481.609h2.132a8.517,8.517,0,0,0,8.515-8.514V397.147H231.564v75.948A8.513,8.513,0,0,0,240.074,481.609Z" transform="translate(-228.13 -389.607)" fill="#ade9f4"/>
          <path id="Trazado_122431" data-name="Trazado 122431" d="M239.2,469.993h1.573a6.289,6.289,0,0,0,6.287-6.289V407.635H232.913V463.7A6.29,6.29,0,0,0,239.2,469.993Z" transform="translate(-226.974 -380.616)" fill="#f6802d"/>
          <g id="Grupo_62244" data-name="Grupo 62244" transform="translate(5.939 22.92)">
            <path id="Trazado_122432" data-name="Trazado 122432" d="M245.093,406.678c2.7,1.631,2.609,4.225-.21,5.8a11.017,11.017,0,0,1-10-.106c-2.7-1.623-2.618-4.218.2-5.791A11.025,11.025,0,0,1,245.093,406.678Z" transform="translate(-232.913 -405.428)" fill="#e35b01"/>
          </g>
          <g id="Grupo_62248" data-name="Grupo 62248">
            <g id="Grupo_62247" data-name="Grupo 62247" transform="translate(2.375)">
              <g id="Grupo_62245" data-name="Grupo 62245" transform="translate(0.008 5.514)">
                <path id="Trazado_122433" data-name="Trazado 122433" d="M231,398.066v-2.01c0,1.506.966,2.063,2.91,3.235,4.007,2.413,10.637,2.479,14.815.15,2.15-1.2,3.233-1.579,3.229-3.176l0,1.738c0,1.6-1.073,3.2-3.225,4.4-4.172,2.329-10.808,2.26-14.813-.15C231.969,401.082,231,399.572,231,398.066Z" transform="translate(-230.998 -396.056)" fill="#4ed2f2"/>
              </g>
              <g id="Grupo_62246" data-name="Grupo 62246">
                <path id="Trazado_122434" data-name="Trazado 122434" d="M249.036,394.942c4.005,2.413,3.866,6.255-.31,8.588s-10.808,2.26-14.815-.152-3.871-6.253.306-8.586S245.026,392.53,249.036,394.942Z" transform="translate(-230.994 -393.087)" fill="#b8f8ff"/>
                <path id="Trazado_122435" data-name="Trazado 122435" d="M240.766,403.1a13.553,13.553,0,0,1-6.777-1.646c-1.445-.867-2.228-1.924-2.208-2.977.019-1.086.919-2.212,2.475-3.076a13.772,13.772,0,0,1,6.577-1.523,13.543,13.543,0,0,1,6.773,1.646c1.439.867,2.228,1.93,2.206,2.979-.017,1.088-.914,2.212-2.469,3.079A13.771,13.771,0,0,1,240.766,403.1Z" transform="translate(-230.319 -392.413)" fill="#2bb4da"/>
                <path id="Trazado_122436" data-name="Trazado 122436" d="M234.256,396.68a13.728,13.728,0,0,1,6.577-1.519,13.562,13.562,0,0,1,6.773,1.646,4.439,4.439,0,0,1,2.1,2.3,2.1,2.1,0,0,0,.106-.6c.022-1.049-.767-2.112-2.206-2.979a13.543,13.543,0,0,0-6.773-1.646,13.772,13.772,0,0,0-6.577,1.523c-1.556.864-2.456,1.989-2.475,3.076a2.17,2.17,0,0,0,.106.683A4.735,4.735,0,0,1,234.256,396.68Z" transform="translate(-230.319 -392.413)" fill="#29b2dc"/>
              </g>
            </g>
            <path id="Trazado_122437" data-name="Trazado 122437" d="M229.735,397.106s1.942,1.608,3.6,2.929-.483-2.156-.483-2.156Z" transform="translate(-229.697 -389.642)" fill="#4ed2f2"/>
            <path id="Trazado_122438" data-name="Trazado 122438" d="M232.528,396.056s-3.749,1.707-2.592,2.032,4.434,1.008,4.434,1.008S232.491,397.3,232.528,396.056Z" transform="translate(-229.715 -390.542)" fill="#b8f8ff"/>
            <path id="Trazado_122439" data-name="Trazado 122439" d="M234.287,396.274s-4.5,1.174-3.888,1.43a9.525,9.525,0,0,0,3.8.448Z" transform="translate(-229.178 -390.355)" fill="#2bb4da"/>
          </g>
          <g id="Grupo_62249" data-name="Grupo 62249" transform="translate(17.22 18.034)">
            <path id="Trazado_122440" data-name="Trazado 122440" d="M243.52,402.866c.273-.158.494-.033.494.282a1.089,1.089,0,0,1-.488.858l-4.044,2.333c-.269.158-.492.032-.492-.292a1.071,1.071,0,0,1,.492-.847Z" transform="translate(-238.989 -402.797)" fill="#f3f4f4"/>
          </g>
          <g id="Grupo_62250" data-name="Grupo 62250" transform="translate(17.22 23.352)">
            <path id="Trazado_122441" data-name="Trazado 122441" d="M243.52,405.726c.273-.154.494-.028.494.282a1.084,1.084,0,0,1-.488.86l-4.044,2.333c-.269.156-.492.032-.492-.29a1.087,1.087,0,0,1,.492-.853Z" transform="translate(-238.989 -405.661)" fill="#f3f4f4"/>
          </g>
          <g id="Grupo_62251" data-name="Grupo 62251" transform="translate(17.22 31.33)">
            <path id="Trazado_122442" data-name="Trazado 122442" d="M243.52,410.025c.273-.16.494-.033.494.282a1.083,1.083,0,0,1-.488.856l-4.044,2.335c-.269.156-.492.03-.492-.292a1.072,1.072,0,0,1,.492-.849Z" transform="translate(-238.989 -409.956)" fill="#f3f4f4"/>
          </g>
          <g id="Grupo_62252" data-name="Grupo 62252" transform="translate(17.22 36.649)">
            <path id="Trazado_122443" data-name="Trazado 122443" d="M243.52,412.887c.273-.156.494-.032.494.282a1.086,1.086,0,0,1-.488.858l-4.044,2.333c-.269.156-.492.032-.492-.292a1.078,1.078,0,0,1,.492-.849Z" transform="translate(-238.989 -412.82)" fill="#f3f4f4"/>
          </g>
          <g id="Grupo_62253" data-name="Grupo 62253" transform="translate(17.22 47.284)">
            <path id="Trazado_122444" data-name="Trazado 122444" d="M243.52,418.615c.273-.16.494-.033.494.28a1.083,1.083,0,0,1-.488.858l-4.044,2.335c-.269.156-.492.032-.492-.29a1.075,1.075,0,0,1,.492-.851Z" transform="translate(-238.989 -418.546)" fill="#f3f4f4"/>
          </g>
          <g id="Grupo_62254" data-name="Grupo 62254" transform="translate(17.22 52.603)">
            <path id="Trazado_122445" data-name="Trazado 122445" d="M243.52,421.477c.273-.158.494-.03.494.282a1.083,1.083,0,0,1-.488.858l-4.044,2.333c-.269.158-.492.033-.492-.29a1.081,1.081,0,0,1,.492-.851Z" transform="translate(-238.989 -421.41)" fill="#f3f4f4"/>
          </g>
          <g id="Grupo_62255" data-name="Grupo 62255" transform="translate(17.22 60.58)">
            <path id="Trazado_122446" data-name="Trazado 122446" d="M243.52,425.772c.273-.156.494-.03.494.282a1.083,1.083,0,0,1-.488.858l-4.044,2.333c-.269.156-.492.032-.492-.29a1.078,1.078,0,0,1,.492-.851Z" transform="translate(-238.989 -425.705)" fill="#f3f4f4"/>
          </g>
          <g id="Grupo_62256" data-name="Grupo 62256" transform="translate(17.22 65.898)">
            <path id="Trazado_122447" data-name="Trazado 122447" d="M243.52,428.636c.273-.158.494-.032.494.282a1.086,1.086,0,0,1-.488.858l-4.044,2.333c-.269.158-.492.032-.492-.292a1.075,1.075,0,0,1,.492-.849Z" transform="translate(-238.989 -428.568)" fill="#f3f4f4"/>
          </g>
        </g>
        <g id="Grupo_62259" data-name="Grupo 62259" transform="translate(2.683 51.923)">
          <g id="Grupo_62258" data-name="Grupo 62258">
            <path id="Trazado_122448" data-name="Trazado 122448" d="M234.915,427.355a18.982,18.982,0,0,0-2.438-1.707,3.557,3.557,0,0,1-1.311-2.357c-.037-.739.067-2.723,1-2.143s1.246,1.055,1.888,1.337a4.638,4.638,0,0,1,1.773,1.712c.176.459.733,1.933.733,1.933Z" transform="translate(-231.16 -421.044)" fill="#efb185"/>
          </g>
        </g>
        <g id="Grupo_62260" data-name="Grupo 62260" transform="translate(5.881 55.956)">
          <path id="Trazado_122449" data-name="Trazado 122449" d="M259.831,427.466c-.384-1.324-1.968-3.083-5.338-1.582-3.353,1.5-12.7,5.791-12.7,5.791s-6.287-7.684-7.152-8.46a2,2,0,0,1-1.76,2.273s3.732,10.4,6.935,11.216S261.428,432.938,259.831,427.466Z" transform="translate(-232.882 -423.215)" fill="#f9f9f9"/>
        </g>
      </g>
      <g id="Grupo_62262" data-name="Grupo 62262" transform="translate(146.594 74.496)" opacity="0.4">
        <path id="Trazado_122450" data-name="Trazado 122450" d="M234.681,463.481c17.582,8.7,45.994,8.7,63.462,0s17.377-22.789-.21-31.49-45.99-8.7-63.457,0-17.376,22.8.2,31.49" transform="translate(-221.432 -425.468)" fill="#fcfdfd" opacity="0"/>
        <path id="Trazado_122451" data-name="Trazado 122451" d="M235.608,466.891c16.444,8.287,43.018,8.287,59.353,0s16.256-21.7-.195-29.991-43.016-8.284-59.35,0-16.252,21.713.191,29.991" transform="translate(-219.905 -420.993)" fill="#fdfdfd" opacity="0.167"/>
        <path id="Trazado_122452" data-name="Trazado 122452" d="M236.533,470.3c15.307,7.871,40.039,7.871,55.248,0s15.131-20.62-.182-28.491-40.041-7.869-55.242,0-15.129,20.625.176,28.491" transform="translate(-218.376 -416.518)" fill="#fdfefe" opacity="0.333"/>
        <path id="Trazado_122453" data-name="Trazado 122453" d="M237.46,473.708c14.167,7.457,37.063,7.457,51.141,0s14.007-19.535-.169-26.99-37.067-7.455-51.135,0-14.006,19.539.163,26.99" transform="translate(-216.848 -412.044)" fill="#fefefe" opacity="0.5"/>
        <path id="Trazado_122454" data-name="Trazado 122454" d="M238.384,477.118c13.031,7.041,34.088,7.041,47.034,0s12.884-18.45-.154-25.491-34.09-7.041-47.028,0-12.882,18.452.149,25.491" transform="translate(-215.32 -407.569)" fill="#fefefe" opacity="0.667"/>
        <path id="Trazado_122455" data-name="Trazado 122455" d="M239.311,480.525c11.893,6.627,31.11,6.627,42.926,0s11.761-17.362-.139-23.99-31.119-6.625-42.925,0-11.755,17.367.137,23.99" transform="translate(-213.792 -403.094)" fill="#fff" opacity="0.833"/>
        <path id="Trazado_122456" data-name="Trazado 122456" d="M240.235,483.935c10.754,6.211,28.134,6.211,38.819,0s10.637-16.277-.124-22.492-28.143-6.211-38.816,0-10.634,16.281.121,22.492" transform="translate(-212.264 -398.62)" fill="#fff"/>
      </g>
    </g>
  </g>
</svg>
